<?xml version="1.0" encoding="UTF-8"?>
<svg xmlns="http://www.w3.org/2000/svg" version="1.1" width="120" height="120" viewBox="0 0 120 120"><rect x="0" y="0" width="120" height="120" fill="#ffffff"/><g transform="scale(3.636)"><g transform="translate(0,0)"><path fill-rule="evenodd" d="M9 0L9 1L11 1L11 2L9 2L9 3L8 3L8 5L9 5L9 6L8 6L8 7L9 7L9 9L8 9L8 8L5 8L5 10L6 10L6 11L7 11L7 10L6 10L6 9L8 9L8 10L9 10L9 11L10 11L10 12L9 12L9 13L8 13L8 12L5 12L5 11L4 11L4 10L2 10L2 8L0 8L0 9L1 9L1 10L0 10L0 16L1 16L1 17L2 17L2 18L0 18L0 25L2 25L2 24L4 24L4 25L8 25L8 28L9 28L9 27L10 27L10 29L9 29L9 31L8 31L8 33L11 33L11 31L12 31L12 33L13 33L13 32L14 32L14 33L15 33L15 32L14 32L14 31L12 31L12 30L15 30L15 31L16 31L16 30L17 30L17 29L18 29L18 30L19 30L19 31L18 31L18 32L17 32L17 33L18 33L18 32L19 32L19 33L21 33L21 31L22 31L22 32L24 32L24 33L25 33L25 32L24 32L24 31L25 31L25 29L27 29L27 31L28 31L28 33L29 33L29 30L31 30L31 31L30 31L30 32L31 32L31 33L32 33L32 32L31 32L31 31L33 31L33 28L32 28L32 29L30 29L30 28L31 28L31 27L32 27L32 26L33 26L33 25L32 25L32 24L31 24L31 23L32 23L32 20L31 20L31 19L30 19L30 20L29 20L29 19L28 19L28 18L27 18L27 17L25 17L25 16L24 16L24 17L21 17L21 16L20 16L20 17L19 17L19 18L18 18L18 20L17 20L17 17L18 17L18 16L17 16L17 17L15 17L15 16L16 16L16 15L17 15L17 14L16 14L16 13L15 13L15 11L16 11L16 12L17 12L17 11L19 11L19 13L18 13L18 14L20 14L20 12L21 12L21 11L22 11L22 12L23 12L23 13L22 13L22 14L24 14L24 12L25 12L25 14L26 14L26 15L28 15L28 17L29 17L29 18L30 18L30 17L29 17L29 15L30 15L30 16L31 16L31 18L32 18L32 19L33 19L33 17L32 17L32 16L33 16L33 15L32 15L32 14L33 14L33 12L31 12L31 11L30 11L30 12L29 12L29 9L30 9L30 8L28 8L28 10L27 10L27 12L26 12L26 11L25 11L25 10L26 10L26 9L25 9L25 6L24 6L24 8L23 8L23 6L22 6L22 3L24 3L24 4L23 4L23 5L24 5L24 4L25 4L25 3L24 3L24 2L25 2L25 1L24 1L24 2L21 2L21 6L20 6L20 7L19 7L19 6L18 6L18 5L20 5L20 4L19 4L19 3L20 3L20 2L18 2L18 0L17 0L17 2L16 2L16 0L13 0L13 1L12 1L12 0ZM20 0L20 1L21 1L21 0ZM22 0L22 1L23 1L23 0ZM13 1L13 2L12 2L12 4L11 4L11 7L10 7L10 6L9 6L9 7L10 7L10 8L11 8L11 10L10 10L10 9L9 9L9 10L10 10L10 11L11 11L11 10L13 10L13 11L12 11L12 12L11 12L11 19L12 19L12 21L11 21L11 23L10 23L10 24L9 24L9 25L10 25L10 27L11 27L11 26L13 26L13 27L12 27L12 29L10 29L10 30L12 30L12 29L15 29L15 24L17 24L17 25L19 25L19 24L20 24L20 26L19 26L19 27L18 27L18 26L17 26L17 28L16 28L16 29L17 29L17 28L18 28L18 29L20 29L20 31L19 31L19 32L20 32L20 31L21 31L21 29L22 29L22 30L24 30L24 27L23 27L23 29L22 29L22 26L24 26L24 24L29 24L29 28L30 28L30 27L31 27L31 26L32 26L32 25L31 25L31 24L30 24L30 23L29 23L29 22L30 22L30 21L31 21L31 20L30 20L30 21L29 21L29 22L28 22L28 21L27 21L27 18L26 18L26 19L24 19L24 20L23 20L23 21L24 21L24 22L23 22L23 23L21 23L21 22L22 22L22 19L23 19L23 18L21 18L21 17L20 17L20 19L19 19L19 20L18 20L18 21L17 21L17 20L16 20L16 19L15 19L15 20L14 20L14 19L12 19L12 18L15 18L15 17L14 17L14 16L13 16L13 17L12 17L12 15L13 15L13 14L12 14L12 13L13 13L13 12L14 12L14 11L15 11L15 10L14 10L14 8L18 8L18 9L17 9L17 10L18 10L18 9L20 9L20 8L21 8L21 10L19 10L19 11L21 11L21 10L22 10L22 11L24 11L24 10L25 10L25 9L24 9L24 10L22 10L22 6L21 6L21 7L20 7L20 8L18 8L18 6L17 6L17 7L16 7L16 5L18 5L18 4L16 4L16 5L15 5L15 7L14 7L14 6L13 6L13 5L12 5L12 4L14 4L14 2L15 2L15 3L16 3L16 2L15 2L15 1ZM17 2L17 3L18 3L18 2ZM9 3L9 5L10 5L10 3ZM12 6L12 9L13 9L13 8L14 8L14 7L13 7L13 6ZM31 9L31 10L32 10L32 9ZM1 10L1 11L2 11L2 10ZM3 11L3 12L1 12L1 13L3 13L3 17L5 17L5 16L7 16L7 17L6 17L6 18L7 18L7 17L8 17L8 18L9 18L9 17L8 17L8 15L9 15L9 16L10 16L10 14L8 14L8 13L5 13L5 12L4 12L4 11ZM28 12L28 13L27 13L27 14L28 14L28 15L29 15L29 12ZM30 12L30 15L31 15L31 16L32 16L32 15L31 15L31 12ZM1 14L1 16L2 16L2 14ZM5 14L5 15L4 15L4 16L5 16L5 15L8 15L8 14ZM22 15L22 16L23 16L23 15ZM24 17L24 18L25 18L25 17ZM2 18L2 19L1 19L1 24L2 24L2 23L4 23L4 24L8 24L8 23L9 23L9 22L10 22L10 21L9 21L9 20L10 20L10 19L8 19L8 20L7 20L7 19L6 19L6 20L4 20L4 19L5 19L5 18ZM2 20L2 21L3 21L3 20ZM6 20L6 21L7 21L7 20ZM15 20L15 22L14 22L14 21L12 21L12 22L13 22L13 23L12 23L12 24L10 24L10 25L14 25L14 23L17 23L17 22L16 22L16 20ZM20 20L20 21L19 21L19 22L21 22L21 20ZM8 21L8 22L6 22L6 23L8 23L8 22L9 22L9 21ZM25 21L25 22L26 22L26 21ZM27 22L27 23L28 23L28 22ZM18 23L18 24L19 24L19 23ZM20 23L20 24L21 24L21 23ZM23 23L23 24L24 24L24 23ZM21 25L21 26L20 26L20 27L19 27L19 28L20 28L20 29L21 29L21 28L20 28L20 27L21 27L21 26L22 26L22 25ZM25 25L25 28L28 28L28 25ZM30 25L30 26L31 26L31 25ZM26 26L26 27L27 27L27 26ZM9 31L9 32L10 32L10 31ZM0 0L0 7L7 7L7 0ZM1 1L1 6L6 6L6 1ZM2 2L2 5L5 5L5 2ZM26 0L26 7L33 7L33 0ZM27 1L27 6L32 6L32 1ZM28 2L28 5L31 5L31 2ZM0 26L0 33L7 33L7 26ZM1 27L1 32L6 32L6 27ZM2 28L2 31L5 31L5 28Z" fill="#000000"/></g></g></svg>
