<?xml version="1.0" encoding="UTF-8"?>
<svg xmlns="http://www.w3.org/2000/svg" version="1.1" width="120" height="120" viewBox="0 0 120 120"><rect x="0" y="0" width="120" height="120" fill="#ffffff"/><g transform="scale(3.636)"><g transform="translate(0,0)"><path fill-rule="evenodd" d="M10 0L10 2L11 2L11 0ZM12 0L12 1L13 1L13 0ZM16 0L16 1L14 1L14 3L13 3L13 2L12 2L12 4L14 4L14 5L11 5L11 6L10 6L10 4L11 4L11 3L8 3L8 4L9 4L9 5L8 5L8 7L9 7L9 8L6 8L6 9L7 9L7 10L6 10L6 11L5 11L5 12L4 12L4 13L5 13L5 14L3 14L3 13L1 13L1 14L3 14L3 16L2 16L2 15L0 15L0 16L1 16L1 18L0 18L0 19L1 19L1 18L2 18L2 17L3 17L3 19L2 19L2 20L3 20L3 21L1 21L1 20L0 20L0 25L1 25L1 22L3 22L3 23L4 23L4 24L2 24L2 25L4 25L4 24L5 24L5 25L8 25L8 27L9 27L9 26L10 26L10 28L8 28L8 33L10 33L10 32L9 32L9 31L10 31L10 30L12 30L12 31L13 31L13 30L12 30L12 29L19 29L19 30L21 30L21 29L19 29L19 28L17 28L17 27L18 27L18 26L17 26L17 27L16 27L16 26L15 26L15 27L14 27L14 26L13 26L13 25L19 25L19 26L20 26L20 28L24 28L24 29L25 29L25 30L24 30L24 31L23 31L23 30L22 30L22 31L18 31L18 32L16 32L16 31L17 31L17 30L15 30L15 31L14 31L14 32L12 32L12 33L19 33L19 32L20 32L20 33L21 33L21 32L22 32L22 33L25 33L25 32L24 32L24 31L27 31L27 30L29 30L29 31L28 31L28 32L27 32L27 33L28 33L28 32L31 32L31 33L32 33L32 32L31 32L31 31L32 31L32 30L29 30L29 28L32 28L32 29L33 29L33 28L32 28L32 26L33 26L33 24L32 24L32 26L31 26L31 25L30 25L30 26L29 26L29 24L31 24L31 23L32 23L32 22L33 22L33 21L32 21L32 20L31 20L31 19L32 19L32 18L33 18L33 17L32 17L32 16L31 16L31 15L32 15L32 14L33 14L33 13L31 13L31 15L30 15L30 16L31 16L31 19L30 19L30 17L29 17L29 16L28 16L28 15L27 15L27 17L26 17L26 16L25 16L25 14L28 14L28 13L30 13L30 12L31 12L31 11L32 11L32 10L33 10L33 9L32 9L32 8L31 8L31 9L30 9L30 8L29 8L29 9L30 9L30 10L27 10L27 9L28 9L28 8L27 8L27 9L26 9L26 8L25 8L25 6L24 6L24 8L22 8L22 7L23 7L23 5L24 5L24 4L25 4L25 3L24 3L24 2L25 2L25 1L24 1L24 0L23 0L23 1L24 1L24 2L22 2L22 1L21 1L21 0L19 0L19 1L17 1L17 0ZM8 1L8 2L9 2L9 1ZM19 1L19 4L18 4L18 6L17 6L17 5L16 5L16 4L17 4L17 3L18 3L18 2L15 2L15 3L16 3L16 4L15 4L15 5L14 5L14 6L13 6L13 7L12 7L12 6L11 6L11 7L12 7L12 8L16 8L16 9L15 9L15 10L16 10L16 11L14 11L14 9L13 9L13 10L12 10L12 9L11 9L11 8L10 8L10 9L9 9L9 10L7 10L7 11L6 11L6 12L5 12L5 13L6 13L6 14L7 14L7 15L5 15L5 17L4 17L4 19L5 19L5 17L6 17L6 18L7 18L7 17L8 17L8 16L7 16L7 15L10 15L10 16L9 16L9 17L13 17L13 18L16 18L16 19L13 19L13 20L11 20L11 21L13 21L13 20L20 20L20 21L22 21L22 20L21 20L21 19L22 19L22 18L23 18L23 21L24 21L24 22L19 22L19 21L18 21L18 22L17 22L17 21L14 21L14 22L11 22L11 24L9 24L9 21L8 21L8 20L9 20L9 19L8 19L8 20L7 20L7 19L6 19L6 20L7 20L7 21L6 21L6 22L5 22L5 20L4 20L4 22L5 22L5 24L8 24L8 25L10 25L10 26L11 26L11 27L12 27L12 28L14 28L14 27L13 27L13 26L11 26L11 24L12 24L12 25L13 25L13 24L14 24L14 23L15 23L15 24L16 24L16 23L17 23L17 24L19 24L19 25L20 25L20 24L21 24L21 25L22 25L22 26L21 26L21 27L22 27L22 26L24 26L24 25L22 25L22 24L23 24L23 23L24 23L24 24L25 24L25 23L27 23L27 22L29 22L29 21L30 21L30 23L31 23L31 20L30 20L30 19L29 19L29 17L27 17L27 18L26 18L26 17L25 17L25 16L23 16L23 15L24 15L24 14L25 14L25 13L24 13L24 11L27 11L27 12L26 12L26 13L27 13L27 12L28 12L28 11L27 11L27 10L25 10L25 9L24 9L24 10L23 10L23 9L22 9L22 8L21 8L21 7L22 7L22 5L23 5L23 4L22 4L22 3L21 3L21 2L20 2L20 1ZM19 4L19 5L20 5L20 7L19 7L19 6L18 6L18 7L19 7L19 8L20 8L20 7L21 7L21 4ZM15 5L15 6L14 6L14 7L15 7L15 6L16 6L16 8L17 8L17 9L18 9L18 10L20 10L20 11L21 11L21 12L23 12L23 10L22 10L22 9L18 9L18 8L17 8L17 6L16 6L16 5ZM9 6L9 7L10 7L10 6ZM0 8L0 9L3 9L3 11L2 11L2 10L0 10L0 11L1 11L1 12L3 12L3 11L4 11L4 10L5 10L5 8ZM10 9L10 11L11 11L11 9ZM21 10L21 11L22 11L22 10ZM30 10L30 11L29 11L29 12L30 12L30 11L31 11L31 10ZM8 11L8 12L6 12L6 13L7 13L7 14L8 14L8 13L11 13L11 14L12 14L12 16L13 16L13 17L17 17L17 18L18 18L18 19L19 19L19 18L20 18L20 19L21 19L21 17L18 17L18 16L22 16L22 17L23 17L23 18L24 18L24 19L25 19L25 21L26 21L26 22L27 22L27 21L29 21L29 19L28 19L28 18L27 18L27 19L28 19L28 20L27 20L27 21L26 21L26 18L24 18L24 17L23 17L23 16L22 16L22 15L23 15L23 14L24 14L24 13L23 13L23 14L22 14L22 15L18 15L18 14L21 14L21 13L20 13L20 12L19 12L19 11L18 11L18 12L17 12L17 11L16 11L16 12L13 12L13 11L12 11L12 12L13 12L13 13L11 13L11 12L9 12L9 11ZM18 12L18 13L19 13L19 12ZM14 13L14 14L13 14L13 16L14 16L14 15L15 15L15 16L18 16L18 15L17 15L17 13ZM15 14L15 15L16 15L16 14ZM6 16L6 17L7 17L7 16ZM10 18L10 19L12 19L12 18ZM6 22L6 23L8 23L8 22ZM15 22L15 23L16 23L16 22ZM19 23L19 24L20 24L20 23ZM21 23L21 24L22 24L22 23ZM28 23L28 24L29 24L29 23ZM25 25L25 28L28 28L28 25ZM26 26L26 27L27 27L27 26ZM30 26L30 27L31 27L31 26ZM26 29L26 30L27 30L27 29ZM0 0L0 7L7 7L7 0ZM1 1L1 6L6 6L6 1ZM2 2L2 5L5 5L5 2ZM26 0L26 7L33 7L33 0ZM27 1L27 6L32 6L32 1ZM28 2L28 5L31 5L31 2ZM0 26L0 33L7 33L7 26ZM1 27L1 32L6 32L6 27ZM2 28L2 31L5 31L5 28Z" fill="#000000"/></g></g></svg>
