<?xml version="1.0" encoding="UTF-8"?>
<svg xmlns="http://www.w3.org/2000/svg" version="1.1" width="120" height="120" viewBox="0 0 120 120"><rect x="0" y="0" width="120" height="120" fill="#ffffff"/><g transform="scale(3.636)"><g transform="translate(0,0)"><path fill-rule="evenodd" d="M8 0L8 1L9 1L9 2L10 2L10 3L11 3L11 1L15 1L15 0L11 0L11 1L9 1L9 0ZM18 0L18 2L20 2L20 3L17 3L17 1L16 1L16 2L15 2L15 4L14 4L14 2L12 2L12 4L11 4L11 5L10 5L10 4L9 4L9 5L10 5L10 8L9 8L9 6L8 6L8 8L9 8L9 9L8 9L8 10L10 10L10 11L9 11L9 14L8 14L8 11L7 11L7 10L6 10L6 9L7 9L7 8L6 8L6 9L5 9L5 8L3 8L3 9L4 9L4 10L6 10L6 11L7 11L7 12L6 12L6 13L5 13L5 14L4 14L4 13L3 13L3 12L5 12L5 11L3 11L3 10L2 10L2 8L0 8L0 9L1 9L1 11L0 11L0 19L1 19L1 20L0 20L0 25L4 25L4 23L5 23L5 22L6 22L6 23L7 23L7 24L6 24L6 25L8 25L8 26L9 26L9 25L10 25L10 26L13 26L13 27L12 27L12 28L11 28L11 29L9 29L9 28L10 28L10 27L9 27L9 28L8 28L8 30L10 30L10 31L8 31L8 33L9 33L9 32L10 32L10 33L11 33L11 32L10 32L10 31L13 31L13 32L14 32L14 31L15 31L15 33L16 33L16 32L17 32L17 33L20 33L20 32L19 32L19 31L22 31L22 32L23 32L23 33L30 33L30 32L33 32L33 30L32 30L32 31L31 31L31 29L33 29L33 28L32 28L32 27L30 27L30 26L32 26L32 24L31 24L31 23L33 23L33 22L32 22L32 21L31 21L31 23L30 23L30 24L29 24L29 23L28 23L28 22L30 22L30 21L28 21L28 20L29 20L29 17L30 17L30 16L31 16L31 18L32 18L32 19L30 19L30 20L33 20L33 15L32 15L32 16L31 16L31 15L30 15L30 16L29 16L29 15L28 15L28 12L27 12L27 10L29 10L29 9L27 9L27 8L26 8L26 9L27 9L27 10L26 10L26 11L25 11L25 10L24 10L24 9L25 9L25 6L24 6L24 5L25 5L25 3L24 3L24 2L25 2L25 1L24 1L24 2L23 2L23 4L24 4L24 5L23 5L23 6L22 6L22 5L21 5L21 6L20 6L20 7L19 7L19 6L18 6L18 5L17 5L17 4L19 4L19 5L20 5L20 4L22 4L22 1L23 1L23 0L21 0L21 1L19 1L19 0ZM12 4L12 5L11 5L11 7L12 7L12 9L10 9L10 10L12 10L12 11L13 11L13 13L11 13L11 12L10 12L10 15L8 15L8 16L7 16L7 15L6 15L6 14L7 14L7 13L6 13L6 14L5 14L5 15L4 15L4 14L3 14L3 13L2 13L2 11L1 11L1 15L2 15L2 16L1 16L1 19L2 19L2 20L1 20L1 21L3 21L3 23L2 23L2 22L1 22L1 24L3 24L3 23L4 23L4 21L5 21L5 19L4 19L4 18L2 18L2 16L3 16L3 15L4 15L4 17L5 17L5 18L7 18L7 17L9 17L9 16L10 16L10 18L11 18L11 17L12 17L12 16L14 16L14 17L13 17L13 18L14 18L14 19L15 19L15 16L16 16L16 20L19 20L19 19L17 19L17 18L19 18L19 17L21 17L21 18L20 18L20 19L21 19L21 20L20 20L20 22L19 22L19 21L18 21L18 22L19 22L19 23L20 23L20 24L21 24L21 25L18 25L18 24L17 24L17 21L16 21L16 24L17 24L17 25L16 25L16 26L18 26L18 27L17 27L17 29L18 29L18 31L17 31L17 30L16 30L16 31L17 31L17 32L18 32L18 31L19 31L19 29L18 29L18 27L19 27L19 28L20 28L20 27L19 27L19 26L21 26L21 29L22 29L22 25L23 25L23 26L24 26L24 24L23 24L23 23L21 23L21 22L22 22L22 21L24 21L24 23L25 23L25 22L26 22L26 23L27 23L27 20L28 20L28 18L27 18L27 20L25 20L25 21L24 21L24 20L23 20L23 18L24 18L24 19L26 19L26 17L22 17L22 16L23 16L23 15L24 15L24 14L25 14L25 13L26 13L26 15L27 15L27 13L26 13L26 12L25 12L25 11L24 11L24 12L23 12L23 11L21 11L21 9L24 9L24 6L23 6L23 8L22 8L22 6L21 6L21 7L20 7L20 10L19 10L19 9L17 9L17 8L19 8L19 7L18 7L18 6L17 6L17 8L16 8L16 4L15 4L15 5L13 5L13 4ZM12 5L12 7L13 7L13 8L14 8L14 10L13 10L13 9L12 9L12 10L13 10L13 11L14 11L14 12L15 12L15 13L13 13L13 14L11 14L11 15L10 15L10 16L12 16L12 15L14 15L14 14L15 14L15 15L16 15L16 14L17 14L17 15L18 15L18 14L17 14L17 13L16 13L16 12L18 12L18 13L19 13L19 12L21 12L21 11L18 11L18 10L17 10L17 11L16 11L16 8L14 8L14 7L15 7L15 6L14 6L14 7L13 7L13 5ZM32 8L32 9L30 9L30 10L31 10L31 11L29 11L29 12L31 12L31 13L33 13L33 12L31 12L31 11L33 11L33 10L32 10L32 9L33 9L33 8ZM22 12L22 13L20 13L20 14L19 14L19 16L18 16L18 17L19 17L19 16L21 16L21 15L20 15L20 14L22 14L22 13L23 13L23 14L24 14L24 13L25 13L25 12L24 12L24 13L23 13L23 12ZM2 14L2 15L3 15L3 14ZM6 16L6 17L7 17L7 16ZM8 18L8 19L6 19L6 20L7 20L7 21L6 21L6 22L7 22L7 23L8 23L8 25L9 25L9 24L11 24L11 22L10 22L10 21L14 21L14 20L13 20L13 19L11 19L11 20L10 20L10 21L9 21L9 18ZM3 19L3 21L4 21L4 19ZM8 21L8 23L9 23L9 21ZM12 22L12 25L13 25L13 26L15 26L15 25L14 25L14 23L15 23L15 22L14 22L14 23L13 23L13 22ZM30 24L30 25L29 25L29 26L30 26L30 25L31 25L31 24ZM25 25L25 28L28 28L28 25ZM26 26L26 27L27 27L27 26ZM13 27L13 28L12 28L12 29L11 29L11 30L12 30L12 29L13 29L13 30L14 30L14 29L13 29L13 28L15 28L15 29L16 29L16 27ZM30 28L30 29L28 29L28 30L27 30L27 29L23 29L23 30L26 30L26 31L23 31L23 32L28 32L28 30L29 30L29 31L30 31L30 29L31 29L31 28ZM0 0L0 7L7 7L7 0ZM1 1L1 6L6 6L6 1ZM2 2L2 5L5 5L5 2ZM26 0L26 7L33 7L33 0ZM27 1L27 6L32 6L32 1ZM28 2L28 5L31 5L31 2ZM0 26L0 33L7 33L7 26ZM1 27L1 32L6 32L6 27ZM2 28L2 31L5 31L5 28Z" fill="#000000"/></g></g></svg>
