<?xml version="1.0" encoding="UTF-8"?>
<svg xmlns="http://www.w3.org/2000/svg" version="1.1" width="120" height="120" viewBox="0 0 120 120"><rect x="0" y="0" width="120" height="120" fill="#ffffff"/><g transform="scale(3.636)"><g transform="translate(0,0)"><path fill-rule="evenodd" d="M8 0L8 1L9 1L9 2L10 2L10 3L11 3L11 1L15 1L15 0L11 0L11 1L9 1L9 0ZM18 0L18 2L20 2L20 3L17 3L17 1L16 1L16 2L15 2L15 4L14 4L14 2L12 2L12 4L11 4L11 5L10 5L10 4L9 4L9 5L10 5L10 8L9 8L9 6L8 6L8 8L9 8L9 9L8 9L8 11L7 11L7 10L6 10L6 9L7 9L7 8L6 8L6 9L5 9L5 8L3 8L3 10L2 10L2 8L0 8L0 9L1 9L1 12L0 12L0 17L1 17L1 15L2 15L2 14L3 14L3 15L5 15L5 16L2 16L2 17L3 17L3 18L1 18L1 20L0 20L0 25L7 25L7 24L8 24L8 22L6 22L6 21L8 21L8 19L7 19L7 18L5 18L5 16L6 16L6 17L8 17L8 16L9 16L9 18L10 18L10 19L9 19L9 20L10 20L10 21L9 21L9 22L10 22L10 24L9 24L9 25L8 25L8 26L9 26L9 28L8 28L8 30L9 30L9 31L8 31L8 33L10 33L10 32L11 32L11 31L13 31L13 32L14 32L14 31L22 31L22 32L23 32L23 33L30 33L30 32L33 32L33 30L32 30L32 31L31 31L31 29L33 29L33 28L32 28L32 27L30 27L30 26L32 26L32 24L31 24L31 23L33 23L33 22L32 22L32 21L31 21L31 23L30 23L30 24L29 24L29 23L28 23L28 22L30 22L30 21L28 21L28 20L29 20L29 17L30 17L30 16L31 16L31 18L32 18L32 19L30 19L30 20L33 20L33 15L32 15L32 16L31 16L31 15L30 15L30 16L29 16L29 15L28 15L28 12L27 12L27 10L29 10L29 9L27 9L27 8L26 8L26 9L27 9L27 10L26 10L26 11L25 11L25 10L24 10L24 9L25 9L25 6L24 6L24 5L25 5L25 3L24 3L24 2L25 2L25 1L24 1L24 2L23 2L23 4L24 4L24 5L23 5L23 6L22 6L22 5L21 5L21 6L20 6L20 7L19 7L19 6L18 6L18 5L17 5L17 4L19 4L19 5L20 5L20 4L22 4L22 1L23 1L23 0L21 0L21 1L19 1L19 0ZM12 4L12 5L11 5L11 7L12 7L12 9L10 9L10 10L9 10L9 11L10 11L10 10L12 10L12 11L13 11L13 13L11 13L11 12L10 12L10 14L13 14L13 13L15 13L15 12L14 12L14 11L13 11L13 10L14 10L14 8L16 8L16 11L17 11L17 10L19 10L19 11L21 11L21 12L19 12L19 13L18 13L18 12L16 12L16 13L17 13L17 14L16 14L16 15L15 15L15 14L14 14L14 15L12 15L12 16L11 16L11 17L12 17L12 16L14 16L14 17L13 17L13 18L14 18L14 19L15 19L15 16L16 16L16 20L18 20L18 19L17 19L17 18L19 18L19 17L21 17L21 18L20 18L20 19L21 19L21 20L20 20L20 22L19 22L19 21L18 21L18 22L19 22L19 23L18 23L18 24L17 24L17 21L16 21L16 24L17 24L17 25L16 25L16 27L13 27L13 28L12 28L12 29L11 29L11 27L12 27L12 26L11 26L11 24L12 24L12 25L13 25L13 26L15 26L15 25L14 25L14 23L15 23L15 22L14 22L14 23L13 23L13 22L12 22L12 23L11 23L11 24L10 24L10 25L9 25L9 26L11 26L11 27L10 27L10 28L9 28L9 29L11 29L11 30L10 30L10 31L11 31L11 30L12 30L12 29L13 29L13 30L14 30L14 29L13 29L13 28L16 28L16 27L17 27L17 30L19 30L19 29L18 29L18 28L20 28L20 27L17 27L17 26L21 26L21 29L22 29L22 25L23 25L23 26L24 26L24 24L23 24L23 23L21 23L21 22L22 22L22 21L24 21L24 23L25 23L25 22L26 22L26 23L27 23L27 20L28 20L28 18L27 18L27 20L25 20L25 21L24 21L24 20L23 20L23 18L24 18L24 19L26 19L26 17L22 17L22 16L23 16L23 15L24 15L24 14L25 14L25 13L26 13L26 15L27 15L27 13L26 13L26 12L25 12L25 11L24 11L24 12L23 12L23 11L21 11L21 9L24 9L24 6L23 6L23 8L22 8L22 6L21 6L21 7L20 7L20 10L19 10L19 9L17 9L17 8L19 8L19 7L18 7L18 6L17 6L17 8L16 8L16 4L15 4L15 5L13 5L13 4ZM12 5L12 7L13 7L13 8L14 8L14 7L15 7L15 6L14 6L14 7L13 7L13 5ZM32 8L32 9L30 9L30 10L31 10L31 11L29 11L29 12L31 12L31 13L33 13L33 12L31 12L31 11L33 11L33 10L32 10L32 9L33 9L33 8ZM4 9L4 10L5 10L5 9ZM12 9L12 10L13 10L13 9ZM2 11L2 12L1 12L1 14L2 14L2 12L4 12L4 13L3 13L3 14L5 14L5 13L6 13L6 14L8 14L8 15L9 15L9 16L10 16L10 15L9 15L9 12L7 12L7 11L5 11L5 12L4 12L4 11ZM6 12L6 13L7 13L7 12ZM22 12L22 13L20 13L20 14L17 14L17 15L19 15L19 16L18 16L18 17L19 17L19 16L21 16L21 15L20 15L20 14L22 14L22 13L23 13L23 14L24 14L24 13L25 13L25 12L24 12L24 13L23 13L23 12ZM6 15L6 16L7 16L7 15ZM4 18L4 20L3 20L3 19L2 19L2 21L1 21L1 24L3 24L3 23L6 23L6 24L7 24L7 23L6 23L6 22L5 22L5 18ZM6 19L6 20L7 20L7 19ZM10 19L10 20L11 20L11 21L10 21L10 22L11 22L11 21L14 21L14 20L12 20L12 19ZM2 21L2 23L3 23L3 21ZM19 23L19 24L18 24L18 25L21 25L21 24L20 24L20 23ZM30 24L30 25L29 25L29 26L30 26L30 25L31 25L31 24ZM25 25L25 28L28 28L28 25ZM26 26L26 27L27 27L27 26ZM30 28L30 29L28 29L28 30L27 30L27 29L23 29L23 30L26 30L26 31L23 31L23 32L28 32L28 30L29 30L29 31L30 31L30 29L31 29L31 28ZM15 32L15 33L16 33L16 32ZM17 32L17 33L20 33L20 32ZM0 0L0 7L7 7L7 0ZM1 1L1 6L6 6L6 1ZM2 2L2 5L5 5L5 2ZM26 0L26 7L33 7L33 0ZM27 1L27 6L32 6L32 1ZM28 2L28 5L31 5L31 2ZM0 26L0 33L7 33L7 26ZM1 27L1 32L6 32L6 27ZM2 28L2 31L5 31L5 28Z" fill="#000000"/></g></g></svg>
