<?xml version="1.0" encoding="UTF-8"?>
<svg xmlns="http://www.w3.org/2000/svg" version="1.1" width="120" height="120" viewBox="0 0 120 120"><rect x="0" y="0" width="120" height="120" fill="#ffffff"/><g transform="scale(3.636)"><g transform="translate(0,0)"><path fill-rule="evenodd" d="M9 0L9 1L8 1L8 2L9 2L9 3L8 3L8 4L10 4L10 7L11 7L11 4L12 4L12 5L13 5L13 6L12 6L12 9L15 9L15 8L16 8L16 7L17 7L17 5L18 5L18 4L19 4L19 5L21 5L21 4L20 4L20 3L22 3L22 4L23 4L23 5L22 5L22 7L21 7L21 6L20 6L20 8L22 8L22 9L23 9L23 10L21 10L21 9L19 9L19 8L17 8L17 9L16 9L16 10L15 10L15 11L14 11L14 12L13 12L13 13L12 13L12 11L13 11L13 10L11 10L11 11L10 11L10 9L11 9L11 8L6 8L6 9L8 9L8 11L9 11L9 13L7 13L7 12L6 12L6 11L7 11L7 10L3 10L3 9L5 9L5 8L0 8L0 9L2 9L2 12L1 12L1 13L2 13L2 14L3 14L3 15L0 15L0 19L1 19L1 18L2 18L2 16L3 16L3 15L5 15L5 17L7 17L7 16L9 16L9 15L11 15L11 13L12 13L12 14L13 14L13 13L16 13L16 14L14 14L14 15L16 15L16 14L17 14L17 15L18 15L18 14L17 14L17 13L19 13L19 14L20 14L20 13L21 13L21 12L23 12L23 14L22 14L22 15L21 15L21 16L20 16L20 15L19 15L19 16L13 16L13 15L12 15L12 17L13 17L13 18L11 18L11 16L10 16L10 18L8 18L8 19L7 19L7 18L4 18L4 19L2 19L2 23L3 23L3 24L4 24L4 22L5 22L5 23L8 23L8 24L9 24L9 25L8 25L8 27L9 27L9 28L8 28L8 33L9 33L9 32L13 32L13 33L14 33L14 32L13 32L13 29L14 29L14 31L15 31L15 33L19 33L19 32L22 32L22 33L25 33L25 32L26 32L26 33L28 33L28 32L29 32L29 33L30 33L30 32L31 32L31 33L32 33L32 32L31 32L31 31L32 31L32 30L31 30L31 29L32 29L32 28L33 28L33 27L32 27L32 26L33 26L33 24L32 24L32 26L31 26L31 25L30 25L30 26L29 26L29 24L31 24L31 23L32 23L32 22L33 22L33 21L32 21L32 20L31 20L31 19L32 19L32 18L33 18L33 17L32 17L32 16L31 16L31 15L32 15L32 14L33 14L33 13L31 13L31 15L30 15L30 16L31 16L31 19L30 19L30 17L29 17L29 16L27 16L27 17L26 17L26 15L25 15L25 14L24 14L24 13L26 13L26 14L27 14L27 15L29 15L29 14L27 14L27 13L30 13L30 12L31 12L31 11L32 11L32 10L33 10L33 9L32 9L32 8L31 8L31 9L30 9L30 8L29 8L29 9L30 9L30 10L29 10L29 11L25 11L25 10L24 10L24 9L26 9L26 10L27 10L27 9L28 9L28 8L27 8L27 9L26 9L26 8L25 8L25 6L24 6L24 9L23 9L23 5L25 5L25 3L24 3L24 2L25 2L25 1L24 1L24 0L23 0L23 1L24 1L24 2L19 2L19 1L22 1L22 0L16 0L16 1L15 1L15 2L14 2L14 3L13 3L13 4L12 4L12 2L13 2L13 1L14 1L14 0L13 0L13 1L11 1L11 2L10 2L10 0ZM16 1L16 2L15 2L15 3L16 3L16 4L13 4L13 5L14 5L14 6L13 6L13 8L14 8L14 6L15 6L15 7L16 7L16 6L15 6L15 5L16 5L16 4L17 4L17 3L19 3L19 2L18 2L18 1ZM16 2L16 3L17 3L17 2ZM10 3L10 4L11 4L11 3ZM8 5L8 7L9 7L9 5ZM18 6L18 7L19 7L19 6ZM17 9L17 10L16 10L16 11L17 11L17 12L18 12L18 11L17 11L17 10L19 10L19 11L20 11L20 10L19 10L19 9ZM23 10L23 12L25 12L25 11L24 11L24 10ZM30 10L30 11L29 11L29 12L30 12L30 11L31 11L31 10ZM3 11L3 14L7 14L7 13L4 13L4 12L5 12L5 11ZM10 12L10 13L9 13L9 14L10 14L10 13L11 13L11 12ZM26 12L26 13L27 13L27 12ZM23 14L23 15L24 15L24 14ZM6 15L6 16L7 16L7 15ZM19 16L19 17L18 17L18 18L17 18L17 20L16 20L16 21L15 21L15 20L14 20L14 19L12 19L12 20L14 20L14 21L15 21L15 22L16 22L16 21L17 21L17 20L18 20L18 18L19 18L19 21L18 21L18 22L17 22L17 23L15 23L15 24L14 24L14 22L13 22L13 24L12 24L12 21L11 21L11 20L10 20L10 19L11 19L11 18L10 18L10 19L9 19L9 21L8 21L8 20L7 20L7 19L6 19L6 20L7 20L7 21L6 21L6 22L7 22L7 21L8 21L8 22L11 22L11 23L10 23L10 25L13 25L13 27L12 27L12 26L10 26L10 28L11 28L11 29L13 29L13 28L14 28L14 29L15 29L15 30L17 30L17 31L16 31L16 32L19 32L19 31L21 31L21 30L22 30L22 31L23 31L23 32L25 32L25 31L26 31L26 30L27 30L27 31L29 31L29 30L28 30L28 29L24 29L24 28L23 28L23 26L24 26L24 25L23 25L23 26L21 26L21 27L20 27L20 26L19 26L19 25L22 25L22 24L21 24L21 23L20 23L20 22L19 22L19 21L22 21L22 22L23 22L23 24L24 24L24 23L25 23L25 22L26 22L26 21L27 21L27 22L28 22L28 23L27 23L27 24L29 24L29 21L30 21L30 23L31 23L31 20L30 20L30 19L29 19L29 17L27 17L27 18L26 18L26 17L24 17L24 16L23 16L23 17L24 17L24 18L23 18L23 19L22 19L22 18L21 18L21 19L20 19L20 18L19 18L19 17L20 17L20 16ZM21 16L21 17L22 17L22 16ZM14 17L14 18L16 18L16 17ZM25 18L25 19L23 19L23 20L22 20L22 19L21 19L21 20L22 20L22 21L23 21L23 22L24 22L24 21L26 21L26 20L25 20L25 19L26 19L26 18ZM4 19L4 20L5 20L5 19ZM27 19L27 21L29 21L29 19ZM23 20L23 21L24 21L24 20ZM0 21L0 25L1 25L1 21ZM18 22L18 23L19 23L19 24L17 24L17 25L16 25L16 24L15 24L15 25L14 25L14 24L13 24L13 25L14 25L14 26L15 26L15 27L14 27L14 28L15 28L15 29L16 29L16 28L17 28L17 29L19 29L19 30L18 30L18 31L19 31L19 30L21 30L21 29L20 29L20 28L19 28L19 27L18 27L18 26L17 26L17 25L19 25L19 24L20 24L20 23L19 23L19 22ZM5 24L5 25L7 25L7 24ZM15 25L15 26L16 26L16 27L15 27L15 28L16 28L16 27L17 27L17 28L18 28L18 27L17 27L17 26L16 26L16 25ZM25 25L25 28L28 28L28 25ZM26 26L26 27L27 27L27 26ZM30 26L30 27L31 27L31 28L29 28L29 29L31 29L31 28L32 28L32 27L31 27L31 26ZM11 27L11 28L12 28L12 27ZM21 27L21 28L22 28L22 29L23 29L23 30L24 30L24 31L25 31L25 30L24 30L24 29L23 29L23 28L22 28L22 27ZM10 30L10 31L12 31L12 30ZM0 0L0 7L7 7L7 0ZM1 1L1 6L6 6L6 1ZM2 2L2 5L5 5L5 2ZM26 0L26 7L33 7L33 0ZM27 1L27 6L32 6L32 1ZM28 2L28 5L31 5L31 2ZM0 26L0 33L7 33L7 26ZM1 27L1 32L6 32L6 27ZM2 28L2 31L5 31L5 28Z" fill="#000000"/></g></g></svg>
