<?xml version="1.0" encoding="UTF-8"?>
<svg xmlns="http://www.w3.org/2000/svg" version="1.1" width="120" height="120" viewBox="0 0 120 120"><rect x="0" y="0" width="120" height="120" fill="#ffffff"/><g transform="scale(3.636)"><g transform="translate(0,0)"><path fill-rule="evenodd" d="M9 0L9 1L11 1L11 2L9 2L9 3L8 3L8 5L9 5L9 6L8 6L8 7L9 7L9 9L10 9L10 10L9 10L9 11L8 11L8 8L5 8L5 9L7 9L7 10L2 10L2 8L0 8L0 10L1 10L1 11L0 11L0 14L1 14L1 11L2 11L2 12L5 12L5 13L7 13L7 14L6 14L6 15L7 15L7 14L9 14L9 16L6 16L6 17L9 17L9 16L10 16L10 19L9 19L9 20L10 20L10 19L11 19L11 21L10 21L10 22L9 22L9 21L7 21L7 20L6 20L6 19L7 19L7 18L6 18L6 19L3 19L3 18L5 18L5 17L4 17L4 16L5 16L5 15L4 15L4 13L2 13L2 14L3 14L3 15L2 15L2 16L1 16L1 15L0 15L0 16L1 16L1 17L2 17L2 21L1 21L1 19L0 19L0 25L2 25L2 24L3 24L3 25L8 25L8 28L9 28L9 31L8 31L8 33L9 33L9 31L10 31L10 32L13 32L13 33L14 33L14 32L13 32L13 31L14 31L14 30L15 30L15 33L19 33L19 32L21 32L21 31L22 31L22 33L25 33L25 32L26 32L26 33L28 33L28 32L29 32L29 33L30 33L30 32L31 32L31 33L32 33L32 32L31 32L31 29L32 29L32 28L31 28L31 27L32 27L32 26L33 26L33 25L32 25L32 24L31 24L31 23L32 23L32 20L31 20L31 19L30 19L30 20L31 20L31 23L30 23L30 21L29 21L29 18L30 18L30 17L29 17L29 14L28 14L28 12L29 12L29 11L30 11L30 12L31 12L31 15L30 15L30 16L31 16L31 18L32 18L32 19L33 19L33 17L32 17L32 16L33 16L33 15L32 15L32 14L33 14L33 12L31 12L31 11L32 11L32 9L30 9L30 8L28 8L28 9L27 9L27 10L29 10L29 11L28 11L28 12L27 12L27 11L25 11L25 10L24 10L24 9L25 9L25 6L24 6L24 9L23 9L23 5L25 5L25 3L24 3L24 2L25 2L25 1L24 1L24 2L22 2L22 1L23 1L23 0L21 0L21 2L19 2L19 0L18 0L18 2L19 2L19 3L17 3L17 2L16 2L16 7L17 7L17 5L18 5L18 4L19 4L19 5L21 5L21 6L20 6L20 8L21 8L21 6L22 6L22 9L21 9L21 10L20 10L20 9L19 9L19 8L17 8L17 9L19 9L19 10L20 10L20 11L18 11L18 10L17 10L17 11L16 11L16 9L15 9L15 6L14 6L14 5L13 5L13 4L14 4L14 3L15 3L15 2L14 2L14 3L13 3L13 4L12 4L12 2L13 2L13 1L12 1L12 0ZM14 0L14 1L15 1L15 0ZM9 3L9 5L10 5L10 3ZM22 3L22 4L21 4L21 5L23 5L23 3ZM11 4L11 7L10 7L10 6L9 6L9 7L10 7L10 8L11 8L11 10L10 10L10 11L9 11L9 12L10 12L10 11L11 11L11 10L13 10L13 11L12 11L12 12L11 12L11 19L12 19L12 20L14 20L14 22L12 22L12 21L11 21L11 23L10 23L10 24L9 24L9 23L8 23L8 22L7 22L7 21L5 21L5 20L4 20L4 21L5 21L5 22L1 22L1 24L2 24L2 23L4 23L4 24L7 24L7 23L8 23L8 25L10 25L10 26L11 26L11 27L9 27L9 28L10 28L10 29L13 29L13 30L14 30L14 29L15 29L15 26L14 26L14 22L15 22L15 20L16 20L16 22L19 22L19 23L16 23L16 24L17 24L17 26L16 26L16 31L17 31L17 32L19 32L19 31L17 31L17 30L19 30L19 29L17 29L17 28L20 28L20 29L22 29L22 30L23 30L23 29L24 29L24 30L26 30L26 31L27 31L27 32L28 32L28 30L27 30L27 29L24 29L24 28L23 28L23 29L22 29L22 27L23 27L23 26L24 26L24 23L25 23L25 22L27 22L27 20L28 20L28 18L29 18L29 17L28 17L28 18L27 18L27 19L26 19L26 17L27 17L27 16L26 16L26 17L24 17L24 16L23 16L23 15L24 15L24 14L25 14L25 15L27 15L27 14L26 14L26 12L25 12L25 11L24 11L24 10L23 10L23 13L22 13L22 11L21 11L21 12L19 12L19 13L18 13L18 11L17 11L17 12L16 12L16 11L15 11L15 10L14 10L14 9L12 9L12 6L13 6L13 8L14 8L14 6L13 6L13 5L12 5L12 4ZM18 6L18 7L19 7L19 6ZM29 9L29 10L30 10L30 11L31 11L31 10L30 10L30 9ZM5 11L5 12L7 12L7 13L8 13L8 12L7 12L7 11ZM14 11L14 12L15 12L15 14L14 14L14 16L13 16L13 15L12 15L12 17L13 17L13 18L12 18L12 19L13 19L13 18L14 18L14 17L15 17L15 19L14 19L14 20L15 20L15 19L16 19L16 20L17 20L17 21L19 21L19 22L20 22L20 23L19 23L19 24L18 24L18 25L19 25L19 26L17 26L17 27L19 27L19 26L20 26L20 28L21 28L21 24L20 24L20 23L22 23L22 24L23 24L23 22L24 22L24 21L26 21L26 20L25 20L25 19L24 19L24 17L23 17L23 16L22 16L22 18L23 18L23 20L22 20L22 22L20 22L20 21L19 21L19 20L17 20L17 19L18 19L18 18L17 18L17 17L19 17L19 19L20 19L20 18L21 18L21 15L19 15L19 14L20 14L20 13L19 13L19 14L17 14L17 13L16 13L16 12L15 12L15 11ZM24 12L24 13L23 13L23 14L22 14L22 13L21 13L21 14L22 14L22 15L23 15L23 14L24 14L24 13L25 13L25 12ZM9 13L9 14L10 14L10 13ZM12 13L12 14L13 14L13 13ZM16 14L16 15L17 15L17 16L19 16L19 17L20 17L20 16L19 16L19 15L17 15L17 14ZM31 15L31 16L32 16L32 15ZM16 18L16 19L17 19L17 18ZM23 20L23 21L24 21L24 20ZM6 22L6 23L7 23L7 22ZM28 22L28 24L29 24L29 22ZM12 23L12 24L13 24L13 23ZM10 24L10 25L11 25L11 26L13 26L13 25L11 25L11 24ZM30 24L30 25L29 25L29 26L30 26L30 27L31 27L31 26L32 26L32 25L31 25L31 24ZM22 25L22 26L23 26L23 25ZM25 25L25 28L28 28L28 25ZM30 25L30 26L31 26L31 25ZM26 26L26 27L27 27L27 26ZM13 28L13 29L14 29L14 28ZM29 28L29 29L31 29L31 28ZM10 30L10 31L11 31L11 30ZM29 30L29 31L30 31L30 30ZM32 30L32 31L33 31L33 30ZM23 31L23 32L25 32L25 31ZM0 0L0 7L7 7L7 0ZM1 1L1 6L6 6L6 1ZM2 2L2 5L5 5L5 2ZM26 0L26 7L33 7L33 0ZM27 1L27 6L32 6L32 1ZM28 2L28 5L31 5L31 2ZM0 26L0 33L7 33L7 26ZM1 27L1 32L6 32L6 27ZM2 28L2 31L5 31L5 28Z" fill="#000000"/></g></g></svg>
