<?xml version="1.0" encoding="UTF-8"?>
<svg xmlns="http://www.w3.org/2000/svg" version="1.1" width="120" height="120" viewBox="0 0 120 120"><rect x="0" y="0" width="120" height="120" fill="#ffffff"/><g transform="scale(3.636)"><g transform="translate(0,0)"><path fill-rule="evenodd" d="M8 0L8 1L9 1L9 2L8 2L8 5L9 5L9 4L11 4L11 5L10 5L10 10L9 10L9 8L8 8L8 9L7 9L7 8L6 8L6 9L4 9L4 8L0 8L0 9L1 9L1 10L0 10L0 11L1 11L1 13L0 13L0 14L1 14L1 15L0 15L0 17L1 17L1 18L2 18L2 19L0 19L0 22L2 22L2 21L3 21L3 22L4 22L4 21L5 21L5 22L6 22L6 23L7 23L7 24L5 24L5 23L1 23L1 24L0 24L0 25L1 25L1 24L2 24L2 25L3 25L3 24L5 24L5 25L7 25L7 24L8 24L8 26L9 26L9 27L10 27L10 28L9 28L9 29L8 29L8 33L11 33L11 32L12 32L12 33L13 33L13 30L15 30L15 31L17 31L17 33L18 33L18 32L19 32L19 33L20 33L20 31L17 31L17 27L16 27L16 29L15 29L15 26L16 26L16 23L14 23L14 21L15 21L15 20L16 20L16 22L17 22L17 23L18 23L18 22L17 22L17 21L18 21L18 20L19 20L19 22L22 22L22 23L26 23L26 24L22 24L22 26L20 26L20 25L19 25L19 24L17 24L17 25L18 25L18 26L19 26L19 27L18 27L18 28L19 28L19 29L18 29L18 30L19 30L19 29L20 29L20 30L21 30L21 31L22 31L22 32L21 32L21 33L22 33L22 32L23 32L23 33L24 33L24 32L25 32L25 33L27 33L27 32L26 32L26 31L27 31L27 30L28 30L28 29L29 29L29 31L28 31L28 33L31 33L31 32L29 32L29 31L32 31L32 32L33 32L33 31L32 31L32 29L33 29L33 27L31 27L31 26L30 26L30 25L29 25L29 24L30 24L30 23L31 23L31 24L32 24L32 25L33 25L33 24L32 24L32 23L33 23L33 21L31 21L31 20L30 20L30 18L31 18L31 19L32 19L32 20L33 20L33 19L32 19L32 18L33 18L33 16L31 16L31 14L32 14L32 13L30 13L30 12L27 12L27 11L28 11L28 10L27 10L27 9L26 9L26 8L25 8L25 9L26 9L26 12L25 12L25 11L24 11L24 9L23 9L23 10L22 10L22 11L24 11L24 12L23 12L23 13L24 13L24 14L25 14L25 15L22 15L22 13L21 13L21 11L20 11L20 12L17 12L17 11L19 11L19 10L21 10L21 9L22 9L22 8L24 8L24 7L25 7L25 5L24 5L24 7L23 7L23 6L22 6L22 4L25 4L25 2L24 2L24 0L23 0L23 3L22 3L22 4L21 4L21 6L20 6L20 3L21 3L21 2L22 2L22 0L16 0L16 3L17 3L17 4L15 4L15 3L14 3L14 1L13 1L13 0L12 0L12 1L11 1L11 0L10 0L10 1L9 1L9 0ZM18 1L18 2L17 2L17 3L18 3L18 2L19 2L19 3L20 3L20 1ZM11 2L11 4L12 4L12 3L13 3L13 2ZM17 4L17 7L18 7L18 4ZM12 5L12 6L11 6L11 8L12 8L12 6L13 6L13 10L15 10L15 11L17 11L17 10L19 10L19 8L20 8L20 9L21 9L21 8L22 8L22 6L21 6L21 7L20 7L20 6L19 6L19 8L18 8L18 9L17 9L17 8L16 8L16 5L14 5L14 6L13 6L13 5ZM8 6L8 7L9 7L9 6ZM14 6L14 7L15 7L15 6ZM14 8L14 9L15 9L15 8ZM28 8L28 9L30 9L30 11L31 11L31 12L32 12L32 11L33 11L33 8L32 8L32 9L31 9L31 8ZM2 9L2 10L1 10L1 11L2 11L2 12L3 12L3 13L2 13L2 14L3 14L3 15L5 15L5 14L4 14L4 11L6 11L6 12L8 12L8 13L6 13L6 14L8 14L8 15L6 15L6 16L5 16L5 17L3 17L3 16L2 16L2 15L1 15L1 17L3 17L3 18L4 18L4 20L7 20L7 19L5 19L5 17L6 17L6 18L8 18L8 19L9 19L9 20L8 20L8 21L6 21L6 22L7 22L7 23L8 23L8 22L9 22L9 20L10 20L10 19L12 19L12 20L13 20L13 21L14 21L14 18L15 18L15 17L16 17L16 18L17 18L17 19L16 19L16 20L17 20L17 19L18 19L18 17L19 17L19 20L20 20L20 21L21 21L21 20L22 20L22 22L23 22L23 21L24 21L24 22L26 22L26 23L30 23L30 22L31 22L31 21L30 21L30 20L28 20L28 19L29 19L29 18L26 18L26 19L25 19L25 18L23 18L23 17L21 17L21 14L20 14L20 16L19 16L19 14L18 14L18 15L17 15L17 14L14 14L14 13L13 13L13 14L12 14L12 16L11 16L11 15L10 15L10 14L11 14L11 13L12 13L12 12L13 12L13 11L11 11L11 13L10 13L10 14L8 14L8 13L9 13L9 12L8 12L8 11L6 11L6 10L7 10L7 9L6 9L6 10L4 10L4 9ZM11 9L11 10L12 10L12 9ZM16 9L16 10L17 10L17 9ZM2 10L2 11L3 11L3 10ZM26 12L26 13L25 13L25 14L26 14L26 16L27 16L27 17L28 17L28 16L30 16L30 14L29 14L29 13L28 13L28 14L27 14L27 12ZM13 14L13 15L14 15L14 16L13 16L13 18L14 18L14 16L17 16L17 15L14 15L14 14ZM9 15L9 16L6 16L6 17L8 17L8 18L9 18L9 16L10 16L10 15ZM24 16L24 17L25 17L25 16ZM10 17L10 18L11 18L11 17ZM20 17L20 20L21 20L21 17ZM31 17L31 18L32 18L32 17ZM22 18L22 19L23 19L23 18ZM26 19L26 20L27 20L27 19ZM1 20L1 21L2 21L2 20ZM26 21L26 22L27 22L27 21ZM29 21L29 22L30 22L30 21ZM10 22L10 24L9 24L9 25L10 25L10 26L11 26L11 28L10 28L10 30L9 30L9 31L12 31L12 30L13 30L13 29L12 29L12 30L11 30L11 28L14 28L14 27L13 27L13 23L11 23L11 22ZM11 24L11 25L12 25L12 24ZM14 24L14 26L15 26L15 24ZM25 25L25 28L28 28L28 25ZM26 26L26 27L27 27L27 26ZM19 27L19 28L21 28L21 27ZM22 27L22 28L23 28L23 27ZM26 29L26 30L25 30L25 31L26 31L26 30L27 30L27 29ZM30 29L30 30L31 30L31 29ZM22 30L22 31L24 31L24 30ZM15 32L15 33L16 33L16 32ZM0 0L0 7L7 7L7 0ZM1 1L1 6L6 6L6 1ZM2 2L2 5L5 5L5 2ZM26 0L26 7L33 7L33 0ZM27 1L27 6L32 6L32 1ZM28 2L28 5L31 5L31 2ZM0 26L0 33L7 33L7 26ZM1 27L1 32L6 32L6 27ZM2 28L2 31L5 31L5 28Z" fill="#000000"/></g></g></svg>
