<?xml version="1.0" encoding="UTF-8"?>
<svg xmlns="http://www.w3.org/2000/svg" version="1.1" width="120" height="120" viewBox="0 0 120 120"><rect x="0" y="0" width="120" height="120" fill="#ffffff"/><g transform="scale(3.636)"><g transform="translate(0,0)"><path fill-rule="evenodd" d="M11 0L11 1L9 1L9 2L11 2L11 1L13 1L13 2L12 2L12 4L13 4L13 5L11 5L11 6L10 6L10 8L9 8L9 10L8 10L8 13L7 13L7 12L5 12L5 11L4 11L4 10L5 10L5 9L8 9L8 8L5 8L5 9L4 9L4 10L3 10L3 9L2 9L2 8L0 8L0 12L1 12L1 13L0 13L0 14L2 14L2 15L3 15L3 16L0 16L0 20L1 20L1 18L2 18L2 19L3 19L3 18L4 18L4 17L3 17L3 16L4 16L4 15L5 15L5 17L8 17L8 18L5 18L5 19L4 19L4 20L5 20L5 21L8 21L8 22L9 22L9 23L8 23L8 24L9 24L9 25L8 25L8 28L9 28L9 25L10 25L10 24L11 24L11 26L10 26L10 28L11 28L11 26L14 26L14 27L16 27L16 28L15 28L15 29L14 29L14 28L13 28L13 29L9 29L9 31L8 31L8 33L9 33L9 31L14 31L14 32L13 32L13 33L14 33L14 32L15 32L15 33L19 33L19 32L21 32L21 31L22 31L22 33L25 33L25 32L26 32L26 33L28 33L28 32L29 32L29 33L30 33L30 32L31 32L31 33L32 33L32 32L31 32L31 29L32 29L32 26L33 26L33 25L32 25L32 24L31 24L31 23L32 23L32 20L31 20L31 19L30 19L30 20L31 20L31 23L30 23L30 21L29 21L29 18L30 18L30 17L29 17L29 14L28 14L28 12L29 12L29 11L30 11L30 12L31 12L31 15L30 15L30 16L31 16L31 18L32 18L32 19L33 19L33 17L32 17L32 16L33 16L33 15L32 15L32 14L33 14L33 12L31 12L31 11L32 11L32 9L30 9L30 8L28 8L28 9L27 9L27 10L29 10L29 11L28 11L28 12L27 12L27 11L25 11L25 10L24 10L24 9L25 9L25 6L24 6L24 9L23 9L23 5L25 5L25 3L24 3L24 2L25 2L25 1L24 1L24 2L22 2L22 1L23 1L23 0L21 0L21 2L19 2L19 0L18 0L18 2L19 2L19 3L16 3L16 2L17 2L17 1L16 1L16 2L15 2L15 0ZM13 2L13 3L14 3L14 5L13 5L13 7L12 7L12 6L11 6L11 7L12 7L12 9L11 9L11 8L10 8L10 10L9 10L9 11L10 11L10 13L8 13L8 15L6 15L6 16L9 16L9 17L10 17L10 18L9 18L9 19L10 19L10 18L12 18L12 17L11 17L11 15L10 15L10 14L13 14L13 15L12 15L12 16L16 16L16 17L17 17L17 18L16 18L16 23L17 23L17 25L16 25L16 26L17 26L17 28L20 28L20 29L22 29L22 30L23 30L23 29L24 29L24 30L26 30L26 31L27 31L27 32L28 32L28 30L27 30L27 29L24 29L24 28L23 28L23 29L22 29L22 27L23 27L23 26L24 26L24 23L25 23L25 22L27 22L27 20L28 20L28 18L29 18L29 17L28 17L28 18L27 18L27 19L26 19L26 17L27 17L27 16L26 16L26 17L24 17L24 16L23 16L23 15L24 15L24 14L25 14L25 15L27 15L27 14L26 14L26 12L25 12L25 11L24 11L24 10L23 10L23 13L22 13L22 11L21 11L21 12L19 12L19 13L18 13L18 11L20 11L20 10L21 10L21 9L22 9L22 6L21 6L21 5L23 5L23 3L22 3L22 4L21 4L21 5L19 5L19 4L18 4L18 5L16 5L16 4L15 4L15 2ZM8 3L8 5L10 5L10 4L9 4L9 3ZM8 6L8 7L9 7L9 6ZM14 6L14 8L13 8L13 9L12 9L12 10L13 10L13 11L12 11L12 12L11 12L11 13L13 13L13 11L14 11L14 12L15 12L15 15L17 15L17 13L16 13L16 9L19 9L19 10L20 10L20 9L19 9L19 8L17 8L17 6L16 6L16 8L15 8L15 6ZM18 6L18 7L19 7L19 6ZM20 6L20 8L21 8L21 6ZM1 9L1 10L2 10L2 9ZM13 9L13 10L14 10L14 11L15 11L15 10L14 10L14 9ZM29 9L29 10L30 10L30 11L31 11L31 10L30 10L30 9ZM6 10L6 11L7 11L7 10ZM10 10L10 11L11 11L11 10ZM2 11L2 14L3 14L3 15L4 15L4 14L3 14L3 11ZM24 12L24 13L23 13L23 14L22 14L22 13L21 13L21 14L22 14L22 15L23 15L23 14L24 14L24 13L25 13L25 12ZM5 13L5 14L7 14L7 13ZM19 13L19 14L20 14L20 13ZM19 15L19 16L17 16L17 17L19 17L19 18L17 18L17 19L20 19L20 18L21 18L21 15ZM31 15L31 16L32 16L32 15ZM19 16L19 17L20 17L20 16ZM22 16L22 18L23 18L23 20L22 20L22 22L20 22L20 21L19 21L19 20L17 20L17 21L19 21L19 22L20 22L20 23L18 23L18 25L19 25L19 26L18 26L18 27L19 27L19 26L20 26L20 28L21 28L21 24L20 24L20 23L22 23L22 24L23 24L23 22L24 22L24 21L26 21L26 20L25 20L25 19L24 19L24 17L23 17L23 16ZM2 17L2 18L3 18L3 17ZM13 17L13 18L14 18L14 19L13 19L13 20L12 20L12 19L11 19L11 20L8 20L8 19L6 19L6 20L8 20L8 21L10 21L10 23L11 23L11 24L12 24L12 25L14 25L14 23L13 23L13 22L11 22L11 21L13 21L13 20L15 20L15 17ZM2 20L2 24L1 24L1 21L0 21L0 25L2 25L2 24L4 24L4 25L7 25L7 24L4 24L4 23L3 23L3 22L4 22L4 21L3 21L3 20ZM23 20L23 21L24 21L24 20ZM5 22L5 23L7 23L7 22ZM28 22L28 24L29 24L29 22ZM12 23L12 24L13 24L13 23ZM30 24L30 25L29 25L29 26L30 26L30 27L31 27L31 26L32 26L32 25L31 25L31 24ZM22 25L22 26L23 26L23 25ZM25 25L25 28L28 28L28 25ZM30 25L30 26L31 26L31 25ZM26 26L26 27L27 27L27 26ZM29 28L29 29L31 29L31 28ZM13 29L13 30L14 30L14 29ZM16 29L16 30L17 30L17 29ZM18 29L18 30L19 30L19 29ZM29 30L29 31L30 31L30 30ZM32 30L32 31L33 31L33 30ZM17 31L17 32L19 32L19 31ZM23 31L23 32L25 32L25 31ZM0 0L0 7L7 7L7 0ZM1 1L1 6L6 6L6 1ZM2 2L2 5L5 5L5 2ZM26 0L26 7L33 7L33 0ZM27 1L27 6L32 6L32 1ZM28 2L28 5L31 5L31 2ZM0 26L0 33L7 33L7 26ZM1 27L1 32L6 32L6 27ZM2 28L2 31L5 31L5 28Z" fill="#000000"/></g></g></svg>
