<?xml version="1.0" encoding="UTF-8"?>
<svg xmlns="http://www.w3.org/2000/svg" version="1.1" width="120" height="120" viewBox="0 0 120 120"><rect x="0" y="0" width="120" height="120" fill="#ffffff"/><g transform="scale(3.636)"><g transform="translate(0,0)"><path fill-rule="evenodd" d="M8 0L8 4L10 4L10 3L11 3L11 4L12 4L12 2L11 2L11 0ZM12 0L12 1L16 1L16 2L15 2L15 3L13 3L13 4L14 4L14 5L11 5L11 6L10 6L10 7L9 7L9 5L8 5L8 7L9 7L9 8L10 8L10 7L11 7L11 6L12 6L12 8L11 8L11 9L9 9L9 10L8 10L8 9L7 9L7 8L4 8L4 9L3 9L3 11L1 11L1 10L2 10L2 8L0 8L0 12L3 12L3 11L4 11L4 9L5 9L5 10L6 10L6 11L5 11L5 13L4 13L4 14L3 14L3 16L4 16L4 17L2 17L2 16L0 16L0 17L1 17L1 19L0 19L0 20L1 20L1 21L0 21L0 22L1 22L1 21L2 21L2 22L4 22L4 21L3 21L3 20L2 20L2 19L3 19L3 18L4 18L4 19L5 19L5 17L7 17L7 18L6 18L6 19L7 19L7 18L8 18L8 20L9 20L9 21L7 21L7 20L5 20L5 21L7 21L7 22L6 22L6 23L7 23L7 22L8 22L8 24L4 24L4 23L3 23L3 24L0 24L0 25L3 25L3 24L4 24L4 25L8 25L8 26L9 26L9 27L8 27L8 29L9 29L9 30L10 30L10 32L9 32L9 31L8 31L8 33L10 33L10 32L13 32L13 31L12 31L12 30L14 30L14 29L15 29L15 31L14 31L14 33L15 33L15 31L16 31L16 33L26 33L26 32L28 32L28 31L29 31L29 30L31 30L31 31L32 31L32 30L33 30L33 27L32 27L32 24L31 24L31 25L30 25L30 27L31 27L31 28L32 28L32 29L29 29L29 22L30 22L30 23L32 23L32 22L30 22L30 21L29 21L29 20L30 20L30 19L32 19L32 18L30 18L30 17L29 17L29 16L30 16L30 15L32 15L32 14L29 14L29 15L28 15L28 13L30 13L30 11L32 11L32 10L31 10L31 9L33 9L33 8L29 8L29 9L30 9L30 11L29 11L29 10L28 10L28 8L27 8L27 10L28 10L28 11L24 11L24 9L25 9L25 10L26 10L26 9L25 9L25 8L24 8L24 7L25 7L25 6L24 6L24 7L23 7L23 5L25 5L25 4L23 4L23 5L22 5L22 4L21 4L21 5L19 5L19 6L18 6L18 7L17 7L17 6L16 6L16 7L15 7L15 5L18 5L18 4L17 4L17 3L19 3L19 4L20 4L20 3L22 3L22 1L19 1L19 0ZM23 0L23 1L24 1L24 3L25 3L25 1L24 1L24 0ZM17 1L17 2L18 2L18 1ZM9 2L9 3L10 3L10 2ZM15 3L15 4L16 4L16 3ZM13 6L13 8L12 8L12 9L11 9L11 10L9 10L9 11L6 11L6 12L9 12L9 14L8 14L8 13L5 13L5 15L6 15L6 16L7 16L7 17L9 17L9 18L10 18L10 19L11 19L11 18L12 18L12 21L13 21L13 22L12 22L12 25L13 25L13 26L12 26L12 27L13 27L13 28L11 28L11 27L9 27L9 29L10 29L10 28L11 28L11 29L14 29L14 26L15 26L15 25L16 25L16 27L15 27L15 29L16 29L16 31L21 31L21 29L20 29L20 28L21 28L21 27L22 27L22 25L17 25L17 23L18 23L18 24L19 24L19 23L20 23L20 24L21 24L21 23L20 23L20 22L22 22L22 24L23 24L23 21L24 21L24 22L25 22L25 21L26 21L26 22L27 22L27 21L28 21L28 22L29 22L29 21L28 21L28 20L29 20L29 19L30 19L30 18L29 18L29 17L28 17L28 15L27 15L27 13L28 13L28 12L29 12L29 11L28 11L28 12L27 12L27 13L26 13L26 12L25 12L25 13L24 13L24 15L23 15L23 9L24 9L24 8L23 8L23 7L22 7L22 6L21 6L21 7L22 7L22 8L23 8L23 9L22 9L22 14L20 14L20 13L21 13L21 12L19 12L19 11L20 11L20 10L21 10L21 9L17 9L17 10L19 10L19 11L18 11L18 12L19 12L19 13L17 13L17 14L16 14L16 16L14 16L14 15L15 15L15 14L13 14L13 13L16 13L16 11L15 11L15 10L14 10L14 11L12 11L12 12L11 12L11 13L10 13L10 11L11 11L11 10L12 10L12 9L16 9L16 8L17 8L17 7L16 7L16 8L14 8L14 6ZM19 6L19 8L20 8L20 6ZM6 9L6 10L7 10L7 9ZM14 11L14 12L15 12L15 11ZM12 12L12 13L13 13L13 12ZM31 12L31 13L33 13L33 12ZM1 13L1 14L0 14L0 15L2 15L2 13ZM25 13L25 14L26 14L26 13ZM6 14L6 15L8 15L8 14ZM9 14L9 15L10 15L10 16L9 16L9 17L12 17L12 18L14 18L14 19L16 19L16 20L17 20L17 21L14 21L14 22L13 22L13 23L14 23L14 25L15 25L15 23L17 23L17 21L23 21L23 19L26 19L26 17L27 17L27 18L28 18L28 19L27 19L27 20L26 20L26 21L27 21L27 20L28 20L28 19L29 19L29 18L28 18L28 17L27 17L27 16L26 16L26 15L25 15L25 16L24 16L24 17L23 17L23 16L22 16L22 15L21 15L21 17L22 17L22 18L23 18L23 19L21 19L21 18L20 18L20 19L21 19L21 20L18 20L18 17L20 17L20 15L19 15L19 14L17 14L17 17L13 17L13 15L12 15L12 16L11 16L11 14ZM18 15L18 16L19 16L19 15ZM25 16L25 17L24 17L24 18L25 18L25 17L26 17L26 16ZM32 16L32 17L33 17L33 16ZM16 18L16 19L17 19L17 18ZM10 20L10 21L11 21L11 20ZM24 20L24 21L25 21L25 20ZM32 20L32 21L33 21L33 20ZM9 22L9 24L8 24L8 25L9 25L9 24L10 24L10 26L11 26L11 22ZM18 22L18 23L19 23L19 22ZM24 23L24 24L25 24L25 23ZM27 23L27 24L28 24L28 23ZM23 25L23 29L22 29L22 30L23 30L23 29L24 29L24 31L26 31L26 30L25 30L25 29L24 29L24 25ZM25 25L25 28L28 28L28 25ZM17 26L17 27L16 27L16 29L19 29L19 27L18 27L18 26ZM20 26L20 27L21 27L21 26ZM26 26L26 27L27 27L27 26ZM27 30L27 31L28 31L28 30ZM22 31L22 32L23 32L23 31ZM29 32L29 33L30 33L30 32ZM32 32L32 33L33 33L33 32ZM0 0L0 7L7 7L7 0ZM1 1L1 6L6 6L6 1ZM2 2L2 5L5 5L5 2ZM26 0L26 7L33 7L33 0ZM27 1L27 6L32 6L32 1ZM28 2L28 5L31 5L31 2ZM0 26L0 33L7 33L7 26ZM1 27L1 32L6 32L6 27ZM2 28L2 31L5 31L5 28Z" fill="#000000"/></g></g></svg>
