<?xml version="1.0" encoding="UTF-8"?>
<svg xmlns="http://www.w3.org/2000/svg" version="1.1" width="120" height="120" viewBox="0 0 120 120"><rect x="0" y="0" width="120" height="120" fill="#ffffff"/><g transform="scale(3.636)"><g transform="translate(0,0)"><path fill-rule="evenodd" d="M10 0L10 2L11 2L11 0ZM12 0L12 1L13 1L13 2L12 2L12 4L13 4L13 5L11 5L11 6L10 6L10 4L11 4L11 3L8 3L8 4L9 4L9 5L8 5L8 7L9 7L9 8L6 8L6 9L8 9L8 11L7 11L7 10L6 10L6 11L3 11L3 10L4 10L4 9L5 9L5 8L0 8L0 9L3 9L3 10L2 10L2 11L1 11L1 12L0 12L0 13L2 13L2 15L1 15L1 14L0 14L0 16L1 16L1 17L0 17L0 25L1 25L1 18L2 18L2 19L4 19L4 17L2 17L2 16L3 16L3 13L4 13L4 15L5 15L5 17L9 17L9 16L10 16L10 20L9 20L9 21L8 21L8 20L6 20L6 19L7 19L7 18L5 18L5 20L6 20L6 21L4 21L4 20L2 20L2 25L5 25L5 24L6 24L6 25L7 25L7 24L6 24L6 23L9 23L9 24L8 24L8 27L9 27L9 28L8 28L8 33L11 33L11 30L12 30L12 31L13 31L13 29L14 29L14 30L15 30L15 31L14 31L14 32L13 32L13 33L14 33L14 32L15 32L15 33L19 33L19 32L22 32L22 33L25 33L25 32L26 32L26 33L28 33L28 32L29 32L29 33L30 33L30 32L31 32L31 33L32 33L32 32L31 32L31 31L32 31L32 30L31 30L31 29L32 29L32 28L33 28L33 27L32 27L32 26L33 26L33 24L32 24L32 26L31 26L31 25L30 25L30 26L29 26L29 24L31 24L31 23L32 23L32 22L33 22L33 21L32 21L32 20L31 20L31 19L32 19L32 18L33 18L33 17L32 17L32 16L31 16L31 15L32 15L32 14L33 14L33 13L31 13L31 15L30 15L30 16L31 16L31 19L30 19L30 17L29 17L29 16L27 16L27 17L26 17L26 15L25 15L25 14L24 14L24 13L26 13L26 14L27 14L27 15L29 15L29 14L27 14L27 13L30 13L30 12L31 12L31 11L32 11L32 10L33 10L33 9L32 9L32 8L31 8L31 9L30 9L30 8L29 8L29 9L30 9L30 10L29 10L29 11L25 11L25 10L24 10L24 9L26 9L26 10L27 10L27 9L28 9L28 8L27 8L27 9L26 9L26 8L25 8L25 6L24 6L24 9L23 9L23 5L25 5L25 3L24 3L24 2L25 2L25 1L24 1L24 0L23 0L23 1L24 1L24 2L19 2L19 1L22 1L22 0L16 0L16 1L13 1L13 0ZM8 1L8 2L9 2L9 1ZM17 1L17 2L16 2L16 3L15 3L15 2L13 2L13 3L15 3L15 4L14 4L14 5L13 5L13 7L12 7L12 6L11 6L11 7L12 7L12 9L11 9L11 8L10 8L10 9L9 9L9 12L11 12L11 13L9 13L9 14L13 14L13 15L12 15L12 16L14 16L14 15L15 15L15 14L16 14L16 13L12 13L12 11L13 11L13 12L14 12L14 11L15 11L15 12L18 12L18 11L20 11L20 10L19 10L19 9L21 9L21 10L23 10L23 12L21 12L21 13L20 13L20 14L19 14L19 13L17 13L17 14L19 14L19 15L17 15L17 16L16 16L16 17L13 17L13 18L12 18L12 17L11 17L11 21L10 21L10 22L9 22L9 23L10 23L10 24L9 24L9 26L10 26L10 28L9 28L9 29L13 29L13 28L14 28L14 29L15 29L15 30L16 30L16 32L18 32L18 31L21 31L21 30L22 30L22 31L23 31L23 32L25 32L25 31L26 31L26 30L27 30L27 31L29 31L29 30L28 30L28 29L24 29L24 28L23 28L23 26L24 26L24 25L23 25L23 26L21 26L21 27L20 27L20 26L19 26L19 25L22 25L22 24L21 24L21 23L20 23L20 22L19 22L19 21L22 21L22 22L23 22L23 24L24 24L24 23L25 23L25 22L26 22L26 21L27 21L27 22L28 22L28 23L27 23L27 24L29 24L29 21L30 21L30 23L31 23L31 20L30 20L30 19L29 19L29 17L27 17L27 18L26 18L26 17L24 17L24 16L23 16L23 17L24 17L24 18L23 18L23 19L22 19L22 18L21 18L21 19L20 19L20 18L19 18L19 17L20 17L20 16L21 16L21 17L22 17L22 16L21 16L21 15L22 15L22 14L23 14L23 15L24 15L24 14L23 14L23 12L25 12L25 11L24 11L24 10L23 10L23 9L22 9L22 8L20 8L20 6L21 6L21 7L22 7L22 5L23 5L23 4L22 4L22 3L20 3L20 4L21 4L21 5L19 5L19 4L18 4L18 5L16 5L16 4L17 4L17 3L19 3L19 2L18 2L18 1ZM15 5L15 6L14 6L14 8L13 8L13 9L12 9L12 10L13 10L13 11L14 11L14 10L13 10L13 9L16 9L16 10L15 10L15 11L16 11L16 10L17 10L17 9L19 9L19 8L17 8L17 6L16 6L16 5ZM9 6L9 7L10 7L10 6ZM15 6L15 7L16 7L16 6ZM18 6L18 7L19 7L19 6ZM10 9L10 11L11 11L11 9ZM30 10L30 11L29 11L29 12L30 12L30 11L31 11L31 10ZM6 11L6 12L7 12L7 13L6 13L6 14L5 14L5 15L6 15L6 16L8 16L8 12L7 12L7 11ZM2 12L2 13L3 13L3 12ZM4 12L4 13L5 13L5 12ZM26 12L26 13L27 13L27 12ZM6 14L6 15L7 15L7 14ZM10 15L10 16L11 16L11 15ZM19 15L19 16L17 16L17 17L16 17L16 18L14 18L14 19L17 19L17 17L19 17L19 16L20 16L20 15ZM8 18L8 19L9 19L9 18ZM18 18L18 20L17 20L17 21L16 21L16 20L13 20L13 19L12 19L12 20L13 20L13 21L11 21L11 22L13 22L13 23L14 23L14 24L13 24L13 25L11 25L11 26L12 26L12 27L13 27L13 26L14 26L14 28L15 28L15 29L19 29L19 30L21 30L21 29L20 29L20 28L15 28L15 27L17 27L17 26L18 26L18 27L19 27L19 26L18 26L18 25L19 25L19 24L20 24L20 23L18 23L18 22L17 22L17 21L19 21L19 18ZM25 18L25 19L23 19L23 20L22 20L22 19L21 19L21 20L22 20L22 21L23 21L23 22L24 22L24 21L26 21L26 20L25 20L25 19L26 19L26 18ZM27 19L27 21L29 21L29 19ZM23 20L23 21L24 21L24 20ZM6 21L6 22L7 22L7 21ZM14 21L14 22L16 22L16 23L15 23L15 24L14 24L14 25L15 25L15 26L17 26L17 24L18 24L18 23L17 23L17 22L16 22L16 21ZM4 23L4 24L5 24L5 23ZM16 23L16 24L15 24L15 25L16 25L16 24L17 24L17 23ZM25 25L25 28L28 28L28 25ZM26 26L26 27L27 27L27 26ZM30 26L30 27L31 27L31 26ZM21 27L21 28L22 28L22 29L23 29L23 30L24 30L24 31L25 31L25 30L24 30L24 29L23 29L23 28L22 28L22 27ZM29 28L29 29L31 29L31 28ZM9 30L9 31L10 31L10 30ZM0 0L0 7L7 7L7 0ZM1 1L1 6L6 6L6 1ZM2 2L2 5L5 5L5 2ZM26 0L26 7L33 7L33 0ZM27 1L27 6L32 6L32 1ZM28 2L28 5L31 5L31 2ZM0 26L0 33L7 33L7 26ZM1 27L1 32L6 32L6 27ZM2 28L2 31L5 31L5 28Z" fill="#000000"/></g></g></svg>
