<?xml version="1.0" encoding="UTF-8"?>
<svg xmlns="http://www.w3.org/2000/svg" version="1.1" width="120" height="120" viewBox="0 0 120 120"><rect x="0" y="0" width="120" height="120" fill="#ffffff"/><g transform="scale(3.636)"><g transform="translate(0,0)"><path fill-rule="evenodd" d="M10 0L10 2L11 2L11 0ZM12 0L12 1L13 1L13 2L12 2L12 4L13 4L13 5L11 5L11 6L10 6L10 4L11 4L11 3L8 3L8 4L9 4L9 5L8 5L8 7L9 7L9 8L6 8L6 9L8 9L8 10L5 10L5 8L0 8L0 9L1 9L1 11L2 11L2 13L1 13L1 12L0 12L0 13L1 13L1 15L0 15L0 16L1 16L1 17L0 17L0 18L1 18L1 17L2 17L2 18L3 18L3 19L2 19L2 21L3 21L3 22L2 22L2 25L4 25L4 23L5 23L5 25L8 25L8 27L9 27L9 24L12 24L12 23L14 23L14 24L13 24L13 25L10 25L10 28L8 28L8 33L11 33L11 32L10 32L10 30L12 30L12 31L13 31L13 29L14 29L14 30L15 30L15 31L14 31L14 32L13 32L13 33L14 33L14 32L15 32L15 33L19 33L19 32L22 32L22 33L25 33L25 32L26 32L26 33L28 33L28 32L29 32L29 33L30 33L30 32L31 32L31 33L32 33L32 32L31 32L31 31L32 31L32 30L31 30L31 29L32 29L32 28L33 28L33 27L32 27L32 26L33 26L33 24L32 24L32 26L31 26L31 25L30 25L30 26L29 26L29 24L31 24L31 23L32 23L32 22L33 22L33 21L32 21L32 20L31 20L31 19L32 19L32 18L33 18L33 17L32 17L32 16L31 16L31 15L32 15L32 14L33 14L33 13L31 13L31 15L30 15L30 16L31 16L31 19L30 19L30 17L29 17L29 16L27 16L27 17L26 17L26 15L25 15L25 14L24 14L24 13L26 13L26 14L27 14L27 15L29 15L29 14L27 14L27 13L30 13L30 12L31 12L31 11L32 11L32 10L33 10L33 9L32 9L32 8L31 8L31 9L30 9L30 8L29 8L29 9L30 9L30 10L29 10L29 11L25 11L25 10L24 10L24 9L26 9L26 10L27 10L27 9L28 9L28 8L27 8L27 9L26 9L26 8L25 8L25 6L24 6L24 9L23 9L23 5L25 5L25 3L24 3L24 2L25 2L25 1L24 1L24 0L23 0L23 1L24 1L24 2L19 2L19 1L22 1L22 0L16 0L16 1L13 1L13 0ZM8 1L8 2L9 2L9 1ZM17 1L17 2L16 2L16 3L15 3L15 2L13 2L13 3L15 3L15 4L14 4L14 5L13 5L13 7L12 7L12 6L11 6L11 7L12 7L12 9L11 9L11 8L10 8L10 9L9 9L9 10L8 10L8 12L7 12L7 11L6 11L6 12L5 12L5 13L4 13L4 14L5 14L5 16L8 16L8 17L6 17L6 18L5 18L5 17L4 17L4 15L3 15L3 13L2 13L2 15L3 15L3 17L4 17L4 18L5 18L5 19L4 19L4 20L3 20L3 21L4 21L4 20L5 20L5 21L6 21L6 22L5 22L5 23L6 23L6 24L7 24L7 23L10 23L10 21L13 21L13 20L16 20L16 21L14 21L14 22L16 22L16 23L15 23L15 24L14 24L14 25L15 25L15 26L17 26L17 28L18 28L18 26L19 26L19 28L20 28L20 29L21 29L21 30L19 30L19 29L15 29L15 28L16 28L16 27L15 27L15 28L14 28L14 26L13 26L13 27L12 27L12 26L11 26L11 29L13 29L13 28L14 28L14 29L15 29L15 30L16 30L16 31L17 31L17 32L19 32L19 31L21 31L21 30L22 30L22 31L23 31L23 32L25 32L25 31L26 31L26 30L27 30L27 31L29 31L29 30L28 30L28 29L24 29L24 28L23 28L23 26L24 26L24 25L23 25L23 26L21 26L21 27L20 27L20 26L19 26L19 25L22 25L22 24L21 24L21 23L20 23L20 22L19 22L19 21L22 21L22 22L23 22L23 24L24 24L24 23L25 23L25 22L26 22L26 21L27 21L27 22L28 22L28 23L27 23L27 24L29 24L29 21L30 21L30 23L31 23L31 20L30 20L30 19L29 19L29 17L27 17L27 18L26 18L26 17L24 17L24 16L23 16L23 17L24 17L24 18L23 18L23 19L22 19L22 18L21 18L21 19L20 19L20 18L19 18L19 17L20 17L20 16L21 16L21 17L22 17L22 16L21 16L21 15L22 15L22 14L23 14L23 15L24 15L24 14L23 14L23 12L25 12L25 11L24 11L24 10L23 10L23 9L22 9L22 8L20 8L20 6L21 6L21 7L22 7L22 5L23 5L23 4L22 4L22 3L20 3L20 4L21 4L21 5L19 5L19 4L18 4L18 5L16 5L16 4L17 4L17 3L19 3L19 2L18 2L18 1ZM15 5L15 6L14 6L14 8L13 8L13 9L12 9L12 10L13 10L13 11L12 11L12 13L16 13L16 14L15 14L15 15L14 15L14 16L12 16L12 15L13 15L13 14L11 14L11 16L9 16L9 17L8 17L8 18L6 18L6 19L10 19L10 20L11 20L11 19L10 19L10 17L12 17L12 20L13 20L13 17L16 17L16 18L14 18L14 19L17 19L17 17L19 17L19 16L20 16L20 15L19 15L19 16L17 16L17 13L19 13L19 14L20 14L20 13L21 13L21 12L23 12L23 10L21 10L21 9L19 9L19 8L17 8L17 6L16 6L16 5ZM9 6L9 7L10 7L10 6ZM15 6L15 7L16 7L16 6ZM18 6L18 7L19 7L19 6ZM2 9L2 11L3 11L3 10L4 10L4 9ZM10 9L10 11L11 11L11 9ZM13 9L13 10L14 10L14 11L13 11L13 12L14 12L14 11L15 11L15 12L18 12L18 11L20 11L20 10L19 10L19 9L17 9L17 10L16 10L16 9ZM15 10L15 11L16 11L16 10ZM30 10L30 11L29 11L29 12L30 12L30 11L31 11L31 10ZM6 12L6 13L7 13L7 12ZM9 12L9 13L8 13L8 14L10 14L10 13L11 13L11 12ZM26 12L26 13L27 13L27 12ZM6 14L6 15L7 15L7 14ZM16 16L16 17L17 17L17 16ZM25 18L25 19L23 19L23 20L22 20L22 19L21 19L21 20L22 20L22 21L23 21L23 22L24 22L24 21L26 21L26 20L25 20L25 19L26 19L26 18ZM27 19L27 21L29 21L29 19ZM0 20L0 25L1 25L1 20ZM6 20L6 21L7 21L7 20ZM8 20L8 22L9 22L9 20ZM17 20L17 21L16 21L16 22L17 22L17 21L19 21L19 20ZM23 20L23 21L24 21L24 20ZM6 22L6 23L7 23L7 22ZM11 22L11 23L12 23L12 22ZM18 22L18 24L17 24L17 23L16 23L16 24L15 24L15 25L16 25L16 24L17 24L17 25L19 25L19 24L20 24L20 23L19 23L19 22ZM25 25L25 28L28 28L28 25ZM26 26L26 27L27 27L27 26ZM30 26L30 27L31 27L31 26ZM21 27L21 28L22 28L22 29L23 29L23 30L24 30L24 31L25 31L25 30L24 30L24 29L23 29L23 28L22 28L22 27ZM29 28L29 29L31 29L31 28ZM17 30L17 31L19 31L19 30ZM0 0L0 7L7 7L7 0ZM1 1L1 6L6 6L6 1ZM2 2L2 5L5 5L5 2ZM26 0L26 7L33 7L33 0ZM27 1L27 6L32 6L32 1ZM28 2L28 5L31 5L31 2ZM0 26L0 33L7 33L7 26ZM1 27L1 32L6 32L6 27ZM2 28L2 31L5 31L5 28Z" fill="#000000"/></g></g></svg>
