<?xml version="1.0" encoding="UTF-8"?>
<svg xmlns="http://www.w3.org/2000/svg" version="1.1" width="120" height="120" viewBox="0 0 120 120"><rect x="0" y="0" width="120" height="120" fill="#ffffff"/><g transform="scale(3.636)"><g transform="translate(0,0)"><path fill-rule="evenodd" d="M9 0L9 1L8 1L8 2L9 2L9 3L8 3L8 4L10 4L10 7L11 7L11 4L12 4L12 5L13 5L13 6L12 6L12 9L13 9L13 10L11 10L11 11L10 11L10 9L11 9L11 8L6 8L6 9L7 9L7 10L5 10L5 8L0 8L0 9L1 9L1 10L2 10L2 9L4 9L4 10L5 10L5 13L4 13L4 14L3 14L3 12L4 12L4 11L3 11L3 12L1 12L1 13L0 13L0 16L3 16L3 19L7 19L7 18L8 18L8 22L6 22L6 23L4 23L4 21L0 21L0 25L1 25L1 22L2 22L2 23L4 23L4 24L3 24L3 25L5 25L5 24L6 24L6 25L7 25L7 24L8 24L8 27L9 27L9 28L8 28L8 33L9 33L9 32L10 32L10 30L9 30L9 29L11 29L11 30L14 30L14 32L13 32L13 31L12 31L12 32L13 32L13 33L14 33L14 32L15 32L15 31L16 31L16 32L17 32L17 33L19 33L19 32L22 32L22 33L25 33L25 32L26 32L26 33L28 33L28 32L29 32L29 33L30 33L30 32L31 32L31 33L32 33L32 32L31 32L31 31L32 31L32 30L31 30L31 29L29 29L29 28L31 28L31 27L32 27L32 26L33 26L33 24L32 24L32 26L31 26L31 25L30 25L30 26L29 26L29 24L31 24L31 23L32 23L32 22L33 22L33 21L32 21L32 20L31 20L31 19L32 19L32 18L33 18L33 17L32 17L32 16L31 16L31 15L32 15L32 14L33 14L33 13L31 13L31 15L30 15L30 16L31 16L31 19L30 19L30 17L29 17L29 16L27 16L27 17L26 17L26 15L25 15L25 14L24 14L24 13L26 13L26 14L27 14L27 15L29 15L29 14L27 14L27 13L30 13L30 12L31 12L31 11L32 11L32 10L33 10L33 9L32 9L32 8L31 8L31 9L30 9L30 8L29 8L29 9L30 9L30 10L29 10L29 11L25 11L25 10L24 10L24 9L26 9L26 10L27 10L27 9L28 9L28 8L27 8L27 9L26 9L26 8L25 8L25 6L24 6L24 9L23 9L23 5L25 5L25 3L24 3L24 2L25 2L25 1L24 1L24 0L23 0L23 1L24 1L24 2L19 2L19 1L22 1L22 0L16 0L16 1L15 1L15 2L14 2L14 3L13 3L13 4L12 4L12 2L13 2L13 1L14 1L14 0L13 0L13 1L11 1L11 2L10 2L10 0ZM16 1L16 2L17 2L17 3L19 3L19 2L18 2L18 1ZM10 3L10 4L11 4L11 3ZM20 3L20 4L21 4L21 5L19 5L19 4L18 4L18 5L16 5L16 4L13 4L13 5L16 5L16 6L15 6L15 7L14 7L14 6L13 6L13 8L19 8L19 9L17 9L17 12L16 12L16 13L13 13L13 14L12 14L12 13L11 13L11 12L10 12L10 13L11 13L11 17L13 17L13 20L12 20L12 18L11 18L11 19L10 19L10 20L12 20L12 21L13 21L13 23L12 23L12 22L11 22L11 23L9 23L9 22L10 22L10 21L9 21L9 22L8 22L8 23L9 23L9 26L10 26L10 27L11 27L11 29L13 29L13 28L14 28L14 29L15 29L15 30L16 30L16 31L17 31L17 32L19 32L19 31L21 31L21 30L22 30L22 31L23 31L23 32L25 32L25 31L26 31L26 30L27 30L27 31L29 31L29 30L28 30L28 29L24 29L24 28L23 28L23 26L24 26L24 25L23 25L23 26L21 26L21 27L20 27L20 26L19 26L19 25L22 25L22 24L21 24L21 23L20 23L20 22L19 22L19 21L22 21L22 22L23 22L23 24L24 24L24 23L25 23L25 22L26 22L26 21L27 21L27 22L28 22L28 23L27 23L27 24L29 24L29 21L30 21L30 23L31 23L31 20L30 20L30 19L29 19L29 17L27 17L27 18L26 18L26 17L24 17L24 16L23 16L23 17L24 17L24 18L23 18L23 19L22 19L22 18L21 18L21 19L20 19L20 18L19 18L19 17L20 17L20 16L21 16L21 17L22 17L22 16L21 16L21 15L22 15L22 14L23 14L23 15L24 15L24 14L23 14L23 12L25 12L25 11L24 11L24 10L23 10L23 9L22 9L22 8L20 8L20 6L21 6L21 7L22 7L22 5L23 5L23 4L22 4L22 3ZM8 5L8 7L9 7L9 5ZM16 6L16 7L17 7L17 6ZM18 6L18 7L19 7L19 6ZM14 9L14 10L13 10L13 11L12 11L12 12L14 12L14 11L15 11L15 10L16 10L16 9ZM19 9L19 10L18 10L18 12L17 12L17 13L16 13L16 14L15 14L15 15L14 15L14 14L13 14L13 15L12 15L12 16L13 16L13 17L16 17L16 18L15 18L15 19L14 19L14 20L13 20L13 21L16 21L16 20L17 20L17 21L19 21L19 18L18 18L18 17L19 17L19 16L20 16L20 15L19 15L19 14L20 14L20 13L21 13L21 12L23 12L23 10L21 10L21 9ZM19 10L19 11L20 11L20 10ZM30 10L30 11L29 11L29 12L30 12L30 11L31 11L31 10ZM6 11L6 12L7 12L7 13L6 13L6 14L7 14L7 13L8 13L8 14L9 14L9 15L10 15L10 14L9 14L9 13L8 13L8 12L9 12L9 11L8 11L8 12L7 12L7 11ZM26 12L26 13L27 13L27 12ZM17 13L17 14L19 14L19 13ZM1 14L1 15L3 15L3 16L4 16L4 18L7 18L7 17L5 17L5 16L7 16L7 15L5 15L5 16L4 16L4 15L3 15L3 14ZM13 15L13 16L14 16L14 15ZM15 15L15 16L16 16L16 17L17 17L17 16L19 16L19 15ZM8 16L8 17L9 17L9 18L10 18L10 16ZM0 17L0 19L1 19L1 18L2 18L2 17ZM16 18L16 19L15 19L15 20L16 20L16 19L17 19L17 20L18 20L18 18ZM25 18L25 19L23 19L23 20L22 20L22 19L21 19L21 20L22 20L22 21L23 21L23 22L24 22L24 21L26 21L26 20L25 20L25 19L26 19L26 18ZM27 19L27 21L29 21L29 19ZM5 20L5 21L7 21L7 20ZM23 20L23 21L24 21L24 20ZM14 22L14 23L15 23L15 24L13 24L13 25L10 25L10 26L12 26L12 27L14 27L14 28L15 28L15 29L19 29L19 30L17 30L17 31L19 31L19 30L21 30L21 29L20 29L20 28L17 28L17 26L14 26L14 25L19 25L19 24L20 24L20 23L19 23L19 24L17 24L17 22ZM6 23L6 24L7 24L7 23ZM25 25L25 28L28 28L28 25ZM26 26L26 27L27 27L27 26ZM30 26L30 27L31 27L31 26ZM21 27L21 28L22 28L22 29L23 29L23 30L24 30L24 31L25 31L25 30L24 30L24 29L23 29L23 28L22 28L22 27ZM32 28L32 29L33 29L33 28ZM0 0L0 7L7 7L7 0ZM1 1L1 6L6 6L6 1ZM2 2L2 5L5 5L5 2ZM26 0L26 7L33 7L33 0ZM27 1L27 6L32 6L32 1ZM28 2L28 5L31 5L31 2ZM0 26L0 33L7 33L7 26ZM1 27L1 32L6 32L6 27ZM2 28L2 31L5 31L5 28Z" fill="#000000"/></g></g></svg>
