<?xml version="1.0" encoding="UTF-8"?>
<svg xmlns="http://www.w3.org/2000/svg" version="1.1" width="120" height="120" viewBox="0 0 120 120"><rect x="0" y="0" width="120" height="120" fill="#ffffff"/><g transform="scale(3.636)"><g transform="translate(0,0)"><path fill-rule="evenodd" d="M9 0L9 1L8 1L8 2L9 2L9 3L8 3L8 4L10 4L10 7L11 7L11 4L12 4L12 5L13 5L13 4L14 4L14 7L15 7L15 6L16 6L16 8L17 8L17 5L18 5L18 4L19 4L19 5L21 5L21 4L20 4L20 3L22 3L22 4L23 4L23 5L22 5L22 7L21 7L21 6L20 6L20 8L22 8L22 9L23 9L23 10L21 10L21 9L19 9L19 10L18 10L18 9L16 9L16 10L15 10L15 9L14 9L14 8L13 8L13 6L12 6L12 9L14 9L14 12L13 12L13 13L12 13L12 11L13 11L13 10L11 10L11 11L10 11L10 9L11 9L11 8L6 8L6 9L7 9L7 10L6 10L6 11L7 11L7 12L6 12L6 13L5 13L5 11L4 11L4 10L1 10L1 9L5 9L5 8L0 8L0 10L1 10L1 11L0 11L0 13L1 13L1 14L0 14L0 15L1 15L1 16L0 16L0 18L1 18L1 16L2 16L2 15L1 15L1 14L2 14L2 11L4 11L4 12L3 12L3 18L2 18L2 19L0 19L0 25L1 25L1 22L5 22L5 21L7 21L7 22L6 22L6 23L7 23L7 24L5 24L5 23L2 23L2 25L3 25L3 24L5 24L5 25L8 25L8 27L11 27L11 29L12 29L12 30L13 30L13 31L12 31L12 33L13 33L13 32L14 32L14 33L15 33L15 32L16 32L16 31L17 31L17 29L18 29L18 28L19 28L19 30L21 30L21 31L18 31L18 32L17 32L17 33L18 33L18 32L22 32L22 33L25 33L25 32L26 32L26 33L28 33L28 32L29 32L29 33L30 33L30 32L31 32L31 33L32 33L32 32L31 32L31 31L32 31L32 30L31 30L31 29L29 29L29 28L31 28L31 27L32 27L32 26L33 26L33 24L32 24L32 26L31 26L31 25L30 25L30 26L29 26L29 24L31 24L31 23L32 23L32 22L33 22L33 21L32 21L32 20L31 20L31 19L32 19L32 18L33 18L33 17L32 17L32 16L31 16L31 15L32 15L32 14L33 14L33 13L31 13L31 15L30 15L30 16L31 16L31 19L30 19L30 17L29 17L29 16L27 16L27 17L26 17L26 15L25 15L25 14L24 14L24 13L26 13L26 14L27 14L27 15L29 15L29 14L27 14L27 13L30 13L30 12L31 12L31 11L32 11L32 10L33 10L33 9L32 9L32 8L31 8L31 9L30 9L30 8L29 8L29 9L30 9L30 10L29 10L29 11L25 11L25 10L24 10L24 9L26 9L26 10L27 10L27 9L28 9L28 8L27 8L27 9L26 9L26 8L25 8L25 6L24 6L24 9L23 9L23 5L25 5L25 3L24 3L24 2L25 2L25 1L24 1L24 0L23 0L23 1L24 1L24 2L19 2L19 1L22 1L22 0L17 0L17 1L15 1L15 0L14 0L14 1L15 1L15 2L14 2L14 3L13 3L13 4L12 4L12 2L13 2L13 1L11 1L11 2L10 2L10 0ZM17 1L17 3L19 3L19 2L18 2L18 1ZM10 3L10 4L11 4L11 3ZM14 3L14 4L15 4L15 5L17 5L17 4L16 4L16 3ZM8 5L8 7L9 7L9 5ZM18 6L18 7L19 7L19 6ZM8 9L8 10L7 10L7 11L9 11L9 9ZM16 10L16 11L17 11L17 12L16 12L16 13L15 13L15 12L14 12L14 13L13 13L13 14L12 14L12 13L11 13L11 12L10 12L10 13L11 13L11 18L9 18L9 16L10 16L10 15L9 15L9 16L8 16L8 18L7 18L7 17L6 17L6 16L7 16L7 15L5 15L5 13L4 13L4 16L5 16L5 17L6 17L6 18L7 18L7 19L6 19L6 20L7 20L7 19L8 19L8 18L9 18L9 21L11 21L11 23L9 23L9 22L7 22L7 23L9 23L9 24L8 24L8 25L9 25L9 24L11 24L11 25L10 25L10 26L13 26L13 27L12 27L12 29L15 29L15 30L16 30L16 29L17 29L17 28L18 28L18 27L17 27L17 26L19 26L19 28L20 28L20 29L21 29L21 30L22 30L22 31L23 31L23 32L25 32L25 31L26 31L26 30L27 30L27 31L29 31L29 30L28 30L28 29L24 29L24 28L23 28L23 26L24 26L24 25L23 25L23 26L21 26L21 27L20 27L20 26L19 26L19 25L22 25L22 24L21 24L21 23L20 23L20 22L18 22L18 21L22 21L22 22L23 22L23 24L24 24L24 23L25 23L25 22L26 22L26 21L27 21L27 22L28 22L28 23L27 23L27 24L29 24L29 21L30 21L30 23L31 23L31 20L30 20L30 19L29 19L29 17L27 17L27 18L26 18L26 17L24 17L24 16L23 16L23 17L24 17L24 18L23 18L23 19L22 19L22 18L21 18L21 19L20 19L20 18L19 18L19 19L14 19L14 17L15 17L15 18L16 18L16 17L17 17L17 18L18 18L18 17L20 17L20 16L21 16L21 17L22 17L22 16L21 16L21 15L22 15L22 14L23 14L23 15L24 15L24 14L23 14L23 12L25 12L25 11L24 11L24 10L23 10L23 12L21 12L21 13L20 13L20 14L18 14L18 13L17 13L17 12L18 12L18 10ZM19 10L19 11L20 11L20 10ZM30 10L30 11L29 11L29 12L30 12L30 11L31 11L31 10ZM7 12L7 13L6 13L6 14L8 14L8 13L9 13L9 12ZM26 12L26 13L27 13L27 12ZM14 13L14 14L13 14L13 15L12 15L12 17L14 17L14 16L13 16L13 15L14 15L14 14L15 14L15 17L16 17L16 15L18 15L18 16L17 16L17 17L18 17L18 16L20 16L20 15L18 15L18 14L17 14L17 13L16 13L16 14L15 14L15 13ZM3 18L3 19L4 19L4 18ZM11 18L11 19L10 19L10 20L11 20L11 21L12 21L12 22L13 22L13 23L12 23L12 25L13 25L13 24L14 24L14 25L15 25L15 24L16 24L16 23L17 23L17 21L18 21L18 20L17 20L17 21L16 21L16 20L15 20L15 21L16 21L16 22L14 22L14 21L12 21L12 19L13 19L13 18ZM25 18L25 19L23 19L23 20L22 20L22 19L21 19L21 20L22 20L22 21L23 21L23 22L24 22L24 21L26 21L26 20L25 20L25 19L26 19L26 18ZM27 19L27 21L29 21L29 19ZM1 20L1 21L2 21L2 20ZM4 20L4 21L5 21L5 20ZM23 20L23 21L24 21L24 20ZM14 23L14 24L15 24L15 23ZM19 23L19 24L20 24L20 23ZM17 24L17 25L16 25L16 26L15 26L15 27L14 27L14 28L15 28L15 29L16 29L16 28L17 28L17 27L16 27L16 26L17 26L17 25L18 25L18 24ZM25 25L25 28L28 28L28 25ZM26 26L26 27L27 27L27 26ZM30 26L30 27L31 27L31 26ZM15 27L15 28L16 28L16 27ZM21 27L21 28L22 28L22 29L23 29L23 30L24 30L24 31L25 31L25 30L24 30L24 29L23 29L23 28L22 28L22 27ZM8 28L8 33L9 33L9 32L10 32L10 33L11 33L11 30L10 30L10 29L9 29L9 28ZM14 31L14 32L15 32L15 31ZM0 0L0 7L7 7L7 0ZM1 1L1 6L6 6L6 1ZM2 2L2 5L5 5L5 2ZM26 0L26 7L33 7L33 0ZM27 1L27 6L32 6L32 1ZM28 2L28 5L31 5L31 2ZM0 26L0 33L7 33L7 26ZM1 27L1 32L6 32L6 27ZM2 28L2 31L5 31L5 28Z" fill="#000000"/></g></g></svg>
