<?xml version="1.0" encoding="UTF-8"?>
<svg xmlns="http://www.w3.org/2000/svg" version="1.1" width="120" height="120" viewBox="0 0 120 120"><rect x="0" y="0" width="120" height="120" fill="#ffffff"/><g transform="scale(3.243)"><g transform="translate(0,0)"><path fill-rule="evenodd" d="M10 0L10 2L11 2L11 0ZM12 0L12 1L13 1L13 2L12 2L12 4L13 4L13 3L14 3L14 4L15 4L15 5L17 5L17 4L18 4L18 3L20 3L20 4L19 4L19 5L18 5L18 8L17 8L17 6L16 6L16 9L12 9L12 7L13 7L13 5L11 5L11 6L10 6L10 4L11 4L11 3L8 3L8 4L9 4L9 5L8 5L8 7L9 7L9 8L6 8L6 9L7 9L7 10L6 10L6 11L5 11L5 8L0 8L0 10L1 10L1 11L0 11L0 14L2 14L2 15L3 15L3 17L2 17L2 16L1 16L1 15L0 15L0 19L1 19L1 20L0 20L0 23L1 23L1 22L2 22L2 23L3 23L3 24L0 24L0 29L1 29L1 25L3 25L3 26L4 26L4 27L2 27L2 29L5 29L5 28L4 28L4 27L7 27L7 28L6 28L6 29L8 29L8 31L9 31L9 32L8 32L8 37L9 37L9 36L10 36L10 37L11 37L11 36L10 36L10 33L9 33L9 32L10 32L10 31L11 31L11 33L12 33L12 34L13 34L13 35L12 35L12 37L13 37L13 36L14 36L14 37L15 37L15 36L16 36L16 37L19 37L19 34L20 34L20 35L21 35L21 36L20 36L20 37L21 37L21 36L23 36L23 37L24 37L24 36L23 36L23 34L25 34L25 35L26 35L26 36L25 36L25 37L26 37L26 36L29 36L29 34L31 34L31 35L30 35L30 36L32 36L32 37L37 37L37 32L36 32L36 33L35 33L35 32L34 32L34 33L35 33L35 35L36 35L36 36L32 36L32 34L33 34L33 35L34 35L34 34L33 34L33 31L37 31L37 30L34 30L34 29L35 29L35 28L34 28L34 29L33 29L33 28L32 28L32 27L33 27L33 26L32 26L32 25L35 25L35 27L36 27L36 28L37 28L37 26L36 26L36 25L37 25L37 22L36 22L36 21L37 21L37 18L36 18L36 17L37 17L37 14L36 14L36 13L37 13L37 12L36 12L36 11L37 11L37 10L36 10L36 8L35 8L35 9L34 9L34 8L33 8L33 12L32 12L32 11L31 11L31 12L30 12L30 10L27 10L27 11L26 11L26 12L25 12L25 13L23 13L23 12L22 12L22 11L23 11L23 10L24 10L24 11L25 11L25 10L26 10L26 9L27 9L27 6L28 6L28 8L29 8L29 9L30 9L30 8L29 8L29 4L28 4L28 3L29 3L29 0L28 0L28 1L27 1L27 0L26 0L26 1L27 1L27 2L26 2L26 3L25 3L25 0L21 0L21 1L20 1L20 0L18 0L18 1L16 1L16 0ZM8 1L8 2L9 2L9 1ZM18 1L18 2L16 2L16 4L17 4L17 3L18 3L18 2L20 2L20 1ZM23 1L23 3L21 3L21 4L20 4L20 5L19 5L19 7L20 7L20 5L21 5L21 7L22 7L22 8L21 8L21 9L20 9L20 8L18 8L18 9L16 9L16 10L17 10L17 11L16 11L16 13L17 13L17 14L15 14L15 13L14 13L14 12L15 12L15 11L14 11L14 12L13 12L13 13L12 13L12 11L13 11L13 10L12 10L12 9L11 9L11 8L10 8L10 9L8 9L8 10L7 10L7 11L6 11L6 12L7 12L7 11L8 11L8 13L5 13L5 14L4 14L4 16L5 16L5 17L3 17L3 18L2 18L2 17L1 17L1 18L2 18L2 19L3 19L3 20L2 20L2 22L3 22L3 23L4 23L4 24L7 24L7 25L6 25L6 26L10 26L10 28L9 28L9 27L8 27L8 28L9 28L9 31L10 31L10 30L13 30L13 31L12 31L12 33L15 33L15 34L16 34L16 36L18 36L18 35L17 35L17 34L19 34L19 33L20 33L20 34L22 34L22 33L25 33L25 34L26 34L26 35L28 35L28 34L29 34L29 33L28 33L28 34L27 34L27 33L25 33L25 32L26 32L26 29L25 29L25 28L27 28L27 26L29 26L29 27L28 27L28 28L29 28L29 27L30 27L30 28L31 28L31 27L32 27L32 26L31 26L31 25L32 25L32 23L33 23L33 24L36 24L36 23L34 23L34 22L35 22L35 21L34 21L34 22L33 22L33 21L32 21L32 20L36 20L36 19L34 19L34 17L32 17L32 16L33 16L33 15L34 15L34 16L35 16L35 17L36 17L36 15L34 15L34 13L32 13L32 12L31 12L31 13L30 13L30 12L27 12L27 14L26 14L26 13L25 13L25 16L24 16L24 14L21 14L21 13L22 13L22 12L21 12L21 11L22 11L22 10L23 10L23 9L25 9L25 8L26 8L26 4L25 4L25 3L24 3L24 1ZM14 2L14 3L15 3L15 2ZM23 3L23 4L21 4L21 5L24 5L24 7L23 7L23 6L22 6L22 7L23 7L23 8L25 8L25 4L24 4L24 3ZM27 4L27 5L28 5L28 4ZM9 6L9 7L10 7L10 6ZM11 6L11 7L12 7L12 6ZM14 6L14 8L15 8L15 6ZM31 8L31 10L32 10L32 8ZM10 9L10 10L8 10L8 11L10 11L10 12L9 12L9 16L8 16L8 14L5 14L5 16L6 16L6 17L7 17L7 16L8 16L8 18L5 18L5 19L4 19L4 20L3 20L3 21L4 21L4 20L5 20L5 19L7 19L7 20L6 20L6 21L10 21L10 22L11 22L11 25L10 25L10 26L11 26L11 25L12 25L12 26L13 26L13 27L12 27L12 29L13 29L13 28L14 28L14 29L19 29L19 30L18 30L18 31L19 31L19 30L20 30L20 29L21 29L21 32L20 32L20 33L21 33L21 32L25 32L25 29L23 29L23 27L22 27L22 26L21 26L21 28L20 28L20 29L19 29L19 26L20 26L20 25L21 25L21 24L22 24L22 25L23 25L23 26L24 26L24 28L25 28L25 27L26 27L26 26L27 26L27 23L28 23L28 24L29 24L29 25L31 25L31 23L32 23L32 21L31 21L31 20L30 20L30 19L33 19L33 18L32 18L32 17L31 17L31 16L29 16L29 15L30 15L30 14L29 14L29 13L28 13L28 14L27 14L27 15L28 15L28 16L29 16L29 17L28 17L28 18L26 18L26 17L27 17L27 16L25 16L25 17L24 17L24 16L23 16L23 15L21 15L21 16L20 16L20 17L18 17L18 16L17 16L17 15L19 15L19 14L20 14L20 13L21 13L21 12L20 12L20 13L19 13L19 14L17 14L17 15L16 15L16 16L17 16L17 18L18 18L18 19L19 19L19 20L16 20L16 17L12 17L12 15L13 15L13 14L11 14L11 15L10 15L10 12L11 12L11 11L10 11L10 10L11 10L11 9ZM18 9L18 10L20 10L20 9ZM21 9L21 10L22 10L22 9ZM2 10L2 11L1 11L1 12L4 12L4 11L3 11L3 10ZM35 10L35 11L34 11L34 12L35 12L35 13L36 13L36 12L35 12L35 11L36 11L36 10ZM18 11L18 12L17 12L17 13L18 13L18 12L19 12L19 11ZM31 13L31 15L32 15L32 13ZM6 15L6 16L7 16L7 15ZM14 15L14 16L15 16L15 15ZM21 16L21 17L20 17L20 18L19 18L19 19L20 19L20 20L19 20L19 21L18 21L18 22L17 22L17 21L14 21L14 20L15 20L15 19L14 19L14 20L13 20L13 21L12 21L12 19L13 19L13 18L12 18L12 17L9 17L9 19L8 19L8 20L9 20L9 19L11 19L11 20L10 20L10 21L11 21L11 22L13 22L13 23L12 23L12 25L15 25L15 26L16 26L16 27L14 27L14 28L18 28L18 26L19 26L19 25L20 25L20 24L21 24L21 23L22 23L22 24L23 24L23 25L25 25L25 26L26 26L26 25L25 25L25 24L26 24L26 23L25 23L25 22L21 22L21 21L22 21L22 20L21 20L21 19L20 19L20 18L21 18L21 17L22 17L22 18L23 18L23 19L25 19L25 20L23 20L23 21L25 21L25 20L26 20L26 21L27 21L27 22L28 22L28 23L31 23L31 21L29 21L29 19L30 19L30 18L31 18L31 17L29 17L29 19L27 19L27 20L26 20L26 19L25 19L25 18L23 18L23 17L22 17L22 16ZM20 20L20 21L19 21L19 22L20 22L20 23L21 23L21 22L20 22L20 21L21 21L21 20ZM27 20L27 21L28 21L28 22L29 22L29 21L28 21L28 20ZM4 22L4 23L5 23L5 22ZM6 22L6 23L7 23L7 22ZM8 22L8 24L10 24L10 23L9 23L9 22ZM15 22L15 23L14 23L14 24L15 24L15 25L19 25L19 24L16 24L16 22ZM30 26L30 27L31 27L31 26ZM10 28L10 29L11 29L11 28ZM21 28L21 29L22 29L22 30L23 30L23 31L24 31L24 30L23 30L23 29L22 29L22 28ZM29 29L29 32L32 32L32 29ZM15 30L15 31L14 31L14 32L17 32L17 33L19 33L19 32L17 32L17 30ZM27 30L27 32L28 32L28 30ZM30 30L30 31L31 31L31 30ZM31 33L31 34L32 34L32 33ZM14 35L14 36L15 36L15 35ZM0 0L0 7L7 7L7 0ZM1 1L1 6L6 6L6 1ZM2 2L2 5L5 5L5 2ZM30 0L30 7L37 7L37 0ZM31 1L31 6L36 6L36 1ZM32 2L32 5L35 5L35 2ZM0 30L0 37L7 37L7 30ZM1 31L1 36L6 36L6 31ZM2 32L2 35L5 35L5 32Z" fill="#000000"/></g></g></svg>
