<?xml version="1.0" encoding="UTF-8"?>
<svg xmlns="http://www.w3.org/2000/svg" version="1.1" width="120" height="120" viewBox="0 0 120 120"><rect x="0" y="0" width="120" height="120" fill="#ffffff"/><g transform="scale(3.243)"><g transform="translate(0,0)"><path fill-rule="evenodd" d="M10 0L10 2L11 2L11 0ZM12 0L12 1L13 1L13 2L12 2L12 4L13 4L13 3L14 3L14 4L15 4L15 5L17 5L17 4L19 4L19 5L18 5L18 8L17 8L17 6L16 6L16 8L17 8L17 9L18 9L18 10L17 10L17 11L18 11L18 12L16 12L16 9L12 9L12 7L13 7L13 5L11 5L11 6L10 6L10 4L11 4L11 3L8 3L8 4L9 4L9 5L8 5L8 7L9 7L9 8L6 8L6 9L9 9L9 10L5 10L5 8L0 8L0 9L1 9L1 11L0 11L0 15L1 15L1 11L2 11L2 13L3 13L3 15L2 15L2 16L4 16L4 17L3 17L3 18L1 18L1 19L0 19L0 20L1 20L1 21L2 21L2 22L0 22L0 23L1 23L1 24L0 24L0 29L1 29L1 26L2 26L2 28L4 28L4 29L5 29L5 28L4 28L4 27L7 27L7 26L6 26L6 25L7 25L7 24L8 24L8 23L10 23L10 22L9 22L9 21L8 21L8 20L9 20L9 19L10 19L10 20L11 20L11 17L12 17L12 18L13 18L13 19L12 19L12 21L13 21L13 20L14 20L14 21L18 21L18 20L19 20L19 19L18 19L18 20L14 20L14 19L16 19L16 18L15 18L15 17L18 17L18 18L20 18L20 19L21 19L21 20L20 20L20 21L19 21L19 22L15 22L15 23L14 23L14 24L17 24L17 26L18 26L18 27L19 27L19 26L20 26L20 25L21 25L21 26L24 26L24 28L25 28L25 29L23 29L23 28L22 28L22 27L21 27L21 28L20 28L20 29L19 29L19 28L16 28L16 26L15 26L15 25L12 25L12 23L13 23L13 22L11 22L11 25L9 25L9 26L8 26L8 28L6 28L6 29L8 29L8 31L10 31L10 32L8 32L8 37L9 37L9 34L10 34L10 35L11 35L11 33L12 33L12 34L13 34L13 35L12 35L12 37L13 37L13 36L14 36L14 37L21 37L21 36L23 36L23 37L24 37L24 36L23 36L23 34L25 34L25 35L26 35L26 36L25 36L25 37L26 37L26 36L29 36L29 34L31 34L31 35L30 35L30 36L32 36L32 37L37 37L37 30L34 30L34 29L35 29L35 28L34 28L34 29L33 29L33 28L32 28L32 27L33 27L33 26L32 26L32 25L35 25L35 27L36 27L36 28L37 28L37 26L36 26L36 25L37 25L37 22L36 22L36 21L37 21L37 18L36 18L36 17L37 17L37 14L36 14L36 13L37 13L37 12L36 12L36 11L37 11L37 10L36 10L36 8L35 8L35 9L34 9L34 8L33 8L33 12L32 12L32 11L31 11L31 12L30 12L30 10L27 10L27 11L26 11L26 12L25 12L25 13L23 13L23 14L22 14L22 13L21 13L21 12L22 12L22 10L24 10L24 11L25 11L25 10L26 10L26 9L27 9L27 6L28 6L28 8L29 8L29 9L30 9L30 8L29 8L29 4L28 4L28 3L29 3L29 0L28 0L28 1L27 1L27 0L26 0L26 1L27 1L27 2L26 2L26 3L25 3L25 0L21 0L21 1L20 1L20 0L19 0L19 1L20 1L20 2L19 2L19 3L17 3L17 4L16 4L16 2L18 2L18 1L16 1L16 0ZM8 1L8 2L9 2L9 1ZM23 1L23 3L21 3L21 4L20 4L20 3L19 3L19 4L20 4L20 5L19 5L19 9L20 9L20 10L18 10L18 11L19 11L19 12L18 12L18 13L14 13L14 12L15 12L15 11L14 11L14 12L13 12L13 13L12 13L12 11L13 11L13 10L12 10L12 9L11 9L11 8L10 8L10 9L11 9L11 11L10 11L10 10L9 10L9 11L10 11L10 12L9 12L9 13L10 13L10 14L7 14L7 13L6 13L6 14L7 14L7 15L5 15L5 14L4 14L4 16L5 16L5 18L4 18L4 19L5 19L5 21L3 21L3 19L1 19L1 20L2 20L2 21L3 21L3 22L2 22L2 23L3 23L3 22L4 22L4 23L5 23L5 22L8 22L8 21L6 21L6 20L8 20L8 18L9 18L9 17L8 17L8 18L7 18L7 17L6 17L6 16L7 16L7 15L9 15L9 16L11 16L11 14L13 14L13 15L12 15L12 17L15 17L15 16L14 16L14 15L15 15L15 14L16 14L16 16L18 16L18 17L20 17L20 18L21 18L21 19L25 19L25 20L23 20L23 21L22 21L22 20L21 20L21 21L20 21L20 22L19 22L19 23L17 23L17 24L18 24L18 25L20 25L20 24L21 24L21 25L22 25L22 24L21 24L21 21L22 21L22 22L23 22L23 25L25 25L25 26L26 26L26 27L25 27L25 28L27 28L27 26L29 26L29 27L28 27L28 28L29 28L29 27L30 27L30 28L31 28L31 27L32 27L32 26L31 26L31 25L32 25L32 23L33 23L33 24L36 24L36 23L34 23L34 22L35 22L35 21L34 21L34 22L33 22L33 21L32 21L32 20L36 20L36 19L34 19L34 17L32 17L32 16L33 16L33 15L34 15L34 16L35 16L35 17L36 17L36 15L34 15L34 13L32 13L32 12L31 12L31 13L30 13L30 12L27 12L27 14L26 14L26 13L25 13L25 16L24 16L24 14L23 14L23 15L22 15L22 14L21 14L21 13L20 13L20 12L21 12L21 9L25 9L25 8L26 8L26 4L25 4L25 3L24 3L24 1ZM14 2L14 3L15 3L15 2ZM23 3L23 4L21 4L21 5L24 5L24 7L23 7L23 6L22 6L22 7L21 7L21 6L20 6L20 7L21 7L21 8L20 8L20 9L21 9L21 8L22 8L22 7L23 7L23 8L25 8L25 4L24 4L24 3ZM27 4L27 5L28 5L28 4ZM9 6L9 7L10 7L10 6ZM11 6L11 7L12 7L12 6ZM14 6L14 8L15 8L15 6ZM31 8L31 10L32 10L32 8ZM2 10L2 11L3 11L3 13L5 13L5 10L4 10L4 11L3 11L3 10ZM35 10L35 11L34 11L34 12L35 12L35 13L36 13L36 12L35 12L35 11L36 11L36 10ZM6 11L6 12L7 12L7 11ZM10 12L10 13L11 13L11 12ZM19 13L19 14L18 14L18 16L20 16L20 17L21 17L21 18L25 18L25 19L26 19L26 20L25 20L25 21L23 21L23 22L25 22L25 23L26 23L26 24L25 24L25 25L26 25L26 26L27 26L27 23L28 23L28 24L29 24L29 25L31 25L31 23L32 23L32 21L31 21L31 20L30 20L30 19L33 19L33 18L32 18L32 17L31 17L31 16L29 16L29 15L30 15L30 14L29 14L29 13L28 13L28 14L27 14L27 15L28 15L28 16L29 16L29 17L28 17L28 18L26 18L26 17L27 17L27 16L25 16L25 17L24 17L24 16L22 16L22 15L21 15L21 14L20 14L20 13ZM31 13L31 15L32 15L32 13ZM19 14L19 15L20 15L20 16L21 16L21 17L22 17L22 16L21 16L21 15L20 15L20 14ZM29 17L29 19L27 19L27 20L26 20L26 21L27 21L27 22L28 22L28 23L31 23L31 21L29 21L29 19L30 19L30 18L31 18L31 17ZM6 18L6 19L7 19L7 18ZM27 20L27 21L28 21L28 22L29 22L29 21L28 21L28 20ZM6 23L6 24L5 24L5 25L6 25L6 24L7 24L7 23ZM2 24L2 26L3 26L3 25L4 25L4 24ZM11 25L11 28L10 28L10 30L13 30L13 31L12 31L12 33L15 33L15 34L17 34L17 35L16 35L16 36L18 36L18 34L19 34L19 36L20 36L20 34L21 34L21 33L22 33L22 34L23 34L23 33L25 33L25 34L26 34L26 35L28 35L28 34L29 34L29 33L28 33L28 34L27 34L27 33L25 33L25 32L26 32L26 29L25 29L25 32L23 32L23 33L22 33L22 32L21 32L21 31L20 31L20 30L22 30L22 31L24 31L24 30L23 30L23 29L22 29L22 28L21 28L21 29L20 29L20 30L19 30L19 29L18 29L18 30L17 30L17 29L16 29L16 28L15 28L15 27L14 27L14 28L13 28L13 29L12 29L12 27L13 27L13 26L12 26L12 25ZM9 26L9 27L10 27L10 26ZM30 26L30 27L31 27L31 26ZM14 28L14 29L15 29L15 28ZM29 29L29 32L32 32L32 29ZM15 30L15 31L14 31L14 32L15 32L15 33L19 33L19 34L20 34L20 33L21 33L21 32L20 32L20 33L19 33L19 32L15 32L15 31L16 31L16 30ZM27 30L27 32L28 32L28 30ZM30 30L30 31L31 31L31 30ZM33 31L33 34L32 34L32 33L31 33L31 34L32 34L32 36L36 36L36 35L35 35L35 33L34 33L34 32L36 32L36 31ZM10 32L10 33L11 33L11 32ZM33 34L33 35L34 35L34 34ZM14 35L14 36L15 36L15 35ZM10 36L10 37L11 37L11 36ZM0 0L0 7L7 7L7 0ZM1 1L1 6L6 6L6 1ZM2 2L2 5L5 5L5 2ZM30 0L30 7L37 7L37 0ZM31 1L31 6L36 6L36 1ZM32 2L32 5L35 5L35 2ZM0 30L0 37L7 37L7 30ZM1 31L1 36L6 36L6 31ZM2 32L2 35L5 35L5 32Z" fill="#000000"/></g></g></svg>
