<?xml version="1.0" encoding="UTF-8"?>
<svg xmlns="http://www.w3.org/2000/svg" version="1.1" width="120" height="120" viewBox="0 0 120 120"><rect x="0" y="0" width="120" height="120" fill="#ffffff"/><g transform="scale(3.636)"><g transform="translate(0,0)"><path fill-rule="evenodd" d="M12 0L12 3L8 3L8 4L9 4L9 5L8 5L8 7L9 7L9 8L6 8L6 9L8 9L8 10L6 10L6 11L8 11L8 13L11 13L11 14L12 14L12 15L14 15L14 16L12 16L12 17L9 17L9 16L10 16L10 15L9 15L9 16L8 16L8 17L9 17L9 18L6 18L6 17L7 17L7 16L6 16L6 17L5 17L5 18L4 18L4 19L3 19L3 18L1 18L1 16L2 16L2 17L4 17L4 16L5 16L5 15L3 15L3 14L4 14L4 13L5 13L5 14L6 14L6 15L7 15L7 14L6 14L6 13L7 13L7 12L6 12L6 13L5 13L5 12L4 12L4 13L3 13L3 14L2 14L2 13L1 13L1 11L2 11L2 12L3 12L3 11L5 11L5 10L1 10L1 11L0 11L0 14L2 14L2 15L0 15L0 19L1 19L1 20L0 20L0 25L1 25L1 20L2 20L2 21L3 21L3 20L4 20L4 21L8 21L8 24L9 24L9 22L12 22L12 21L14 21L14 22L13 22L13 23L11 23L11 24L10 24L10 25L11 25L11 26L12 26L12 25L14 25L14 27L15 27L15 28L13 28L13 27L12 27L12 28L8 28L8 33L9 33L9 31L11 31L11 32L12 32L12 33L15 33L15 32L16 32L16 31L18 31L18 32L17 32L17 33L18 33L18 32L20 32L20 31L21 31L21 32L22 32L22 33L25 33L25 32L26 32L26 33L28 33L28 32L29 32L29 33L30 33L30 32L31 32L31 33L32 33L32 32L31 32L31 31L32 31L32 30L31 30L31 29L29 29L29 28L32 28L32 29L33 29L33 27L32 27L32 26L33 26L33 24L32 24L32 26L31 26L31 25L30 25L30 26L29 26L29 24L31 24L31 23L32 23L32 22L33 22L33 21L32 21L32 20L31 20L31 19L32 19L32 18L33 18L33 17L32 17L32 16L31 16L31 15L32 15L32 14L33 14L33 13L31 13L31 15L30 15L30 16L31 16L31 19L30 19L30 17L29 17L29 16L27 16L27 17L26 17L26 15L25 15L25 14L24 14L24 13L26 13L26 14L27 14L27 15L29 15L29 14L27 14L27 13L30 13L30 12L31 12L31 11L32 11L32 10L33 10L33 9L32 9L32 8L31 8L31 9L30 9L30 8L29 8L29 9L30 9L30 10L29 10L29 11L25 11L25 12L24 12L24 13L23 13L23 10L24 10L24 9L23 9L23 8L25 8L25 9L26 9L26 10L27 10L27 9L28 9L28 8L27 8L27 9L26 9L26 8L25 8L25 6L24 6L24 7L23 7L23 5L24 5L24 4L23 4L23 2L22 2L22 1L21 1L21 0L18 0L18 1L17 1L17 2L18 2L18 3L15 3L15 4L14 4L14 3L13 3L13 2L14 2L14 1L15 1L15 2L16 2L16 1L15 1L15 0L14 0L14 1L13 1L13 0ZM23 0L23 1L24 1L24 2L25 2L25 1L24 1L24 0ZM8 1L8 2L9 2L9 1ZM10 1L10 2L11 2L11 1ZM18 1L18 2L19 2L19 3L18 3L18 4L19 4L19 3L20 3L20 4L21 4L21 5L19 5L19 7L18 7L18 5L17 5L17 4L15 4L15 5L11 5L11 4L10 4L10 6L9 6L9 7L10 7L10 6L11 6L11 8L10 8L10 9L9 9L9 10L8 10L8 11L9 11L9 12L11 12L11 11L12 11L12 12L15 12L15 11L13 11L13 10L16 10L16 11L17 11L17 12L18 12L18 13L12 13L12 14L14 14L14 15L15 15L15 14L17 14L17 15L16 15L16 16L18 16L18 17L12 17L12 18L11 18L11 19L10 19L10 18L9 18L9 20L8 20L8 19L6 19L6 20L8 20L8 21L9 21L9 20L11 20L11 21L12 21L12 19L13 19L13 20L14 20L14 18L16 18L16 19L17 19L17 20L18 20L18 19L17 19L17 18L19 18L19 19L20 19L20 18L19 18L19 17L20 17L20 16L19 16L19 15L21 15L21 14L19 14L19 15L18 15L18 13L22 13L22 12L20 12L20 10L19 10L19 11L17 11L17 10L18 10L18 9L20 9L20 8L21 8L21 9L22 9L22 10L21 10L21 11L22 11L22 10L23 10L23 9L22 9L22 8L23 8L23 7L22 7L22 5L23 5L23 4L22 4L22 3L21 3L21 2L20 2L20 1ZM12 3L12 4L13 4L13 3ZM15 5L15 6L14 6L14 8L13 8L13 9L12 9L12 8L11 8L11 9L10 9L10 11L11 11L11 10L13 10L13 9L14 9L14 8L15 8L15 9L18 9L18 8L17 8L17 6L16 6L16 5ZM12 6L12 7L13 7L13 6ZM15 6L15 8L16 8L16 6ZM20 6L20 7L19 7L19 8L20 8L20 7L21 7L21 8L22 8L22 7L21 7L21 6ZM0 8L0 9L5 9L5 8ZM30 10L30 11L29 11L29 12L30 12L30 11L31 11L31 10ZM26 12L26 13L27 13L27 12ZM22 14L22 16L21 16L21 17L22 17L22 18L23 18L23 19L24 19L24 18L26 18L26 19L25 19L25 20L23 20L23 21L24 21L24 22L21 22L21 21L22 21L22 20L20 20L20 22L19 22L19 21L18 21L18 23L17 23L17 24L18 24L18 25L15 25L15 26L17 26L17 28L18 28L18 29L19 29L19 28L18 28L18 27L20 27L20 26L18 26L18 25L19 25L19 24L20 24L20 25L22 25L22 24L23 24L23 26L24 26L24 24L25 24L25 22L26 22L26 21L27 21L27 22L28 22L28 23L27 23L27 24L29 24L29 21L30 21L30 23L31 23L31 20L30 20L30 19L29 19L29 17L27 17L27 18L26 18L26 17L25 17L25 15L24 15L24 14ZM22 16L22 17L23 17L23 18L24 18L24 17L23 17L23 16ZM2 19L2 20L3 20L3 19ZM4 19L4 20L5 20L5 19ZM27 19L27 21L29 21L29 19ZM25 20L25 21L26 21L26 20ZM15 21L15 22L14 22L14 23L13 23L13 24L16 24L16 23L15 23L15 22L17 22L17 21ZM2 22L2 24L4 24L4 23L5 23L5 24L6 24L6 25L7 25L7 24L6 24L6 23L7 23L7 22L6 22L6 23L5 23L5 22L4 22L4 23L3 23L3 22ZM20 22L20 24L22 24L22 23L21 23L21 22ZM11 24L11 25L12 25L12 24ZM8 25L8 27L9 27L9 25ZM25 25L25 28L28 28L28 25ZM26 26L26 27L27 27L27 26ZM30 26L30 27L31 27L31 26ZM15 28L15 29L14 29L14 30L13 30L13 29L12 29L12 30L11 30L11 29L9 29L9 30L11 30L11 31L12 31L12 32L14 32L14 31L15 31L15 30L17 30L17 29L16 29L16 28ZM20 28L20 29L21 29L21 31L22 31L22 32L25 32L25 31L26 31L26 30L27 30L27 31L29 31L29 30L28 30L28 29L24 29L24 28ZM23 29L23 30L22 30L22 31L23 31L23 30L24 30L24 31L25 31L25 30L24 30L24 29ZM12 30L12 31L13 31L13 30ZM18 30L18 31L20 31L20 30ZM0 0L0 7L7 7L7 0ZM1 1L1 6L6 6L6 1ZM2 2L2 5L5 5L5 2ZM26 0L26 7L33 7L33 0ZM27 1L27 6L32 6L32 1ZM28 2L28 5L31 5L31 2ZM0 26L0 33L7 33L7 26ZM1 27L1 32L6 32L6 27ZM2 28L2 31L5 31L5 28Z" fill="#000000"/></g></g></svg>
