<?xml version="1.0" encoding="UTF-8"?>
<svg xmlns="http://www.w3.org/2000/svg" version="1.1" width="120" height="120" viewBox="0 0 120 120"><rect x="0" y="0" width="120" height="120" fill="#ffffff"/><g transform="scale(3.636)"><g transform="translate(0,0)"><path fill-rule="evenodd" d="M9 0L9 1L8 1L8 2L9 2L9 3L8 3L8 4L9 4L9 5L8 5L8 7L9 7L9 8L6 8L6 9L7 9L7 10L5 10L5 8L0 8L0 10L1 10L1 11L2 11L2 12L3 12L3 14L2 14L2 13L1 13L1 16L0 16L0 18L1 18L1 20L0 20L0 25L1 25L1 20L2 20L2 16L3 16L3 19L7 19L7 20L5 20L5 21L4 21L4 22L6 22L6 23L7 23L7 22L6 22L6 21L7 21L7 20L8 20L8 21L10 21L10 22L12 22L12 21L14 21L14 22L13 22L13 23L10 23L10 24L8 24L8 27L9 27L9 28L8 28L8 33L11 33L11 32L12 32L12 33L15 33L15 32L16 32L16 31L18 31L18 32L17 32L17 33L18 33L18 32L20 32L20 31L21 31L21 32L22 32L22 33L25 33L25 32L26 32L26 33L28 33L28 32L29 32L29 33L30 33L30 32L31 32L31 33L32 33L32 32L31 32L31 31L32 31L32 30L31 30L31 29L33 29L33 28L32 28L32 26L33 26L33 24L32 24L32 26L31 26L31 25L30 25L30 26L29 26L29 24L31 24L31 23L32 23L32 22L33 22L33 21L32 21L32 20L31 20L31 19L32 19L32 18L33 18L33 17L32 17L32 16L31 16L31 15L32 15L32 14L33 14L33 13L31 13L31 15L30 15L30 16L31 16L31 19L30 19L30 17L29 17L29 16L27 16L27 17L26 17L26 15L25 15L25 14L24 14L24 13L26 13L26 14L27 14L27 15L29 15L29 14L27 14L27 13L30 13L30 12L31 12L31 11L32 11L32 10L33 10L33 9L32 9L32 8L31 8L31 9L30 9L30 8L29 8L29 9L30 9L30 10L29 10L29 11L25 11L25 12L24 12L24 13L23 13L23 10L24 10L24 9L23 9L23 8L25 8L25 9L26 9L26 10L27 10L27 9L28 9L28 8L27 8L27 9L26 9L26 8L25 8L25 6L24 6L24 7L23 7L23 5L24 5L24 4L23 4L23 2L22 2L22 1L21 1L21 0L18 0L18 1L17 1L17 2L16 2L16 1L15 1L15 0ZM23 0L23 1L24 1L24 2L25 2L25 1L24 1L24 0ZM11 1L11 2L10 2L10 3L9 3L9 4L13 4L13 5L11 5L11 7L10 7L10 6L9 6L9 7L10 7L10 9L8 9L8 10L9 10L9 11L8 11L8 12L7 12L7 11L6 11L6 12L4 12L4 11L5 11L5 10L2 10L2 11L3 11L3 12L4 12L4 14L3 14L3 16L4 16L4 14L5 14L5 13L6 13L6 14L8 14L8 15L5 15L5 17L6 17L6 18L7 18L7 17L8 17L8 18L9 18L9 19L11 19L11 21L12 21L12 19L13 19L13 20L14 20L14 18L16 18L16 19L15 19L15 20L16 20L16 19L17 19L17 20L18 20L18 19L17 19L17 18L19 18L19 19L20 19L20 18L19 18L19 17L20 17L20 16L19 16L19 15L21 15L21 14L19 14L19 15L18 15L18 13L22 13L22 12L20 12L20 10L19 10L19 11L16 11L16 12L15 12L15 11L13 11L13 10L18 10L18 9L20 9L20 8L21 8L21 9L22 9L22 10L21 10L21 11L22 11L22 10L23 10L23 9L22 9L22 8L23 8L23 7L22 7L22 5L23 5L23 4L22 4L22 3L21 3L21 2L20 2L20 1L18 1L18 2L17 2L17 3L18 3L18 4L19 4L19 3L20 3L20 4L21 4L21 5L19 5L19 7L18 7L18 5L17 5L17 4L15 4L15 3L16 3L16 2L15 2L15 1ZM12 2L12 3L13 3L13 4L14 4L14 5L15 5L15 6L14 6L14 8L13 8L13 9L12 9L12 8L11 8L11 10L10 10L10 11L11 11L11 12L8 12L8 13L11 13L11 14L12 14L12 15L14 15L14 16L12 16L12 17L11 17L11 18L12 18L12 17L18 17L18 16L17 16L17 15L16 15L16 14L15 14L15 15L14 15L14 14L12 14L12 13L15 13L15 12L12 12L12 11L11 11L11 10L13 10L13 9L14 9L14 8L15 8L15 9L18 9L18 8L17 8L17 5L15 5L15 4L14 4L14 3L13 3L13 2ZM18 2L18 3L19 3L19 2ZM12 6L12 7L13 7L13 6ZM15 6L15 8L16 8L16 6ZM20 6L20 7L19 7L19 8L20 8L20 7L21 7L21 8L22 8L22 7L21 7L21 6ZM30 10L30 11L29 11L29 12L30 12L30 11L31 11L31 10ZM6 12L6 13L7 13L7 12ZM16 12L16 13L18 13L18 12ZM26 12L26 13L27 13L27 12ZM9 14L9 15L8 15L8 17L9 17L9 18L10 18L10 17L9 17L9 16L10 16L10 14ZM22 14L22 16L21 16L21 17L22 17L22 18L23 18L23 19L24 19L24 18L26 18L26 19L25 19L25 20L23 20L23 21L24 21L24 22L21 22L21 21L22 21L22 20L20 20L20 22L19 22L19 21L18 21L18 23L17 23L17 21L15 21L15 22L14 22L14 23L13 23L13 24L18 24L18 25L15 25L15 26L17 26L17 28L18 28L18 29L19 29L19 28L18 28L18 27L20 27L20 26L18 26L18 25L19 25L19 24L20 24L20 25L22 25L22 24L23 24L23 26L24 26L24 24L25 24L25 22L26 22L26 21L27 21L27 22L28 22L28 23L27 23L27 24L29 24L29 21L30 21L30 23L31 23L31 20L30 20L30 19L29 19L29 17L27 17L27 18L26 18L26 17L25 17L25 15L24 15L24 14ZM15 15L15 16L16 16L16 15ZM6 16L6 17L7 17L7 16ZM22 16L22 17L23 17L23 18L24 18L24 17L23 17L23 16ZM27 19L27 21L29 21L29 19ZM25 20L25 21L26 21L26 20ZM2 22L2 23L3 23L3 22ZM8 22L8 23L9 23L9 22ZM15 22L15 23L16 23L16 22ZM20 22L20 24L22 24L22 23L21 23L21 22ZM4 23L4 24L5 24L5 25L7 25L7 24L5 24L5 23ZM2 24L2 25L3 25L3 24ZM11 24L11 25L9 25L9 26L11 26L11 27L10 27L10 28L9 28L9 29L10 29L10 31L9 31L9 32L11 32L11 31L12 31L12 32L14 32L14 31L15 31L15 30L17 30L17 29L16 29L16 28L15 28L15 27L14 27L14 25L12 25L12 24ZM11 25L11 26L12 26L12 25ZM25 25L25 28L28 28L28 25ZM26 26L26 27L27 27L27 26ZM30 26L30 27L31 27L31 26ZM12 27L12 28L10 28L10 29L11 29L11 30L12 30L12 31L13 31L13 30L14 30L14 29L15 29L15 28L13 28L13 27ZM20 28L20 29L21 29L21 31L22 31L22 32L25 32L25 31L26 31L26 30L27 30L27 31L29 31L29 30L28 30L28 29L24 29L24 28ZM29 28L29 29L31 29L31 28ZM12 29L12 30L13 30L13 29ZM23 29L23 30L22 30L22 31L23 31L23 30L24 30L24 31L25 31L25 30L24 30L24 29ZM18 30L18 31L20 31L20 30ZM0 0L0 7L7 7L7 0ZM1 1L1 6L6 6L6 1ZM2 2L2 5L5 5L5 2ZM26 0L26 7L33 7L33 0ZM27 1L27 6L32 6L32 1ZM28 2L28 5L31 5L31 2ZM0 26L0 33L7 33L7 26ZM1 27L1 32L6 32L6 27ZM2 28L2 31L5 31L5 28Z" fill="#000000"/></g></g></svg>
