<?xml version="1.0" encoding="UTF-8"?>
<svg xmlns="http://www.w3.org/2000/svg" version="1.1" width="120" height="120" viewBox="0 0 120 120"><rect x="0" y="0" width="120" height="120" fill="#ffffff"/><g transform="scale(3.636)"><g transform="translate(0,0)"><path fill-rule="evenodd" d="M8 0L8 4L9 4L9 5L8 5L8 7L9 7L9 6L10 6L10 9L11 9L11 8L12 8L12 9L13 9L13 11L12 11L12 12L11 12L11 13L10 13L10 14L9 14L9 13L8 13L8 14L6 14L6 13L7 13L7 12L6 12L6 13L5 13L5 12L4 12L4 14L3 14L3 13L2 13L2 14L1 14L1 11L4 11L4 10L2 10L2 8L0 8L0 14L1 14L1 15L0 15L0 18L1 18L1 19L0 19L0 20L1 20L1 19L5 19L5 17L7 17L7 18L6 18L6 19L8 19L8 20L6 20L6 21L5 21L5 22L4 22L4 21L3 21L3 22L2 22L2 21L0 21L0 22L2 22L2 24L0 24L0 25L2 25L2 24L3 24L3 23L4 23L4 25L7 25L7 24L8 24L8 26L9 26L9 27L8 27L8 29L9 29L9 27L13 27L13 26L14 26L14 27L16 27L16 29L14 29L14 30L13 30L13 29L11 29L11 30L9 30L9 31L8 31L8 33L9 33L9 32L10 32L10 33L12 33L12 32L13 32L13 31L14 31L14 33L15 33L15 31L17 31L17 32L16 32L16 33L20 33L20 31L19 31L19 30L16 30L16 29L19 29L19 27L18 27L18 26L16 26L16 25L22 25L22 26L23 26L23 24L24 24L24 29L23 29L23 27L21 27L21 26L20 26L20 27L21 27L21 28L20 28L20 29L23 29L23 32L22 32L22 30L21 30L21 33L26 33L26 32L28 32L28 31L29 31L29 30L31 30L31 31L32 31L32 30L33 30L33 27L32 27L32 24L31 24L31 25L30 25L30 27L32 27L32 29L29 29L29 22L30 22L30 23L32 23L32 22L30 22L30 21L29 21L29 20L30 20L30 19L32 19L32 18L30 18L30 17L29 17L29 16L30 16L30 15L32 15L32 14L29 14L29 15L28 15L28 13L30 13L30 11L32 11L32 10L31 10L31 9L33 9L33 8L29 8L29 9L30 9L30 11L29 11L29 10L28 10L28 8L27 8L27 10L28 10L28 11L25 11L25 10L26 10L26 9L25 9L25 6L24 6L24 8L23 8L23 5L24 5L24 4L25 4L25 3L23 3L23 2L20 2L20 1L19 1L19 0L18 0L18 1L19 1L19 3L18 3L18 2L16 2L16 3L13 3L13 2L14 2L14 0L13 0L13 1L11 1L11 2L12 2L12 5L13 5L13 6L12 6L12 7L11 7L11 3L10 3L10 2L9 2L9 0ZM15 0L15 1L17 1L17 0ZM22 0L22 1L24 1L24 2L25 2L25 1L24 1L24 0ZM16 3L16 4L18 4L18 3ZM21 3L21 4L22 4L22 5L23 5L23 4L22 4L22 3ZM13 4L13 5L14 5L14 4ZM19 4L19 5L18 5L18 6L17 6L17 7L16 7L16 5L15 5L15 7L16 7L16 8L14 8L14 6L13 6L13 7L12 7L12 8L13 8L13 9L17 9L17 7L18 7L18 9L19 9L19 10L18 10L18 11L19 11L19 12L21 12L21 11L22 11L22 12L23 12L23 13L22 13L22 14L21 14L21 13L18 13L18 14L19 14L19 15L20 15L20 16L21 16L21 15L22 15L22 16L23 16L23 13L24 13L24 14L25 14L25 15L24 15L24 16L25 16L25 17L24 17L24 19L23 19L23 17L22 17L22 22L21 22L21 21L20 21L20 20L21 20L21 19L20 19L20 18L21 18L21 17L17 17L17 15L15 15L15 14L14 14L14 13L17 13L17 12L16 12L16 11L17 11L17 10L16 10L16 11L13 11L13 12L12 12L12 13L11 13L11 14L10 14L10 15L11 15L11 14L12 14L12 13L13 13L13 15L12 15L12 16L11 16L11 17L10 17L10 16L9 16L9 14L8 14L8 15L6 15L6 14L5 14L5 15L4 15L4 16L3 16L3 15L1 15L1 18L2 18L2 16L3 16L3 17L5 17L5 15L6 15L6 16L9 16L9 17L10 17L10 18L8 18L8 19L10 19L10 20L8 20L8 21L6 21L6 22L5 22L5 24L7 24L7 23L6 23L6 22L8 22L8 24L9 24L9 25L10 25L10 26L11 26L11 25L15 25L15 24L14 24L14 23L15 23L15 22L13 22L13 23L12 23L12 24L10 24L10 23L11 23L11 22L12 22L12 21L10 21L10 20L12 20L12 19L13 19L13 21L15 21L15 20L14 20L14 19L15 19L15 18L14 18L14 19L13 19L13 17L16 17L16 19L18 19L18 18L19 18L19 21L16 21L16 23L17 23L17 22L19 22L19 23L18 23L18 24L19 24L19 23L22 23L22 24L23 24L23 21L24 21L24 22L25 22L25 21L26 21L26 22L27 22L27 21L28 21L28 22L29 22L29 21L28 21L28 20L29 20L29 19L30 19L30 18L29 18L29 17L28 17L28 15L27 15L27 13L28 13L28 12L29 12L29 11L28 11L28 12L27 12L27 13L26 13L26 12L25 12L25 11L22 11L22 10L23 10L23 9L21 9L21 7L22 7L22 6L21 6L21 7L20 7L20 6L19 6L19 5L20 5L20 4ZM18 6L18 7L19 7L19 9L20 9L20 7L19 7L19 6ZM4 8L4 9L7 9L7 8ZM24 9L24 10L25 10L25 9ZM5 10L5 11L8 11L8 12L10 12L10 11L11 11L11 10L9 10L9 11L8 11L8 10ZM20 10L20 11L21 11L21 10ZM24 12L24 13L25 13L25 14L26 14L26 13L25 13L25 12ZM31 12L31 13L33 13L33 12ZM20 14L20 15L21 15L21 14ZM14 15L14 16L15 16L15 15ZM25 15L25 16L26 16L26 17L25 17L25 19L26 19L26 17L27 17L27 18L28 18L28 19L27 19L27 20L26 20L26 21L27 21L27 20L28 20L28 19L29 19L29 18L28 18L28 17L27 17L27 16L26 16L26 15ZM12 16L12 17L13 17L13 16ZM32 16L32 17L33 17L33 16ZM32 20L32 21L33 21L33 20ZM8 21L8 22L9 22L9 23L10 23L10 21ZM27 23L27 24L28 24L28 23ZM25 25L25 28L28 28L28 25ZM26 26L26 27L27 27L27 26ZM24 29L24 31L26 31L26 30L25 30L25 29ZM27 30L27 31L28 31L28 30ZM18 31L18 32L19 32L19 31ZM29 32L29 33L30 33L30 32ZM32 32L32 33L33 33L33 32ZM0 0L0 7L7 7L7 0ZM1 1L1 6L6 6L6 1ZM2 2L2 5L5 5L5 2ZM26 0L26 7L33 7L33 0ZM27 1L27 6L32 6L32 1ZM28 2L28 5L31 5L31 2ZM0 26L0 33L7 33L7 26ZM1 27L1 32L6 32L6 27ZM2 28L2 31L5 31L5 28Z" fill="#000000"/></g></g></svg>
