<?xml version="1.0" encoding="UTF-8"?>
<svg xmlns="http://www.w3.org/2000/svg" version="1.1" width="120" height="120" viewBox="0 0 120 120"><rect x="0" y="0" width="120" height="120" fill="#ffffff"/><g transform="scale(3.636)"><g transform="translate(0,0)"><path fill-rule="evenodd" d="M9 0L9 1L8 1L8 2L9 2L9 3L8 3L8 4L10 4L10 7L11 7L11 4L12 4L12 5L14 5L14 4L16 4L16 5L15 5L15 6L14 6L14 8L13 8L13 6L12 6L12 9L16 9L16 10L11 10L11 11L10 11L10 9L11 9L11 8L6 8L6 9L5 9L5 8L0 8L0 9L1 9L1 12L0 12L0 15L2 15L2 17L1 17L1 16L0 16L0 17L1 17L1 18L0 18L0 19L1 19L1 18L2 18L2 20L0 20L0 25L1 25L1 21L2 21L2 22L3 22L3 23L2 23L2 25L7 25L7 24L6 24L6 23L8 23L8 22L6 22L6 23L5 23L5 24L3 24L3 23L4 23L4 22L3 22L3 21L9 21L9 25L8 25L8 27L9 27L9 25L10 25L10 23L11 23L11 24L12 24L12 23L11 23L11 21L12 21L12 22L13 22L13 21L15 21L15 20L16 20L16 21L19 21L19 22L21 22L21 21L20 21L20 20L16 20L16 19L18 19L18 18L15 18L15 19L14 19L14 18L10 18L10 17L8 17L8 16L10 16L10 15L11 15L11 13L12 13L12 14L14 14L14 13L16 13L16 14L15 14L15 15L14 15L14 16L13 16L13 15L12 15L12 17L16 17L16 16L17 16L17 17L19 17L19 18L20 18L20 19L21 19L21 20L25 20L25 21L26 21L26 22L25 22L25 24L24 24L24 26L23 26L23 22L24 22L24 21L23 21L23 22L22 22L22 23L18 23L18 24L16 24L16 23L17 23L17 22L15 22L15 23L14 23L14 24L13 24L13 25L11 25L11 26L12 26L12 27L10 27L10 28L8 28L8 33L9 33L9 31L10 31L10 30L9 30L9 29L10 29L10 28L13 28L13 29L11 29L11 30L13 30L13 31L14 31L14 32L13 32L13 33L14 33L14 32L15 32L15 33L19 33L19 32L20 32L20 33L21 33L21 32L22 32L22 33L25 33L25 32L26 32L26 33L28 33L28 32L29 32L29 33L30 33L30 32L31 32L31 33L32 33L32 32L31 32L31 31L32 31L32 30L31 30L31 29L32 29L32 28L33 28L33 27L32 27L32 26L33 26L33 24L32 24L32 26L31 26L31 25L30 25L30 26L29 26L29 24L31 24L31 23L32 23L32 22L33 22L33 21L32 21L32 20L31 20L31 19L32 19L32 18L33 18L33 17L32 17L32 16L31 16L31 15L32 15L32 14L33 14L33 13L31 13L31 15L30 15L30 16L31 16L31 19L30 19L30 17L29 17L29 16L27 16L27 17L26 17L26 15L24 15L24 16L23 16L23 14L24 14L24 13L26 13L26 14L27 14L27 15L29 15L29 14L27 14L27 13L30 13L30 12L31 12L31 11L32 11L32 10L33 10L33 9L32 9L32 8L31 8L31 9L30 9L30 8L29 8L29 9L30 9L30 10L29 10L29 11L21 11L21 10L22 10L22 9L23 9L23 10L24 10L24 9L26 9L26 10L27 10L27 9L28 9L28 8L27 8L27 9L26 9L26 8L24 8L24 7L25 7L25 6L24 6L24 7L23 7L23 5L24 5L24 4L23 4L23 5L22 5L22 7L21 7L21 6L20 6L20 7L19 7L19 6L18 6L18 5L20 5L20 4L21 4L21 3L22 3L22 1L24 1L24 2L23 2L23 3L25 3L25 1L24 1L24 0L18 0L18 1L20 1L20 2L18 2L18 3L13 3L13 4L12 4L12 2L13 2L13 1L11 1L11 2L10 2L10 0ZM14 0L14 2L16 2L16 1L17 1L17 0L16 0L16 1L15 1L15 0ZM10 3L10 4L11 4L11 3ZM18 3L18 4L19 4L19 3ZM8 5L8 7L9 7L9 5ZM15 6L15 7L16 7L16 6ZM17 6L17 8L16 8L16 9L17 9L17 8L18 8L18 9L20 9L20 8L21 8L21 9L22 9L22 8L23 8L23 7L22 7L22 8L21 8L21 7L20 7L20 8L18 8L18 6ZM3 9L3 10L2 10L2 11L3 11L3 12L2 12L2 13L1 13L1 14L2 14L2 15L3 15L3 14L4 14L4 15L5 15L5 16L7 16L7 15L6 15L6 14L8 14L8 15L9 15L9 11L8 11L8 10L9 10L9 9L6 9L6 10L7 10L7 11L6 11L6 12L5 12L5 10L4 10L4 9ZM17 10L17 11L12 11L12 13L13 13L13 12L16 12L16 13L17 13L17 12L19 12L19 13L18 13L18 14L16 14L16 15L15 15L15 16L16 16L16 15L17 15L17 16L19 16L19 17L21 17L21 18L23 18L23 19L24 19L24 18L26 18L26 19L25 19L25 20L26 20L26 21L27 21L27 22L28 22L28 23L27 23L27 24L29 24L29 21L30 21L30 23L31 23L31 20L30 20L30 19L29 19L29 17L27 17L27 18L26 18L26 17L24 17L24 18L23 18L23 17L22 17L22 16L21 16L21 15L22 15L22 14L23 14L23 13L24 13L24 12L23 12L23 13L22 13L22 12L21 12L21 11L20 11L20 10L19 10L19 11L18 11L18 10ZM30 10L30 11L29 11L29 12L30 12L30 11L31 11L31 10ZM4 12L4 13L5 13L5 14L6 14L6 13L7 13L7 12L6 12L6 13L5 13L5 12ZM10 12L10 13L11 13L11 12ZM26 12L26 13L27 13L27 12ZM19 13L19 14L20 14L20 15L19 15L19 16L20 16L20 15L21 15L21 13ZM6 17L6 18L8 18L8 19L6 19L6 20L9 20L9 21L11 21L11 19L10 19L10 18L8 18L8 17ZM3 18L3 20L2 20L2 21L3 21L3 20L4 20L4 19L5 19L5 18ZM12 19L12 20L14 20L14 19ZM27 19L27 21L29 21L29 19ZM15 24L15 25L13 25L13 28L20 28L20 29L22 29L22 30L23 30L23 32L25 32L25 31L26 31L26 30L27 30L27 31L29 31L29 30L28 30L28 29L24 29L24 28L23 28L23 27L22 27L22 26L21 26L21 27L20 27L20 26L19 26L19 25L22 25L22 24L19 24L19 25L16 25L16 24ZM25 25L25 28L28 28L28 25ZM14 26L14 27L16 27L16 26ZM18 26L18 27L19 27L19 26ZM26 26L26 27L27 27L27 26ZM30 26L30 27L31 27L31 28L29 28L29 29L31 29L31 28L32 28L32 27L31 27L31 26ZM21 27L21 28L22 28L22 29L23 29L23 30L24 30L24 31L25 31L25 30L24 30L24 29L23 29L23 28L22 28L22 27ZM14 29L14 30L16 30L16 31L15 31L15 32L16 32L16 31L17 31L17 32L18 32L18 31L20 31L20 32L21 32L21 30L19 30L19 29ZM11 32L11 33L12 33L12 32ZM0 0L0 7L7 7L7 0ZM1 1L1 6L6 6L6 1ZM2 2L2 5L5 5L5 2ZM26 0L26 7L33 7L33 0ZM27 1L27 6L32 6L32 1ZM28 2L28 5L31 5L31 2ZM0 26L0 33L7 33L7 26ZM1 27L1 32L6 32L6 27ZM2 28L2 31L5 31L5 28Z" fill="#000000"/></g></g></svg>
