<?xml version="1.0" encoding="UTF-8"?>
<svg xmlns="http://www.w3.org/2000/svg" version="1.1" width="399" height="399" viewBox="0 0 399 399"><rect x="0" y="0" width="399" height="399" fill="#ffffff"/><g transform="scale(19)"><g transform="translate(0,0)"><path fill-rule="evenodd" d="M8 1L8 2L9 2L9 3L8 3L8 4L9 4L9 5L8 5L8 7L9 7L9 8L6 8L6 9L7 9L7 10L6 10L6 11L7 11L7 12L5 12L5 13L7 13L7 12L8 12L8 15L9 15L9 13L10 13L10 17L9 17L9 16L8 16L8 21L9 21L9 20L10 20L10 17L11 17L11 20L12 20L12 21L14 21L14 19L13 19L13 18L12 18L12 17L13 17L13 16L12 16L12 17L11 17L11 15L14 15L14 14L13 14L13 12L14 12L14 13L15 13L15 14L17 14L17 16L16 16L16 17L15 17L15 16L14 16L14 17L15 17L15 18L17 18L17 19L18 19L18 20L19 20L19 21L20 21L20 20L19 20L19 18L20 18L20 17L17 17L17 16L20 16L20 14L19 14L19 15L18 15L18 14L17 14L17 13L15 13L15 12L14 12L14 11L13 11L13 10L8 10L8 9L10 9L10 7L11 7L11 9L12 9L12 7L13 7L13 5L11 5L11 6L10 6L10 7L9 7L9 5L10 5L10 4L13 4L13 1L11 1L11 2L12 2L12 3L10 3L10 2L9 2L9 1ZM11 6L11 7L12 7L12 6ZM0 8L0 9L1 9L1 10L0 10L0 11L1 11L1 12L0 12L0 13L1 13L1 12L4 12L4 10L5 10L5 8ZM13 8L13 9L14 9L14 8ZM15 8L15 11L16 11L16 10L17 10L17 12L19 12L19 13L21 13L21 12L20 12L20 10L21 10L21 9L20 9L20 8L19 8L19 9L18 9L18 8L17 8L17 9L16 9L16 8ZM2 9L2 10L1 10L1 11L3 11L3 10L4 10L4 9ZM17 9L17 10L18 10L18 9ZM19 9L19 10L20 10L20 9ZM7 10L7 11L8 11L8 12L10 12L10 11L8 11L8 10ZM12 11L12 12L11 12L11 14L12 14L12 12L13 12L13 11ZM15 19L15 21L16 21L16 19ZM0 0L0 7L7 7L7 0ZM1 1L1 6L6 6L6 1ZM2 2L2 5L5 5L5 2ZM14 0L14 7L21 7L21 0ZM15 1L15 6L20 6L20 1ZM16 2L16 5L19 5L19 2ZM0 14L0 21L7 21L7 14ZM1 15L1 20L6 20L6 15ZM2 16L2 19L5 19L5 16Z" fill="#282828"/></g></g></svg>
