<?xml version="1.0" encoding="UTF-8"?>
<svg xmlns="http://www.w3.org/2000/svg" version="1.1" width="120" height="120" viewBox="0 0 120 120"><rect x="0" y="0" width="120" height="120" fill="#ffffff"/><g transform="scale(3.243)"><g transform="translate(0,0)"><path fill-rule="evenodd" d="M9 0L9 1L8 1L8 2L9 2L9 3L8 3L8 4L10 4L10 7L11 7L11 4L12 4L12 5L13 5L13 6L12 6L12 9L13 9L13 8L14 8L14 9L15 9L15 10L17 10L17 9L18 9L18 10L20 10L20 9L21 9L21 10L22 10L22 11L21 11L21 12L20 12L20 13L19 13L19 14L16 14L16 13L18 13L18 12L19 12L19 11L18 11L18 12L17 12L17 11L16 11L16 13L12 13L12 11L13 11L13 10L10 10L10 11L9 11L9 13L8 13L8 9L11 9L11 8L6 8L6 9L7 9L7 10L6 10L6 11L5 11L5 12L4 12L4 9L5 9L5 8L0 8L0 9L3 9L3 10L0 10L0 11L3 11L3 12L2 12L2 14L3 14L3 12L4 12L4 14L5 14L5 15L4 15L4 16L3 16L3 15L0 15L0 16L3 16L3 17L2 17L2 18L0 18L0 19L1 19L1 20L0 20L0 29L1 29L1 24L2 24L2 21L1 21L1 20L2 20L2 19L3 19L3 22L4 22L4 18L5 18L5 19L7 19L7 18L5 18L5 17L8 17L8 16L9 16L9 17L10 17L10 18L11 18L11 21L12 21L12 22L13 22L13 23L12 23L12 25L13 25L13 24L14 24L14 25L19 25L19 26L18 26L18 28L15 28L15 27L16 27L16 26L15 26L15 27L14 27L14 28L15 28L15 29L12 29L12 27L13 27L13 26L9 26L9 27L8 27L8 26L2 26L2 27L4 27L4 28L6 28L6 29L8 29L8 31L9 31L9 29L10 29L10 28L9 28L9 27L11 27L11 29L12 29L12 30L13 30L13 31L12 31L12 33L13 33L13 32L14 32L14 33L15 33L15 32L17 32L17 33L19 33L19 34L17 34L17 35L18 35L18 36L16 36L16 34L15 34L15 35L14 35L14 36L16 36L16 37L19 37L19 34L20 34L20 35L21 35L21 36L20 36L20 37L21 37L21 36L23 36L23 37L24 37L24 36L23 36L23 34L25 34L25 35L26 35L26 36L25 36L25 37L26 37L26 36L29 36L29 34L31 34L31 35L30 35L30 36L32 36L32 37L37 37L37 30L34 30L34 29L35 29L35 28L34 28L34 29L33 29L33 28L32 28L32 27L33 27L33 26L32 26L32 25L35 25L35 27L36 27L36 28L37 28L37 26L36 26L36 25L37 25L37 22L36 22L36 21L37 21L37 18L36 18L36 17L37 17L37 14L36 14L36 13L37 13L37 12L36 12L36 11L37 11L37 10L36 10L36 8L35 8L35 9L34 9L34 8L33 8L33 12L32 12L32 11L31 11L31 12L30 12L30 10L27 10L27 11L26 11L26 12L25 12L25 13L23 13L23 12L22 12L22 11L23 11L23 10L24 10L24 11L25 11L25 10L26 10L26 9L27 9L27 6L28 6L28 8L29 8L29 9L30 9L30 8L29 8L29 4L28 4L28 3L29 3L29 0L28 0L28 1L27 1L27 0L26 0L26 1L27 1L27 2L26 2L26 3L25 3L25 0L21 0L21 1L20 1L20 0L18 0L18 1L17 1L17 0L15 0L15 1L17 1L17 2L16 2L16 4L12 4L12 2L13 2L13 1L11 1L11 2L10 2L10 0ZM18 1L18 2L17 2L17 3L18 3L18 4L16 4L16 5L17 5L17 7L16 7L16 6L15 6L15 7L14 7L14 6L13 6L13 7L14 7L14 8L15 8L15 7L16 7L16 9L17 9L17 8L18 8L18 9L20 9L20 8L18 8L18 5L19 5L19 7L20 7L20 5L21 5L21 7L22 7L22 8L21 8L21 9L22 9L22 10L23 10L23 9L25 9L25 8L26 8L26 4L25 4L25 3L24 3L24 1L23 1L23 3L21 3L21 4L20 4L20 3L18 3L18 2L20 2L20 1ZM14 2L14 3L15 3L15 2ZM10 3L10 4L11 4L11 3ZM23 3L23 4L21 4L21 5L24 5L24 7L23 7L23 6L22 6L22 7L23 7L23 8L25 8L25 4L24 4L24 3ZM19 4L19 5L20 5L20 4ZM27 4L27 5L28 5L28 4ZM8 5L8 7L9 7L9 5ZM31 8L31 10L32 10L32 8ZM35 10L35 11L34 11L34 12L35 12L35 13L36 13L36 12L35 12L35 11L36 11L36 10ZM6 11L6 12L5 12L5 13L6 13L6 14L7 14L7 15L5 15L5 16L4 16L4 17L3 17L3 18L4 18L4 17L5 17L5 16L7 16L7 15L9 15L9 16L11 16L11 18L13 18L13 19L12 19L12 21L16 21L16 24L19 24L19 25L20 25L20 26L19 26L19 29L15 29L15 30L17 30L17 32L19 32L19 33L20 33L20 34L22 34L22 33L25 33L25 34L26 34L26 35L28 35L28 34L29 34L29 33L28 33L28 34L27 34L27 33L25 33L25 32L26 32L26 29L25 29L25 28L27 28L27 26L29 26L29 27L28 27L28 28L29 28L29 27L30 27L30 28L31 28L31 27L32 27L32 26L31 26L31 25L32 25L32 23L33 23L33 24L36 24L36 23L34 23L34 22L35 22L35 21L34 21L34 22L33 22L33 21L32 21L32 20L36 20L36 19L34 19L34 17L32 17L32 16L33 16L33 15L34 15L34 16L35 16L35 17L36 17L36 15L34 15L34 13L32 13L32 12L31 12L31 13L30 13L30 12L27 12L27 14L26 14L26 13L25 13L25 16L24 16L24 14L21 14L21 13L22 13L22 12L21 12L21 13L20 13L20 14L19 14L19 15L16 15L16 17L17 17L17 16L18 16L18 17L20 17L20 18L19 18L19 19L18 19L18 18L15 18L15 17L14 17L14 16L15 16L15 15L14 15L14 16L13 16L13 17L12 17L12 15L13 15L13 14L12 14L12 13L11 13L11 12L10 12L10 13L9 13L9 14L7 14L7 13L6 13L6 12L7 12L7 11ZM14 11L14 12L15 12L15 11ZM10 13L10 14L11 14L11 13ZM28 13L28 14L27 14L27 15L28 15L28 16L29 16L29 17L28 17L28 18L26 18L26 17L27 17L27 16L25 16L25 17L24 17L24 16L23 16L23 15L21 15L21 16L20 16L20 17L21 17L21 18L20 18L20 19L19 19L19 20L17 20L17 19L16 19L16 20L17 20L17 22L18 22L18 21L19 21L19 22L20 22L20 23L21 23L21 24L20 24L20 25L21 25L21 24L22 24L22 25L23 25L23 26L24 26L24 28L25 28L25 27L26 27L26 26L27 26L27 23L28 23L28 24L29 24L29 25L31 25L31 23L32 23L32 21L31 21L31 20L30 20L30 19L33 19L33 18L32 18L32 17L31 17L31 16L29 16L29 15L30 15L30 14L29 14L29 13ZM31 13L31 15L32 15L32 13ZM21 16L21 17L22 17L22 18L23 18L23 19L25 19L25 20L23 20L23 21L25 21L25 20L26 20L26 21L27 21L27 22L28 22L28 23L31 23L31 21L29 21L29 19L30 19L30 18L31 18L31 17L29 17L29 19L27 19L27 20L26 20L26 19L25 19L25 18L23 18L23 17L22 17L22 16ZM14 19L14 20L15 20L15 19ZM20 19L20 20L19 20L19 21L20 21L20 22L21 22L21 23L22 23L22 24L23 24L23 25L25 25L25 26L26 26L26 25L25 25L25 24L26 24L26 23L25 23L25 22L21 22L21 21L22 21L22 20L21 20L21 19ZM5 20L5 21L7 21L7 22L6 22L6 23L5 23L5 24L4 24L4 25L8 25L8 24L10 24L10 22L9 22L9 23L8 23L8 24L6 24L6 23L7 23L7 22L8 22L8 21L9 21L9 20ZM20 20L20 21L21 21L21 20ZM27 20L27 21L28 21L28 22L29 22L29 21L28 21L28 20ZM14 23L14 24L15 24L15 23ZM21 26L21 28L20 28L20 29L19 29L19 30L18 30L18 31L19 31L19 30L20 30L20 29L21 29L21 32L20 32L20 33L21 33L21 32L25 32L25 29L23 29L23 27L22 27L22 26ZM30 26L30 27L31 27L31 26ZM6 27L6 28L7 28L7 27ZM8 28L8 29L9 29L9 28ZM21 28L21 29L22 29L22 30L23 30L23 31L24 31L24 30L23 30L23 29L22 29L22 28ZM29 29L29 32L32 32L32 29ZM10 30L10 31L11 31L11 30ZM27 30L27 32L28 32L28 30ZM30 30L30 31L31 31L31 30ZM14 31L14 32L15 32L15 31ZM33 31L33 34L32 34L32 33L31 33L31 34L32 34L32 36L36 36L36 35L35 35L35 33L36 33L36 32L35 32L35 31ZM8 32L8 37L12 37L12 35L13 35L13 34L10 34L10 32ZM34 32L34 33L35 33L35 32ZM33 34L33 35L34 35L34 34ZM0 0L0 7L7 7L7 0ZM1 1L1 6L6 6L6 1ZM2 2L2 5L5 5L5 2ZM30 0L30 7L37 7L37 0ZM31 1L31 6L36 6L36 1ZM32 2L32 5L35 5L35 2ZM0 30L0 37L7 37L7 30ZM1 31L1 36L6 36L6 31ZM2 32L2 35L5 35L5 32Z" fill="#000000"/></g></g></svg>
