<?xml version="1.0" encoding="UTF-8"?>
<svg xmlns="http://www.w3.org/2000/svg" version="1.1" width="120" height="120" viewBox="0 0 120 120"><rect x="0" y="0" width="120" height="120" fill="#ffffff"/><g transform="scale(3.243)"><g transform="translate(0,0)"><path fill-rule="evenodd" d="M9 0L9 1L8 1L8 2L9 2L9 3L8 3L8 4L10 4L10 7L11 7L11 4L12 4L12 5L13 5L13 6L12 6L12 9L13 9L13 8L14 8L14 9L19 9L19 10L20 10L20 11L21 11L21 12L20 12L20 13L19 13L19 12L16 12L16 10L15 10L15 11L14 11L14 12L15 12L15 13L12 13L12 11L13 11L13 10L10 10L10 9L11 9L11 8L6 8L6 9L5 9L5 8L0 8L0 10L1 10L1 9L2 9L2 10L3 10L3 12L4 12L4 13L1 13L1 12L0 12L0 15L1 15L1 14L2 14L2 15L3 15L3 16L1 16L1 18L3 18L3 19L2 19L2 20L1 20L1 19L0 19L0 21L1 21L1 23L0 23L0 24L2 24L2 25L0 25L0 29L1 29L1 26L2 26L2 29L4 29L4 27L7 27L7 28L5 28L5 29L7 29L7 28L8 28L8 31L11 31L11 29L12 29L12 30L13 30L13 31L12 31L12 33L13 33L13 32L14 32L14 33L17 33L17 34L18 34L18 33L19 33L19 34L20 34L20 35L21 35L21 36L22 36L22 37L23 37L23 36L25 36L25 37L27 37L27 36L29 36L29 34L31 34L31 35L30 35L30 36L32 36L32 37L37 37L37 30L34 30L34 29L35 29L35 28L34 28L34 29L33 29L33 28L32 28L32 27L33 27L33 26L32 26L32 25L35 25L35 27L36 27L36 28L37 28L37 26L36 26L36 25L37 25L37 22L36 22L36 21L37 21L37 18L36 18L36 17L37 17L37 14L36 14L36 13L37 13L37 12L36 12L36 11L37 11L37 10L36 10L36 8L35 8L35 9L34 9L34 8L33 8L33 12L32 12L32 11L31 11L31 12L30 12L30 10L27 10L27 11L26 11L26 12L25 12L25 13L21 13L21 12L22 12L22 10L26 10L26 9L27 9L27 6L28 6L28 8L29 8L29 9L30 9L30 8L29 8L29 4L28 4L28 3L29 3L29 0L28 0L28 1L27 1L27 0L26 0L26 1L27 1L27 2L26 2L26 3L25 3L25 0L21 0L21 3L20 3L20 4L19 4L19 1L20 1L20 0L19 0L19 1L18 1L18 3L17 3L17 2L16 2L16 3L17 3L17 4L19 4L19 5L20 5L20 7L19 7L19 6L18 6L18 5L17 5L17 6L16 6L16 4L12 4L12 2L13 2L13 1L11 1L11 2L10 2L10 0ZM15 0L15 1L17 1L17 0ZM23 1L23 2L22 2L22 3L21 3L21 4L20 4L20 5L21 5L21 7L20 7L20 8L19 8L19 7L18 7L18 6L17 6L17 7L16 7L16 6L15 6L15 7L14 7L14 6L13 6L13 7L14 7L14 8L15 8L15 7L16 7L16 8L19 8L19 9L20 9L20 10L22 10L22 9L25 9L25 8L26 8L26 4L25 4L25 3L24 3L24 1ZM14 2L14 3L15 3L15 2ZM10 3L10 4L11 4L11 3ZM23 3L23 4L21 4L21 5L25 5L25 4L24 4L24 3ZM27 4L27 5L28 5L28 4ZM8 5L8 7L9 7L9 5ZM22 6L22 7L21 7L21 8L20 8L20 9L21 9L21 8L22 8L22 7L23 7L23 8L25 8L25 6L24 6L24 7L23 7L23 6ZM31 8L31 10L32 10L32 8ZM4 9L4 10L5 10L5 13L4 13L4 14L3 14L3 15L4 15L4 16L3 16L3 18L5 18L5 19L4 19L4 20L3 20L3 22L2 22L2 23L3 23L3 25L2 25L2 26L3 26L3 27L4 27L4 26L3 26L3 25L5 25L5 26L13 26L13 27L12 27L12 29L15 29L15 30L17 30L17 31L16 31L16 32L19 32L19 33L22 33L22 32L20 32L20 30L21 30L21 29L22 29L22 30L23 30L23 33L24 33L24 34L21 34L21 35L22 35L22 36L23 36L23 35L24 35L24 34L25 34L25 32L26 32L26 33L27 33L27 32L28 32L28 30L27 30L27 31L26 31L26 29L24 29L24 28L23 28L23 29L22 29L22 28L21 28L21 29L20 29L20 30L19 30L19 31L18 31L18 30L17 30L17 29L15 29L15 28L18 28L18 29L19 29L19 28L20 28L20 26L21 26L21 27L25 27L25 28L27 28L27 27L25 27L25 26L21 26L21 25L22 25L22 24L24 24L24 25L25 25L25 24L26 24L26 22L28 22L28 23L27 23L27 25L26 25L26 26L29 26L29 27L28 27L28 28L29 28L29 27L30 27L30 28L31 28L31 27L32 27L32 26L31 26L31 25L32 25L32 23L33 23L33 24L36 24L36 23L34 23L34 22L35 22L35 21L34 21L34 22L33 22L33 21L32 21L32 20L36 20L36 19L34 19L34 17L32 17L32 16L33 16L33 15L34 15L34 16L35 16L35 17L36 17L36 15L34 15L34 13L32 13L32 12L31 12L31 13L30 13L30 12L27 12L27 14L26 14L26 13L25 13L25 16L24 16L24 14L23 14L23 16L21 16L21 13L20 13L20 14L18 14L18 13L15 13L15 14L16 14L16 15L14 15L14 16L13 16L13 17L12 17L12 15L13 15L13 14L12 14L12 13L11 13L11 14L10 14L10 15L11 15L11 16L10 16L10 17L9 17L9 16L8 16L8 17L9 17L9 18L10 18L10 19L11 19L11 18L13 18L13 19L12 19L12 21L11 21L11 20L10 20L10 21L9 21L9 20L7 20L7 19L8 19L8 18L7 18L7 17L6 17L6 18L5 18L5 15L6 15L6 16L7 16L7 15L9 15L9 12L7 12L7 11L8 11L8 9L6 9L6 10L5 10L5 9ZM6 10L6 11L7 11L7 10ZM17 10L17 11L18 11L18 10ZM35 10L35 11L34 11L34 12L35 12L35 13L36 13L36 12L35 12L35 11L36 11L36 10ZM6 12L6 13L7 13L7 12ZM28 13L28 14L27 14L27 15L28 15L28 16L29 16L29 17L28 17L28 18L26 18L26 17L27 17L27 16L25 16L25 17L21 17L21 16L20 16L20 17L19 17L19 18L18 18L18 20L17 20L17 18L15 18L15 19L14 19L14 20L17 20L17 21L18 21L18 22L20 22L20 23L21 23L21 24L20 24L20 25L19 25L19 26L17 26L17 27L19 27L19 26L20 26L20 25L21 25L21 24L22 24L22 23L23 23L23 22L25 22L25 21L28 21L28 22L29 22L29 21L31 21L31 23L28 23L28 24L29 24L29 25L31 25L31 23L32 23L32 21L31 21L31 20L30 20L30 19L33 19L33 18L32 18L32 17L31 17L31 16L29 16L29 15L30 15L30 14L29 14L29 13ZM31 13L31 15L32 15L32 13ZM6 14L6 15L7 15L7 14ZM17 14L17 15L18 15L18 16L14 16L14 17L18 17L18 16L19 16L19 15L18 15L18 14ZM10 17L10 18L11 18L11 17ZM20 17L20 18L19 18L19 20L18 20L18 21L20 21L20 22L21 22L21 23L22 23L22 22L23 22L23 21L25 21L25 20L26 20L26 18L25 18L25 20L23 20L23 19L24 19L24 18L21 18L21 17ZM29 17L29 19L27 19L27 20L28 20L28 21L29 21L29 19L30 19L30 18L31 18L31 17ZM6 18L6 19L7 19L7 18ZM21 19L21 20L20 20L20 21L21 21L21 22L22 22L22 21L21 21L21 20L22 20L22 19ZM4 20L4 21L7 21L7 20ZM8 21L8 24L6 24L6 23L7 23L7 22L6 22L6 23L4 23L4 24L5 24L5 25L11 25L11 21L10 21L10 22L9 22L9 21ZM12 21L12 22L13 22L13 23L12 23L12 25L13 25L13 24L14 24L14 25L15 25L15 24L16 24L16 25L18 25L18 24L19 24L19 23L18 23L18 24L16 24L16 22L15 22L15 21ZM14 23L14 24L15 24L15 23ZM15 26L15 27L14 27L14 28L15 28L15 27L16 27L16 26ZM30 26L30 27L31 27L31 26ZM8 27L8 28L10 28L10 27ZM9 29L9 30L10 30L10 29ZM23 29L23 30L24 30L24 29ZM29 29L29 32L32 32L32 29ZM30 30L30 31L31 31L31 30ZM14 31L14 32L15 32L15 31ZM33 31L33 34L32 34L32 33L31 33L31 34L32 34L32 36L36 36L36 35L35 35L35 33L34 33L34 32L35 32L35 31ZM8 32L8 37L10 37L10 35L11 35L11 37L12 37L12 35L13 35L13 34L10 34L10 35L9 35L9 33L10 33L10 32ZM28 33L28 34L27 34L27 35L28 35L28 34L29 34L29 33ZM15 34L15 35L14 35L14 36L15 36L15 37L20 37L20 36L16 36L16 34ZM33 34L33 35L34 35L34 34ZM25 35L25 36L26 36L26 35ZM0 0L0 7L7 7L7 0ZM1 1L1 6L6 6L6 1ZM2 2L2 5L5 5L5 2ZM30 0L30 7L37 7L37 0ZM31 1L31 6L36 6L36 1ZM32 2L32 5L35 5L35 2ZM0 30L0 37L7 37L7 30ZM1 31L1 36L6 36L6 31ZM2 32L2 35L5 35L5 32Z" fill="#000000"/></g></g></svg>
