<?xml version="1.0" encoding="UTF-8"?>
<svg xmlns="http://www.w3.org/2000/svg" version="1.1" width="120" height="120" viewBox="0 0 120 120"><rect x="0" y="0" width="120" height="120" fill="#ffffff"/><g transform="scale(3.243)"><g transform="translate(0,0)"><path fill-rule="evenodd" d="M10 0L10 2L11 2L11 0ZM12 0L12 1L13 1L13 2L12 2L12 4L13 4L13 3L14 3L14 4L15 4L15 5L17 5L17 6L16 6L16 8L17 8L17 9L19 9L19 10L20 10L20 11L21 11L21 12L20 12L20 13L19 13L19 12L16 12L16 9L12 9L12 7L13 7L13 5L11 5L11 6L10 6L10 4L11 4L11 3L8 3L8 4L9 4L9 5L8 5L8 7L9 7L9 8L6 8L6 9L10 9L10 11L9 11L9 10L6 10L6 11L5 11L5 12L4 12L4 11L3 11L3 10L5 10L5 8L0 8L0 11L3 11L3 12L4 12L4 13L3 13L3 14L2 14L2 13L0 13L0 15L1 15L1 16L0 16L0 17L2 17L2 18L3 18L3 19L1 19L1 18L0 18L0 20L3 20L3 21L0 21L0 22L4 22L4 24L5 24L5 25L7 25L7 26L6 26L6 27L7 27L7 26L8 26L8 28L6 28L6 29L8 29L8 31L9 31L9 32L8 32L8 37L11 37L11 35L10 35L10 34L9 34L9 33L10 33L10 32L11 32L11 33L12 33L12 34L13 34L13 35L12 35L12 37L13 37L13 36L14 36L14 37L20 37L20 36L16 36L16 34L15 34L15 33L17 33L17 34L18 34L18 33L19 33L19 34L20 34L20 35L21 35L21 36L22 36L22 37L23 37L23 36L25 36L25 37L27 37L27 36L29 36L29 34L31 34L31 35L30 35L30 36L32 36L32 37L37 37L37 30L34 30L34 29L35 29L35 28L34 28L34 29L33 29L33 28L32 28L32 27L33 27L33 26L32 26L32 25L35 25L35 27L36 27L36 28L37 28L37 26L36 26L36 25L37 25L37 22L36 22L36 21L37 21L37 18L36 18L36 17L37 17L37 14L36 14L36 13L37 13L37 12L36 12L36 11L37 11L37 10L36 10L36 8L35 8L35 9L34 9L34 8L33 8L33 12L32 12L32 11L31 11L31 12L30 12L30 10L27 10L27 11L26 11L26 12L25 12L25 13L21 13L21 12L22 12L22 10L26 10L26 9L27 9L27 6L28 6L28 8L29 8L29 9L30 9L30 8L29 8L29 4L28 4L28 3L29 3L29 0L28 0L28 1L27 1L27 0L26 0L26 1L27 1L27 2L26 2L26 3L25 3L25 0L21 0L21 3L20 3L20 4L19 4L19 1L20 1L20 0L19 0L19 1L18 1L18 3L17 3L17 4L16 4L16 2L17 2L17 1L16 1L16 0ZM8 1L8 2L9 2L9 1ZM23 1L23 2L22 2L22 3L21 3L21 4L20 4L20 5L19 5L19 4L17 4L17 5L18 5L18 6L17 6L17 8L19 8L19 9L20 9L20 10L22 10L22 9L25 9L25 8L26 8L26 4L25 4L25 3L24 3L24 1ZM14 2L14 3L15 3L15 2ZM23 3L23 4L21 4L21 5L20 5L20 7L19 7L19 6L18 6L18 7L19 7L19 8L20 8L20 9L21 9L21 8L22 8L22 7L23 7L23 8L25 8L25 6L24 6L24 7L23 7L23 6L22 6L22 7L21 7L21 5L25 5L25 4L24 4L24 3ZM27 4L27 5L28 5L28 4ZM9 6L9 7L10 7L10 6ZM11 6L11 7L12 7L12 6ZM14 6L14 8L15 8L15 6ZM20 7L20 8L21 8L21 7ZM10 8L10 9L11 9L11 11L10 11L10 12L9 12L9 11L8 11L8 12L9 12L9 15L6 15L6 14L8 14L8 13L4 13L4 14L3 14L3 16L2 16L2 17L3 17L3 18L4 18L4 17L3 17L3 16L4 16L4 15L6 15L6 16L5 16L5 17L6 17L6 18L5 18L5 20L4 20L4 19L3 19L3 20L4 20L4 21L5 21L5 22L7 22L7 23L5 23L5 24L7 24L7 25L9 25L9 24L8 24L8 23L9 23L9 22L8 22L8 21L9 21L9 20L7 20L7 19L6 19L6 18L11 18L11 20L10 20L10 23L11 23L11 22L13 22L13 23L12 23L12 25L11 25L11 27L10 27L10 28L11 28L11 30L13 30L13 31L12 31L12 33L15 33L15 32L14 32L14 31L15 31L15 30L17 30L17 31L16 31L16 32L19 32L19 33L22 33L22 32L20 32L20 30L21 30L21 29L22 29L22 30L23 30L23 33L24 33L24 34L21 34L21 35L22 35L22 36L23 36L23 35L24 35L24 34L25 34L25 32L26 32L26 33L27 33L27 32L28 32L28 30L27 30L27 31L26 31L26 29L24 29L24 28L23 28L23 29L22 29L22 28L21 28L21 29L20 29L20 30L19 30L19 31L18 31L18 30L17 30L17 29L14 29L14 28L18 28L18 29L19 29L19 28L20 28L20 26L21 26L21 27L25 27L25 28L27 28L27 27L25 27L25 26L21 26L21 25L22 25L22 24L24 24L24 25L25 25L25 24L26 24L26 22L28 22L28 23L27 23L27 25L26 25L26 26L29 26L29 27L28 27L28 28L29 28L29 27L30 27L30 28L31 28L31 27L32 27L32 26L31 26L31 25L32 25L32 23L33 23L33 24L36 24L36 23L34 23L34 22L35 22L35 21L34 21L34 22L33 22L33 21L32 21L32 20L36 20L36 19L34 19L34 17L32 17L32 16L33 16L33 15L34 15L34 16L35 16L35 17L36 17L36 15L34 15L34 13L32 13L32 12L31 12L31 13L30 13L30 12L27 12L27 14L26 14L26 13L25 13L25 16L24 16L24 14L23 14L23 16L21 16L21 13L20 13L20 14L18 14L18 13L14 13L14 12L15 12L15 11L14 11L14 12L13 12L13 13L12 13L12 11L13 11L13 10L12 10L12 9L11 9L11 8ZM31 8L31 10L32 10L32 8ZM1 9L1 10L3 10L3 9ZM17 10L17 11L18 11L18 10ZM35 10L35 11L34 11L34 12L35 12L35 13L36 13L36 12L35 12L35 11L36 11L36 10ZM6 11L6 12L7 12L7 11ZM10 12L10 13L11 13L11 12ZM28 13L28 14L27 14L27 15L28 15L28 16L29 16L29 17L28 17L28 18L26 18L26 17L27 17L27 16L25 16L25 17L21 17L21 16L20 16L20 17L19 17L19 18L18 18L18 20L17 20L17 18L15 18L15 17L18 17L18 16L19 16L19 15L18 15L18 14L17 14L17 15L18 15L18 16L15 16L15 15L16 15L16 14L15 14L15 15L14 15L14 16L15 16L15 17L12 17L12 15L13 15L13 14L10 14L10 16L9 16L9 17L12 17L12 18L13 18L13 19L12 19L12 21L13 21L13 20L14 20L14 21L15 21L15 20L17 20L17 21L18 21L18 22L20 22L20 23L21 23L21 24L20 24L20 25L19 25L19 26L17 26L17 27L19 27L19 26L20 26L20 25L21 25L21 24L22 24L22 23L23 23L23 22L25 22L25 21L28 21L28 22L29 22L29 21L31 21L31 23L28 23L28 24L29 24L29 25L31 25L31 23L32 23L32 21L31 21L31 20L30 20L30 19L33 19L33 18L32 18L32 17L31 17L31 16L29 16L29 15L30 15L30 14L29 14L29 13ZM31 13L31 15L32 15L32 13ZM1 14L1 15L2 15L2 14ZM6 16L6 17L8 17L8 16ZM20 17L20 18L19 18L19 20L18 20L18 21L20 21L20 22L21 22L21 23L22 23L22 22L23 22L23 21L25 21L25 20L26 20L26 18L25 18L25 20L23 20L23 19L24 19L24 18L21 18L21 17ZM29 17L29 19L27 19L27 20L28 20L28 21L29 21L29 19L30 19L30 18L31 18L31 17ZM14 19L14 20L15 20L15 19ZM21 19L21 20L20 20L20 21L21 21L21 22L22 22L22 21L21 21L21 20L22 20L22 19ZM5 20L5 21L7 21L7 20ZM15 22L15 23L14 23L14 24L16 24L16 25L18 25L18 24L19 24L19 23L18 23L18 24L16 24L16 22ZM0 23L0 24L1 24L1 23ZM2 24L2 25L3 25L3 24ZM0 25L0 29L1 29L1 25ZM12 25L12 26L13 26L13 27L12 27L12 29L13 29L13 28L14 28L14 27L16 27L16 26L15 26L15 25ZM30 26L30 27L31 27L31 26ZM4 27L4 29L5 29L5 27ZM2 28L2 29L3 29L3 28ZM9 29L9 31L10 31L10 29ZM23 29L23 30L24 30L24 29ZM29 29L29 32L32 32L32 29ZM30 30L30 31L31 31L31 30ZM33 31L33 34L32 34L32 33L31 33L31 34L32 34L32 36L36 36L36 35L35 35L35 33L34 33L34 32L36 32L36 31ZM28 33L28 34L27 34L27 35L28 35L28 34L29 34L29 33ZM33 34L33 35L34 35L34 34ZM9 35L9 36L10 36L10 35ZM14 35L14 36L15 36L15 35ZM25 35L25 36L26 36L26 35ZM0 0L0 7L7 7L7 0ZM1 1L1 6L6 6L6 1ZM2 2L2 5L5 5L5 2ZM30 0L30 7L37 7L37 0ZM31 1L31 6L36 6L36 1ZM32 2L32 5L35 5L35 2ZM0 30L0 37L7 37L7 30ZM1 31L1 36L6 36L6 31ZM2 32L2 35L5 35L5 32Z" fill="#000000"/></g></g></svg>
