<?xml version="1.0" encoding="UTF-8"?>
<svg xmlns="http://www.w3.org/2000/svg" version="1.1" width="120" height="120" viewBox="0 0 120 120"><rect x="0" y="0" width="120" height="120" fill="#ffffff"/><g transform="scale(3.243)"><g transform="translate(0,0)"><path fill-rule="evenodd" d="M10 0L10 2L11 2L11 0ZM12 0L12 1L13 1L13 0ZM14 0L14 1L15 1L15 4L14 4L14 3L13 3L13 2L12 2L12 4L14 4L14 5L15 5L15 6L14 6L14 8L15 8L15 10L14 10L14 9L12 9L12 7L13 7L13 5L11 5L11 6L10 6L10 4L11 4L11 3L8 3L8 4L9 4L9 5L8 5L8 7L9 7L9 8L6 8L6 9L5 9L5 8L0 8L0 12L5 12L5 13L4 13L4 14L3 14L3 15L2 15L2 13L1 13L1 14L0 14L0 15L2 15L2 16L3 16L3 15L4 15L4 14L5 14L5 16L6 16L6 17L7 17L7 18L6 18L6 19L5 19L5 20L4 20L4 21L3 21L3 20L2 20L2 19L4 19L4 18L0 18L0 20L2 20L2 24L1 24L1 21L0 21L0 29L1 29L1 26L2 26L2 27L3 27L3 28L2 28L2 29L5 29L5 28L4 28L4 27L7 27L7 28L6 28L6 29L8 29L8 31L11 31L11 33L9 33L9 32L8 32L8 37L9 37L9 34L10 34L10 35L11 35L11 33L12 33L12 34L13 34L13 35L12 35L12 37L13 37L13 36L14 36L14 37L19 37L19 36L14 36L14 35L18 35L18 34L15 34L15 33L19 33L19 34L23 34L23 30L24 30L24 29L23 29L23 27L18 27L18 28L17 28L17 26L15 26L15 25L19 25L19 26L22 26L22 25L23 25L23 26L24 26L24 25L23 25L23 24L22 24L22 23L23 23L23 22L24 22L24 21L28 21L28 22L25 22L25 23L28 23L28 22L29 22L29 24L25 24L25 26L26 26L26 25L28 25L28 26L27 26L27 27L26 27L26 28L25 28L25 27L24 27L24 28L25 28L25 29L27 29L27 30L28 30L28 32L27 32L27 31L26 31L26 30L25 30L25 31L26 31L26 32L24 32L24 33L28 33L28 34L27 34L27 35L26 35L26 36L25 36L25 34L24 34L24 35L23 35L23 36L22 36L22 35L20 35L20 37L21 37L21 36L22 36L22 37L23 37L23 36L25 36L25 37L27 37L27 36L29 36L29 37L31 37L31 36L32 36L32 37L37 37L37 33L35 33L35 32L34 32L34 33L35 33L35 35L36 35L36 36L32 36L32 34L33 34L33 35L34 35L34 34L33 34L33 31L36 31L36 32L37 32L37 30L34 30L34 29L35 29L35 28L34 28L34 29L33 29L33 28L32 28L32 27L33 27L33 26L32 26L32 25L35 25L35 27L36 27L36 28L37 28L37 26L36 26L36 25L37 25L37 22L36 22L36 21L37 21L37 18L36 18L36 17L37 17L37 14L36 14L36 13L37 13L37 12L36 12L36 11L37 11L37 10L36 10L36 8L35 8L35 9L34 9L34 8L33 8L33 12L32 12L32 11L31 11L31 12L30 12L30 10L29 10L29 9L30 9L30 8L29 8L29 4L28 4L28 5L27 5L27 3L29 3L29 1L26 1L26 0L25 0L25 2L23 2L23 1L24 1L24 0L23 0L23 1L22 1L22 0L20 0L20 3L19 3L19 4L18 4L18 5L20 5L20 7L19 7L19 6L18 6L18 7L19 7L19 8L17 8L17 9L16 9L16 8L15 8L15 6L16 6L16 7L17 7L17 5L15 5L15 4L17 4L17 3L16 3L16 1L15 1L15 0ZM18 0L18 1L17 1L17 2L19 2L19 0ZM8 1L8 2L9 2L9 1ZM25 2L25 3L23 3L23 4L24 4L24 5L21 5L21 4L22 4L22 3L21 3L21 4L20 4L20 5L21 5L21 7L22 7L22 8L20 8L20 9L21 9L21 10L16 10L16 11L17 11L17 13L22 13L22 14L23 14L23 16L21 16L21 15L20 15L20 14L16 14L16 16L17 16L17 17L15 17L15 16L14 16L14 15L15 15L15 13L14 13L14 12L15 12L15 11L14 11L14 12L13 12L13 13L12 13L12 11L13 11L13 10L12 10L12 9L11 9L11 8L10 8L10 9L11 9L11 10L8 10L8 9L6 9L6 10L5 10L5 9L4 9L4 10L1 10L1 11L4 11L4 10L5 10L5 12L7 12L7 13L5 13L5 14L7 14L7 15L6 15L6 16L7 16L7 15L9 15L9 16L11 16L11 14L13 14L13 15L12 15L12 17L11 17L11 18L10 18L10 17L8 17L8 18L9 18L9 19L6 19L6 20L7 20L7 21L5 21L5 22L4 22L4 23L3 23L3 24L2 24L2 26L3 26L3 27L4 27L4 26L3 26L3 24L4 24L4 25L5 25L5 26L7 26L7 27L8 27L8 26L9 26L9 24L10 24L10 23L11 23L11 22L13 22L13 23L12 23L12 25L10 25L10 29L11 29L11 30L13 30L13 31L12 31L12 33L15 33L15 32L14 32L14 31L15 31L15 30L17 30L17 31L16 31L16 32L18 32L18 30L19 30L19 32L20 32L20 33L22 33L22 32L21 32L21 31L20 31L20 30L19 30L19 29L22 29L22 30L23 30L23 29L22 29L22 28L19 28L19 29L17 29L17 28L15 28L15 27L14 27L14 28L13 28L13 29L12 29L12 27L13 27L13 26L12 26L12 25L15 25L15 24L14 24L14 23L15 23L15 22L19 22L19 24L20 24L20 25L22 25L22 24L21 24L21 23L22 23L22 22L23 22L23 20L24 20L24 19L25 19L25 20L26 20L26 19L27 19L27 18L28 18L28 20L29 20L29 19L30 19L30 20L31 20L31 21L29 21L29 22L31 22L31 21L32 21L32 23L31 23L31 25L30 25L30 26L29 26L29 28L31 28L31 27L32 27L32 26L31 26L31 25L32 25L32 23L33 23L33 24L36 24L36 23L34 23L34 22L35 22L35 21L34 21L34 22L33 22L33 21L32 21L32 20L36 20L36 19L34 19L34 17L32 17L32 16L33 16L33 15L34 15L34 16L35 16L35 17L36 17L36 15L34 15L34 13L32 13L32 12L31 12L31 13L30 13L30 12L29 12L29 11L27 11L27 12L28 12L28 13L27 13L27 14L26 14L26 13L24 13L24 14L23 14L23 13L22 13L22 12L20 12L20 11L21 11L21 10L22 10L22 11L24 11L24 12L26 12L26 10L28 10L28 9L29 9L29 8L28 8L28 6L27 6L27 7L26 7L26 6L25 6L25 5L26 5L26 4L25 4L25 3L26 3L26 2ZM9 6L9 7L10 7L10 6ZM11 6L11 7L12 7L12 6ZM22 6L22 7L23 7L23 8L22 8L22 9L23 9L23 10L25 10L25 9L27 9L27 8L25 8L25 9L24 9L24 7L25 7L25 6L24 6L24 7L23 7L23 6ZM31 8L31 10L32 10L32 8ZM6 10L6 11L8 11L8 13L7 13L7 14L11 14L11 13L10 13L10 12L9 12L9 11L8 11L8 10ZM35 10L35 11L34 11L34 12L35 12L35 13L36 13L36 12L35 12L35 11L36 11L36 10ZM28 13L28 14L27 14L27 15L28 15L28 16L29 16L29 17L31 17L31 18L30 18L30 19L33 19L33 18L32 18L32 17L31 17L31 16L29 16L29 15L30 15L30 14L29 14L29 13ZM31 13L31 15L32 15L32 13ZM24 14L24 16L25 16L25 18L26 18L26 17L27 17L27 16L25 16L25 15L26 15L26 14ZM28 14L28 15L29 15L29 14ZM0 16L0 17L1 17L1 16ZM12 17L12 18L13 18L13 19L12 19L12 21L13 21L13 20L14 20L14 21L19 21L19 22L20 22L20 23L21 23L21 22L22 22L22 21L19 21L19 20L20 20L20 19L21 19L21 20L23 20L23 18L24 18L24 17L22 17L22 18L21 18L21 17L18 17L18 18L17 18L17 19L19 19L19 20L16 20L16 18L15 18L15 17ZM19 18L19 19L20 19L20 18ZM10 19L10 21L9 21L9 22L8 22L8 21L7 21L7 22L6 22L6 23L5 23L5 25L7 25L7 26L8 26L8 25L7 25L7 24L6 24L6 23L7 23L7 22L8 22L8 23L10 23L10 22L11 22L11 19ZM14 19L14 20L15 20L15 19ZM16 23L16 24L18 24L18 23ZM30 26L30 27L31 27L31 26ZM27 27L27 29L28 29L28 27ZM8 28L8 29L9 29L9 28ZM14 28L14 29L15 29L15 28ZM29 29L29 32L32 32L32 29ZM30 30L30 31L31 31L31 30ZM31 33L31 34L28 34L28 35L29 35L29 36L31 36L31 34L32 34L32 33ZM10 36L10 37L11 37L11 36ZM0 0L0 7L7 7L7 0ZM1 1L1 6L6 6L6 1ZM2 2L2 5L5 5L5 2ZM30 0L30 7L37 7L37 0ZM31 1L31 6L36 6L36 1ZM32 2L32 5L35 5L35 2ZM0 30L0 37L7 37L7 30ZM1 31L1 36L6 36L6 31ZM2 32L2 35L5 35L5 32Z" fill="#000000"/></g></g></svg>
