<?xml version="1.0" encoding="UTF-8"?>
<svg xmlns="http://www.w3.org/2000/svg" version="1.1" width="120" height="120" viewBox="0 0 120 120"><rect x="0" y="0" width="120" height="120" fill="#ffffff"/><g transform="scale(3.243)"><g transform="translate(0,0)"><path fill-rule="evenodd" d="M9 0L9 1L8 1L8 2L9 2L9 3L8 3L8 4L10 4L10 7L11 7L11 4L12 4L12 5L13 5L13 4L14 4L14 5L15 5L15 6L14 6L14 7L15 7L15 8L17 8L17 9L14 9L14 8L13 8L13 6L12 6L12 9L14 9L14 10L15 10L15 11L14 11L14 12L15 12L15 14L14 14L14 13L12 13L12 11L13 11L13 10L10 10L10 9L11 9L11 8L6 8L6 9L5 9L5 8L0 8L0 9L1 9L1 10L0 10L0 11L1 11L1 12L0 12L0 14L1 14L1 13L2 13L2 18L1 18L1 19L0 19L0 23L1 23L1 24L0 24L0 29L1 29L1 26L3 26L3 28L2 28L2 29L3 29L3 28L4 28L4 29L5 29L5 28L4 28L4 27L7 27L7 28L6 28L6 29L8 29L8 31L9 31L9 29L10 29L10 32L8 32L8 37L10 37L10 36L11 36L11 37L12 37L12 35L13 35L13 34L11 34L11 33L10 33L10 32L11 32L11 29L12 29L12 30L13 30L13 31L12 31L12 33L13 33L13 32L14 32L14 33L19 33L19 34L23 34L23 30L24 30L24 29L23 29L23 27L18 27L18 28L17 28L17 26L15 26L15 27L14 27L14 28L17 28L17 29L19 29L19 30L18 30L18 32L16 32L16 31L17 31L17 30L15 30L15 29L12 29L12 27L13 27L13 26L9 26L9 27L11 27L11 28L8 28L8 27L7 27L7 26L3 26L3 25L2 25L2 24L4 24L4 25L7 25L7 24L8 24L8 25L10 25L10 24L9 24L9 22L10 22L10 23L11 23L11 21L12 21L12 22L13 22L13 23L12 23L12 25L13 25L13 24L14 24L14 25L19 25L19 26L22 26L22 25L23 25L23 26L24 26L24 25L23 25L23 24L22 24L22 23L23 23L23 22L24 22L24 21L28 21L28 22L25 22L25 23L28 23L28 22L29 22L29 24L25 24L25 26L26 26L26 25L28 25L28 26L27 26L27 27L26 27L26 28L25 28L25 27L24 27L24 28L25 28L25 29L27 29L27 30L28 30L28 32L27 32L27 31L26 31L26 30L25 30L25 31L26 31L26 32L24 32L24 33L28 33L28 34L27 34L27 35L26 35L26 36L25 36L25 34L24 34L24 35L23 35L23 36L22 36L22 35L20 35L20 37L21 37L21 36L22 36L22 37L23 37L23 36L25 36L25 37L27 37L27 36L29 36L29 37L31 37L31 36L32 36L32 37L37 37L37 33L35 33L35 32L37 32L37 30L34 30L34 29L35 29L35 28L34 28L34 29L33 29L33 28L32 28L32 27L33 27L33 26L32 26L32 25L35 25L35 27L36 27L36 28L37 28L37 26L36 26L36 25L37 25L37 22L36 22L36 21L37 21L37 18L36 18L36 17L37 17L37 14L36 14L36 13L37 13L37 12L36 12L36 11L37 11L37 10L36 10L36 8L35 8L35 9L34 9L34 8L33 8L33 12L32 12L32 11L31 11L31 12L30 12L30 10L29 10L29 9L30 9L30 8L29 8L29 4L28 4L28 5L27 5L27 3L29 3L29 1L26 1L26 0L25 0L25 2L23 2L23 1L24 1L24 0L23 0L23 1L22 1L22 0L20 0L20 3L19 3L19 4L18 4L18 5L20 5L20 7L19 7L19 6L18 6L18 7L19 7L19 8L17 8L17 2L19 2L19 0L18 0L18 1L17 1L17 2L16 2L16 1L15 1L15 0L14 0L14 1L15 1L15 4L14 4L14 3L13 3L13 4L12 4L12 2L13 2L13 1L11 1L11 2L10 2L10 0ZM25 2L25 3L23 3L23 4L24 4L24 5L21 5L21 4L22 4L22 3L21 3L21 4L20 4L20 5L21 5L21 7L22 7L22 8L20 8L20 9L21 9L21 10L17 10L17 12L16 12L16 13L22 13L22 14L23 14L23 16L21 16L21 15L20 15L20 14L16 14L16 16L17 16L17 17L14 17L14 16L15 16L15 15L14 15L14 16L13 16L13 17L12 17L12 15L13 15L13 14L12 14L12 13L11 13L11 11L10 11L10 14L9 14L9 17L8 17L8 18L9 18L9 19L10 19L10 20L8 20L8 19L6 19L6 18L7 18L7 17L6 17L6 18L5 18L5 14L3 14L3 15L4 15L4 18L3 18L3 20L2 20L2 21L6 21L6 22L5 22L5 24L7 24L7 23L8 23L8 22L9 22L9 21L10 21L10 20L11 20L11 19L10 19L10 18L13 18L13 19L12 19L12 21L15 21L15 22L19 22L19 24L20 24L20 25L22 25L22 24L21 24L21 23L22 23L22 22L23 22L23 20L24 20L24 19L25 19L25 20L26 20L26 19L27 19L27 18L28 18L28 20L29 20L29 19L30 19L30 20L31 20L31 21L29 21L29 22L31 22L31 21L32 21L32 23L31 23L31 25L30 25L30 26L29 26L29 28L31 28L31 27L32 27L32 26L31 26L31 25L32 25L32 23L33 23L33 24L36 24L36 23L34 23L34 22L35 22L35 21L34 21L34 22L33 22L33 21L32 21L32 20L36 20L36 19L34 19L34 17L32 17L32 16L33 16L33 15L34 15L34 16L35 16L35 17L36 17L36 15L34 15L34 13L32 13L32 12L31 12L31 13L30 13L30 12L29 12L29 11L27 11L27 12L28 12L28 13L27 13L27 14L26 14L26 13L24 13L24 14L23 14L23 13L22 13L22 12L20 12L20 11L21 11L21 10L22 10L22 11L24 11L24 12L26 12L26 10L28 10L28 9L29 9L29 8L28 8L28 6L27 6L27 7L26 7L26 6L25 6L25 5L26 5L26 4L25 4L25 3L26 3L26 2ZM10 3L10 4L11 4L11 3ZM8 5L8 7L9 7L9 5ZM15 6L15 7L16 7L16 6ZM22 6L22 7L23 7L23 8L22 8L22 9L23 9L23 10L25 10L25 9L27 9L27 8L25 8L25 9L24 9L24 7L25 7L25 6L24 6L24 7L23 7L23 6ZM31 8L31 10L32 10L32 8ZM2 9L2 10L3 10L3 9ZM4 9L4 11L2 11L2 13L3 13L3 12L7 12L7 13L6 13L6 14L7 14L7 15L6 15L6 16L8 16L8 11L9 11L9 9L8 9L8 10L7 10L7 9L6 9L6 10L5 10L5 9ZM6 10L6 11L7 11L7 10ZM35 10L35 11L34 11L34 12L35 12L35 13L36 13L36 12L35 12L35 11L36 11L36 10ZM28 13L28 14L27 14L27 15L28 15L28 16L29 16L29 17L31 17L31 18L30 18L30 19L33 19L33 18L32 18L32 17L31 17L31 16L29 16L29 15L30 15L30 14L29 14L29 13ZM31 13L31 15L32 15L32 13ZM10 14L10 15L11 15L11 14ZM24 14L24 16L25 16L25 18L26 18L26 17L27 17L27 16L25 16L25 15L26 15L26 14ZM28 14L28 15L29 15L29 14ZM0 15L0 17L1 17L1 15ZM18 15L18 16L19 16L19 15ZM10 16L10 17L9 17L9 18L10 18L10 17L11 17L11 16ZM18 17L18 19L19 19L19 20L16 20L16 18L15 18L15 19L14 19L14 20L15 20L15 21L19 21L19 22L20 22L20 23L21 23L21 22L22 22L22 21L19 21L19 20L20 20L20 19L21 19L21 20L23 20L23 18L24 18L24 17L22 17L22 18L21 18L21 17ZM4 18L4 20L6 20L6 21L8 21L8 20L6 20L6 19L5 19L5 18ZM19 18L19 19L20 19L20 18ZM3 22L3 23L4 23L4 22ZM6 22L6 23L7 23L7 22ZM14 23L14 24L15 24L15 23ZM16 23L16 24L18 24L18 23ZM30 26L30 27L31 27L31 26ZM27 27L27 29L28 29L28 27ZM19 28L19 29L22 29L22 30L23 30L23 29L22 29L22 28ZM29 29L29 32L32 32L32 29ZM19 30L19 32L20 32L20 33L22 33L22 32L21 32L21 31L20 31L20 30ZM30 30L30 31L31 31L31 30ZM14 31L14 32L15 32L15 31ZM33 31L33 34L32 34L32 33L31 33L31 34L28 34L28 35L29 35L29 36L31 36L31 34L32 34L32 36L36 36L36 35L35 35L35 33L34 33L34 32L35 32L35 31ZM9 34L9 35L10 35L10 34ZM15 34L15 35L14 35L14 36L15 36L15 37L19 37L19 36L15 36L15 35L16 35L16 34ZM17 34L17 35L18 35L18 34ZM33 34L33 35L34 35L34 34ZM0 0L0 7L7 7L7 0ZM1 1L1 6L6 6L6 1ZM2 2L2 5L5 5L5 2ZM30 0L30 7L37 7L37 0ZM31 1L31 6L36 6L36 1ZM32 2L32 5L35 5L35 2ZM0 30L0 37L7 37L7 30ZM1 31L1 36L6 36L6 31ZM2 32L2 35L5 35L5 32Z" fill="#000000"/></g></g></svg>
